<?xml version="1.0" encoding="utf-8" ?>
<svg baseProfile="full" height="100%" version="1.1" viewBox="0,0,1000,120" width="100%" xmlns="http://www.w3.org/2000/svg" xmlns:ev="http://www.w3.org/2001/xml-events" xmlns:xlink="http://www.w3.org/1999/xlink"><defs /><rect fill="white" height="120" width="1000" x="0" y="0" /><path d="M0,0 M321.5526123046875,51.72751235961914 L321.5546569824219,51.7553825378418 L321.55255126953125,51.94537353515625 L321.5511169433594,52.425777435302734 L321.5554504394531,53.29166030883789 L321.5586242675781,54.548240661621094 L321.5498962402344,56.15936279296875 L321.5284423828125,58.07066345214844 L321.48321533203125,60.23275375366211 L321.4110107421875,62.57893753051758 L321.31707763671875,65.02897644042969 L321.1873474121094,67.4680404663086 L321.02301025390625,69.78963470458984 L320.84478759765625,71.88529968261719 L320.67437744140625,73.65431213378906 L320.5255432128906,75.02668762207031 L320.4342041015625,75.91581726074219 L320.4117431640625,76.28419494628906 L320.46307373046875,76.17446899414062 L320.5479431152344,75.84202575683594 L320.625732421875,75.50908660888672 M315.789306640625,50.58220291137695 L315.90966796875,50.215576171875 L316.33251953125,49.633602142333984 L317.22796630859375,48.91615676879883 L318.6925048828125,48.224571228027344 L320.6789855957031,47.608795166015625 L323.0314636230469,47.149688720703125 L325.51171875,46.90199279785156 L327.8849792480469,46.926429748535156 L329.95037841796875,47.238807678222656 L331.5660400390625,47.808937072753906 L332.62554931640625,48.57718276977539 L333.0632629394531,49.49006652832031 L332.8329162597656,50.507965087890625 L331.9308776855469,51.593570709228516 L330.457763671875,52.704139709472656 L328.5994567871094,53.77914047241211 L326.6123352050781,54.74174880981445 L324.79449462890625,55.50962829589844 L323.380615234375,56.04292297363281 L322.4625244140625,56.33469772338867 L322.04791259765625,56.41596984863281 L322.0709533691406,56.327266693115234 L322.4866638183594,56.1147346496582 L323.3180847167969,55.83206558227539 L324.5954284667969,55.566810607910156 L326.2654113769531,55.41785430908203 L328.23175048828125,55.472412109375 L330.3273010253906,55.77659606933594 L332.38800048828125,56.35036849975586 L334.29071044921875,57.18581008911133 L335.9483947753906,58.250648498535156 L337.2908935546875,59.49650573730469 L338.31005859375,60.8522834777832 L338.9954528808594,62.2437744140625 L339.357666015625,63.60793685913086 L339.4056701660156,64.90818786621094 L339.1312561035156,66.10820770263672 L338.52239990234375,67.18904113769531 L337.5852966308594,68.1250228881836 L336.3154296875,68.90846252441406 L334.743408203125,69.52046203613281 L332.91705322265625,69.9676742553711 L330.9042663574219,70.25585174560547 L328.78271484375,70.39641571044922 L326.64483642578125,70.38771057128906 L324.577880859375,70.2428970336914 L322.6592712402344,69.95460510253906 L320.9873352050781,69.52063751220703 L319.6586608886719,68.97505950927734 L318.7256774902344,68.37024688720703 L318.19647216796875,67.8602066040039 L317.9833068847656,67.53734588623047 M339.3319396972656,67.5362548828125 L339.6779479980469,67.50994110107422 L340.3419189453125,67.41434478759766 L341.3138122558594,67.217529296875 L342.4838562011719,66.89924621582031 L343.78082275390625,66.47064971923828 L345.11541748046875,65.96148681640625 L346.4197082519531,65.40824127197266 L347.6146545410156,64.83841705322266 L348.5965881347656,64.27432250976562 L349.2936706542969,63.727516174316406 L349.6749267578125,63.21641540527344 L349.7178649902344,62.757598876953125 L349.4537048339844,62.37824249267578 L348.910888671875,62.114376068115234 L348.09637451171875,61.9762077331543 L347.0418701171875,61.98896789550781 L345.7838134765625,62.164005279541016 L344.37677001953125,62.508975982666016 L342.91217041015625,63.01966857910156 L341.4914245605469,63.689056396484375 L340.2014465332031,64.47698974609375 L339.1253356933594,65.37004852294922 L338.312255859375,66.33695983886719 L337.791015625,67.3537826538086 L337.57330322265625,68.38812255859375 L337.6870422363281,69.40235900878906 L338.1553039550781,70.33989715576172 L338.9986572265625,71.14820861816406 L340.2276916503906,71.76188659667969 L341.8042297363281,72.13223266601562 L343.6614990234375,72.24878692626953 L345.7032775878906,72.13179779052734 L347.8115234375,71.82039642333984 L349.8691711425781,71.36385345458984 L351.7791442871094,70.80885314941406 L353.4666748046875,70.17800903320312 L354.8775634765625,69.51899719238281 L355.9713134765625,68.87828063964844 L356.6824951171875,68.37869262695312 L357.0450134277344,68.07535552978516 M366.1320495605469,59.39751434326172 L365.977783203125,59.16449737548828 L365.61956787109375,58.84621810913086 L365.0072326660156,58.53567123413086 L364.13873291015625,58.36577224731445 L363.03814697265625,58.36712646484375 L361.77935791015625,58.544464111328125 L360.47015380859375,58.867347717285156 L359.2364501953125,59.32148742675781 L358.2320556640625,59.872127532958984 L357.5789794921875,60.49638748168945 L357.3601989746094,61.1716194152832 L357.61065673828125,61.87439727783203 L358.33685302734375,62.578365325927734 L359.48956298828125,63.260860443115234 L361.00091552734375,63.90829086303711 L362.7669372558594,64.54254150390625 L364.6605224609375,65.20149993896484 L366.535888671875,65.9169921875 L368.2669677734375,66.69953918457031 L369.73626708984375,67.52603149414062 L370.8861389160156,68.36282348632812 L371.69921875,69.1759033203125 L372.18310546875,69.94973754882812 L372.34356689453125,70.66433715820312 L372.18023681640625,71.3007583618164 L371.6822509765625,71.83499145507812 L370.86029052734375,72.24775695800781 L369.74017333984375,72.51345825195312 L368.36578369140625,72.63005065917969 L366.80242919921875,72.5934066772461 L365.11785888671875,72.4148178100586 L363.37359619140625,72.11007690429688 L361.62384033203125,71.71292114257812 L359.9385986328125,71.26117706298828 L358.3750915527344,70.8103256225586 L357.03717041015625,70.38761901855469 L356.03570556640625,70.02182006835938 L355.43011474609375,69.71004486083984 L355.16217041015625,69.48503112792969 L355.1183776855469,69.35285949707031 M377.3996276855469,45.0 L377.34930419921875,45.10268020629883 L377.285888671875,45.43073272705078 L377.234375,46.10198211669922 L377.2060852050781,47.162025451660156 L377.17413330078125,48.58230972290039 L377.11993408203125,50.302616119384766 L377.0217590332031,52.251930236816406 L376.8841552734375,54.38812255859375 L376.74560546875,56.685569763183594 L376.6124267578125,59.09637451171875 L376.4788513183594,61.54815673828125 L376.3522644042969,63.93937683105469 L376.22607421875,66.14237213134766 L376.1168518066406,68.06416320800781 L376.08831787109375,69.65569305419922 L376.1549072265625,70.88847351074219 L376.2976379394531,71.76261901855469 L376.48284912109375,72.29566955566406 L376.6353759765625,72.54627990722656 L376.71917724609375,72.61691284179688 M369.52618408203125,55.49054718017578 L369.900390625,55.48731994628906 L370.7627868652344,55.48182678222656 L372.1952209472656,55.468894958496094 L374.099853515625,55.43496322631836 L376.2664794921875,55.36381530761719 L378.49017333984375,55.2866325378418 L380.5857238769531,55.230411529541016 L382.42156982421875,55.20471954345703 L383.891845703125,55.20899963378906 L384.9464111328125,55.21343994140625 L385.5610656738281,55.204505920410156 L385.83123779296875,55.191673278808594 M403.5101623535156,62.287330627441406 L403.5259094238281,62.91385269165039 L403.5833740234375,64.02545166015625 L403.67266845703125,65.55253601074219 L403.7699279785156,67.26115417480469 L403.82806396484375,69.02592468261719 L403.80224609375,70.72184753417969 L403.67083740234375,72.24606323242188 L403.48931884765625,73.49469757080078 L403.3061218261719,74.39755249023438 L403.17047119140625,74.93448638916016 L403.0936584472656,75.10675811767578 L403.030517578125,74.91370391845703 L402.931396484375,74.32099914550781 L402.82110595703125,73.32041931152344 L402.7434997558594,71.95873260498047 L402.74139404296875,70.31852722167969 L402.87042236328125,68.50972747802734 L403.1598815917969,66.63807678222656 L403.608642578125,64.77584838867188 L404.2454833984375,62.99677276611328 L405.0811462402344,61.388160705566406 L406.09344482421875,60.020145416259766 L407.273193359375,58.96841812133789 L408.5948486328125,58.28251647949219 L409.9908142089844,57.970008850097656 L411.4053039550781,57.99829864501953 L412.7792663574219,58.30638122558594 L414.08978271484375,58.834930419921875 L415.3099365234375,59.50053405761719 L416.4162292480469,60.21052551269531 L417.2447204589844,60.78744888305664 L417.736572265625,61.14350891113281 M416.79156494140625,67.56169128417969 L417.01416015625,67.65740203857422 L417.49871826171875,67.74285125732422 L418.3085632324219,67.73480224609375 L419.4202880859375,67.5406723022461 L420.78558349609375,67.1436996459961 L422.2993469238281,66.55461120605469 L423.84912109375,65.8140869140625 L425.326904296875,64.95521545410156 L426.6381530761719,64.02287292480469 L427.68096923828125,63.0593376159668 L428.35894775390625,62.11537551879883 L428.59051513671875,61.248085021972656 L428.3376159667969,60.527488708496094 L427.6013488769531,60.02256393432617 L426.43438720703125,59.80440902709961 L424.892578125,59.913265228271484 L423.05767822265625,60.3624267578125 L421.04547119140625,61.14970779418945 L419.0000305175781,62.247501373291016 L417.08349609375,63.60906982421875 L415.45916748046875,65.15125274658203 L414.24383544921875,66.76565551757812 L413.5277099609375,68.33382415771484 L413.3822021484375,69.77490997314453 L413.8227844238281,71.02627563476562 L414.8218078613281,72.04444122314453 L416.3114013671875,72.79887390136719 L418.171630859375,73.28428649902344 L420.2551574707031,73.51057434082031 L422.4292297363281,73.53815460205078 L424.548583984375,73.43880462646484 L426.5129089355469,73.24557495117188 L428.2548522949219,72.99810028076172 L429.72052001953125,72.71733093261719 L430.7490234375,72.47013854980469 L431.3272399902344,72.30410766601562 M442.5469970703125,62.811763763427734 L442.44580078125,62.47105407714844 L442.2416687011719,61.963253021240234 L441.8779602050781,61.410526275634766 L441.3075256347656,61.02412796020508 L440.4617614746094,60.913780212402344 L439.33837890625,61.1616325378418 L438.022705078125,61.7815055847168 L436.6572265625,62.75497055053711 L435.400146484375,64.02046966552734 L434.4070129394531,65.48090362548828 L433.7549133300781,67.02169799804688 L433.497802734375,68.52088928222656 L433.673828125,69.84016418457031 L434.2804260253906,70.8488540649414 L435.31170654296875,71.44642639160156 L436.7279052734375,71.5677719116211 L438.38983154296875,71.20268249511719 L440.1495361328125,70.39725494384766 L441.85137939453125,69.23772430419922 L443.33367919921875,67.84307861328125 L444.51300048828125,66.34940338134766 L445.3290100097656,64.8963851928711 L445.7555847167969,63.61322021484375 L445.845458984375,62.58826446533203 L445.6916809082031,61.868045806884766 L445.3764343261719,61.463478088378906 L445.0014953613281,61.38920211791992 L444.6092224121094,61.66254806518555 L444.24456787109375,62.305599212646484 L443.9606018066406,63.30574417114258 L443.8149108886719,64.6193618774414 L443.849365234375,66.17494201660156 L444.0826416015625,67.91853332519531 L444.47149658203125,69.80760955810547 L444.9640197753906,71.82084655761719 L445.5001525878906,73.9234619140625 L446.0135498046875,76.07440185546875 L446.4471740722656,78.21664428710938 L446.729248046875,80.28385162353516 L446.8028259277344,82.21656799316406 L446.6394958496094,83.96324157714844 L446.2422180175781,85.4728012084961 L445.6130065917969,86.71722412109375 L444.76104736328125,87.68486785888672 L443.67889404296875,88.36237335205078 L442.3905029296875,88.75199127197266 L440.9354553222656,88.85591125488281 L439.39447021484375,88.68000793457031 L437.8691711425781,88.24765014648438 L436.4511413574219,87.59603881835938 L435.20526123046875,86.77559661865234 L434.1956787109375,85.79037475585938 L433.4551086425781,84.67926025390625 L432.999267578125,83.51213836669922 L432.78948974609375,82.55148315429688 L432.7373962402344,81.93917846679688 M458.5296630859375,62.41734313964844 L458.2091064453125,62.181060791015625 L457.66473388671875,61.87773513793945 L456.90814208984375,61.628814697265625 L456.0013122558594,61.60700225830078 L454.9129638671875,61.874755859375 L453.6910400390625,62.465667724609375 L452.4060974121094,63.36748504638672 L451.18707275390625,64.56515502929688 L450.1619567871094,66.00115966796875 L449.4397277832031,67.58721160888672 L449.0926208496094,69.20462036132812 L449.1789855957031,70.7170639038086 L449.70489501953125,71.99530029296875 L450.6381530761719,72.9460678100586 L451.906494140625,73.50100708007812 L453.4181823730469,73.61711883544922 L455.0555419921875,73.28492736816406 L456.71246337890625,72.52572631835938 L458.2769470214844,71.4020767211914 L459.6556396484375,70.00987243652344 L460.8032531738281,68.4732666015625 L461.6859130859375,66.90133666992188 L462.29034423828125,65.40324401855469 L462.6386413574219,64.09439849853516 L462.7689208984375,63.06192398071289 L462.7437744140625,62.34791564941406 L462.656005859375,61.98886489868164 L462.5555114746094,61.98451614379883 L462.4715270996094,62.3399543762207 L462.4159851074219,63.08475875854492 L462.401123046875,64.1996841430664 L462.4397277832031,65.60836791992188 L462.55682373046875,67.2149429321289 L462.76287841796875,68.89109802246094 L463.064453125,70.5113525390625 L463.4561462402344,71.96745300292969 L463.9035339355469,73.14935302734375 L464.3321228027344,73.99410247802734 L464.67169189453125,74.50936889648438 L464.8865966796875,74.70130920410156 L464.9972229003906,74.6148910522461 L465.0617370605469,74.29765319824219 L465.10986328125,73.9222183227539 L465.1473693847656,73.6233901977539 M469.5494689941406,61.735626220703125 L469.59149169921875,61.83013916015625 L469.64801025390625,62.132381439208984 L469.70123291015625,62.74873733520508 L469.7157287597656,63.71957015991211 L469.68212890625,65.01129913330078 L469.62060546875,66.53114318847656 L469.53106689453125,68.14249420166016 L469.43927001953125,69.69477081298828 L469.37554931640625,71.03236389160156 L469.34564208984375,72.02069854736328 L469.3603820800781,72.6352310180664 L469.3962707519531,72.89305114746094 L469.4145202636719,72.81786346435547 L469.4211730957031,72.40951538085938 L469.4514465332031,71.64366149902344 L469.55377197265625,70.51348876953125 L469.7847595214844,69.12991333007812 L470.1638488769531,67.61636352539062 L470.6956787109375,66.09246063232422 L471.3814392089844,64.65597534179688 L472.2069091796875,63.37849426269531 L473.1520690917969,62.3223876953125 L474.18365478515625,61.55453872680664 L475.2686462402344,61.10445785522461 L476.36669921875,60.95372009277344 L477.4710693359375,61.06088638305664 L478.5602111816406,61.344730377197266 L479.6380920410156,61.747467041015625 L480.6678161621094,62.2014045715332 L481.60211181640625,62.661582946777344 L482.2885437011719,63.02525329589844 L482.68896484375,63.25454330444336 M492.38134765625,64.13151550292969 L492.162353515625,63.92036819458008 L491.75445556640625,63.613277435302734 L491.1432189941406,63.29787063598633 L490.3562316894531,63.10435485839844 L489.3677978515625,63.09053421020508 L488.20465087890625,63.308692932128906 L486.92138671875,63.7861213684082 L485.6156005859375,64.5386962890625 L484.41180419921875,65.56188201904297 L483.415771484375,66.80619049072266 L482.6935729980469,68.1921615600586 L482.304931640625,69.62153625488281 L482.28515625,70.99528503417969 L482.6368713378906,72.21576690673828 L483.35906982421875,73.19743347167969 L484.4041442871094,73.86078643798828 L485.7101745605469,74.1483383178711 L487.1843566894531,74.02204132080078 L488.7394104003906,73.49449157714844 L490.275634765625,72.61714172363281 L491.72540283203125,71.460205078125 L493.02618408203125,70.08906555175781 L494.1474609375,68.5491943359375 L495.0652160644531,66.87417602539062 L495.7813720703125,65.09920501708984 L496.3153076171875,63.28118896484375 L496.7069396972656,61.49097442626953 L497.00445556640625,59.802791595458984 L497.2400817871094,58.27632141113281 L497.43450927734375,56.99600601196289 L497.5834655761719,56.01173782348633 L497.68341064453125,55.3570556640625 L497.730712890625,55.04129409790039 L497.73980712890625,55.07093048095703 L497.7185974121094,55.45729446411133 L497.6835632324219,56.26322555541992 L497.63739013671875,57.49814224243164 L497.57110595703125,59.114017486572266 L497.47882080078125,61.00182342529297 L497.37872314453125,63.032630920410156 L497.2923583984375,65.07152557373047 L497.26177978515625,67.02796173095703 L497.3097229003906,68.80776977539062 L497.4335021972656,70.32887268066406 L497.60882568359375,71.52346801757812 L497.8042297363281,72.37274169921875 L497.97344970703125,72.89604187011719 L498.1170654296875,73.118408203125 L498.2431335449219,73.0751953125 L498.384521484375,72.81942749023438 L498.517578125,72.5053482055664 L498.6208801269531,72.25438690185547 M512.3535766601562,63.19223403930664 L512.139404296875,62.99567794799805 L511.7159729003906,62.70953369140625 L511.0291748046875,62.412593841552734 L510.0777282714844,62.22554397583008 L508.8804931640625,62.19093704223633 L507.54931640625,62.31686782836914 L506.253662109375,62.584835052490234 L505.2055358886719,62.97317123413086 L504.5390625,63.474830627441406 L504.320556640625,64.09239959716797 L504.5541687011719,64.82601165771484 L505.2150573730469,65.64263153076172 L506.2689514160156,66.50918579101562 L507.67767333984375,67.3895492553711 L509.3462829589844,68.27384185791016 L511.1616516113281,69.158203125 L512.9713134765625,70.04090881347656 L514.6310424804688,70.8895263671875 L516.023193359375,71.67945861816406 L517.09228515625,72.38560485839844 L517.8038330078125,73.0064697265625 L518.1550903320312,73.5313491821289 L518.1571044921875,73.96299743652344 L517.8358154296875,74.29549407958984 L517.2026977539062,74.52838134765625 L516.2957153320312,74.66718292236328 L515.1146240234375,74.71714782714844 L513.6739501953125,74.66246032714844 L512.0223388671875,74.50069427490234 L510.24798583984375,74.22561645507812 L508.4420166015625,73.8449935913086 L506.7012634277344,73.38661193847656 L505.0660400390625,72.8949203491211 L503.5660400390625,72.41101837158203 L502.2223205566406,71.98834228515625 L501.0845031738281,71.64897155761719 L500.2099914550781,71.40184020996094 L499.6379699707031,71.23421478271484 L499.3424072265625,71.13814544677734 L499.244384765625,71.09173583984375 M521.7147216796875,73.27545166015625 L521.7230224609375,73.45869445800781 L521.7371215820312,73.83580780029297 L521.7381591796875,74.443603515625 L521.6766357421875,75.26470184326172 L521.480224609375,76.27643585205078 L521.127197265625,77.45280456542969 L520.6320190429688,78.74301147460938 L520.039794921875,80.05845642089844 L519.4381103515625,81.27530670166016 L518.900634765625,82.26673889160156 L518.5123291015625,82.91157531738281 L518.2997436523438,83.22785186767578 M535.6138916015625,49.03258514404297 L535.7085571289062,49.08023452758789 L535.9974365234375,49.15845489501953 L536.5867309570312,49.24684524536133 L537.544189453125,49.28828048706055 L538.891357421875,49.25057601928711 L540.6063232421875,49.11309814453125 L542.6041259765625,48.88805389404297 L544.8143310546875,48.59935760498047 L547.1260986328125,48.260284423828125 L549.4193725585938,47.85818862915039 L551.5672607421875,47.396148681640625 L553.438232421875,46.88600540161133 L554.9063720703125,46.379188537597656 L555.9267578125,45.9320068359375 L556.512939453125,45.594120025634766 L556.7455444335938,45.40591049194336 L556.734130859375,45.4248046875 L556.577392578125,45.717262268066406 L556.3433837890625,46.36652374267578 L556.0814208984375,47.40849304199219 L555.8428955078125,48.823699951171875 L555.6661376953125,50.54997253417969 L555.57861328125,52.52410125732422 L555.57861328125,54.68134689331055 L555.6571044921875,56.97362518310547 L555.7828369140625,59.34881591796875 L555.931396484375,61.73767852783203 L556.059814453125,64.07486724853516 L556.124755859375,66.29502868652344 L556.074951171875,68.3342056274414 L555.8885498046875,70.13381958007812 L555.55322265625,71.6648941040039 L555.0643310546875,72.92005920410156 L554.3739013671875,73.90132141113281 L553.4346923828125,74.59489440917969 L552.2119750976562,74.98880004882812 L550.7147216796875,75.05317687988281 L549.011962890625,74.79888153076172 L547.216796875,74.28966522216797 L545.4022827148438,73.59013366699219 L543.653076171875,72.75597381591797 L542.0518798828125,71.84846496582031 L540.640869140625,70.86898040771484 L539.4716796875,69.84156799316406 L538.5923461914062,68.82376861572266 L538.0048828125,67.86143493652344 L537.7152099609375,66.9979248046875 L537.8262939453125,66.2850570678711 L538.3648071289062,65.724609375 L539.3223266601562,65.3223876953125 L540.3250122070312,65.0849838256836 L541.0765991210938,64.97786712646484 M565.1763305664062,64.69084930419922 L565.0364990234375,64.3644027709961 L564.7344970703125,63.86714172363281 L564.224853515625,63.302001953125 L563.501953125,62.84618377685547 L562.5814208984375,62.58307647705078 L561.5009765625,62.573970794677734 L560.308837890625,62.84696578979492 L559.0966186523438,63.43468475341797 L557.9335327148438,64.33059692382812 L556.8883056640625,65.49540710449219 L556.045654296875,66.8499984741211 L555.4866333007812,68.28346252441406 L555.2735595703125,69.6688461303711 L555.462646484375,70.88404846191406 L556.036865234375,71.8214111328125 L556.9425048828125,72.4143295288086 L558.0935668945312,72.62086486816406 L559.3966674804688,72.43396759033203 L560.7440185546875,71.87338256835938 L562.0577392578125,70.98224639892578 L563.2506103515625,69.83084869384766 L564.271728515625,68.51580047607422 L565.083251953125,67.15087890625 L565.6865234375,65.87134552001953 L566.0887451171875,64.79891204833984 L566.3348388671875,63.99778747558594 L566.445556640625,63.4985466003418 L566.4703369140625,63.310447692871094 L566.462890625,63.44742965698242 L566.464599609375,63.946075439453125 L566.5087280273438,64.82967376708984 L566.625732421875,66.02320098876953 L566.8198852539062,67.41435241699219 L567.105712890625,68.85787963867188 L567.4832763671875,70.20256805419922 L567.9171142578125,71.32626342773438 L568.3612060546875,72.1591796875 L568.7694091796875,72.66761779785156 L569.0673828125,72.90691375732422 L569.23828125,72.97779846191406 M572.8240966796875,62.22464370727539 L572.891357421875,62.417564392089844 L573.009521484375,62.854000091552734 L573.1578369140625,63.59669876098633 L573.2908935546875,64.6279296875 L573.3775634765625,65.89633178710938 L573.4034423828125,67.28910064697266 L573.3844604492188,68.66897583007812 L573.3458251953125,69.89012145996094 L573.3084716796875,70.84749603271484 L573.2783203125,71.47628784179688 L573.2542724609375,71.76106262207031 L573.2273559570312,71.69554901123047 L573.2181396484375,71.27953338623047 L573.267822265625,70.51531219482422 L573.419677734375,69.4581069946289 L573.6981201171875,68.19329833984375 L574.1212768554688,66.83598327636719 L574.6875,65.48819732666016 L575.4027099609375,64.23933410644531 L576.2745361328125,63.146705627441406 L577.2879638671875,62.27574157714844 L578.3975830078125,61.67750930786133 L579.5523681640625,61.39586639404297 L580.6930541992188,61.44503402709961 L581.7756958007812,61.826873779296875 L582.7635498046875,62.50014877319336 L583.6309814453125,63.426597595214844 L584.34765625,64.53885650634766 L584.9073486328125,65.76600646972656 L585.31982421875,67.02568817138672 L585.6044921875,68.23872375488281 L585.7830810546875,69.3253402709961 L585.8880004882812,70.23407745361328 L585.9441528320312,70.92601776123047 L585.972900390625,71.3669662475586 L585.9896240234375,71.58692932128906 M589.3021240234375,67.38231658935547 L589.5598754882812,67.41255950927734 L590.044677734375,67.4300308227539 L590.76416015625,67.40245819091797 L591.655517578125,67.29367065429688 L592.6815795898438,67.08649444580078 L593.7906494140625,66.75775909423828 L594.926513671875,66.30083465576172 L596.0135498046875,65.7199478149414 L596.9609985351562,65.03962707519531 L597.6868896484375,64.30653381347656 L598.107666015625,63.56657791137695 L598.176513671875,62.854461669921875 L597.8974609375,62.2176628112793 L597.2916870117188,61.703125 L596.4051513671875,61.361724853515625 L595.3014526367188,61.23616027832031 L594.03369140625,61.3538818359375 L592.6785278320312,61.7093505859375 L591.3424682617188,62.28204345703125 L590.1300048828125,63.04691696166992 L589.1546630859375,63.980247497558594 L588.4993896484375,65.04224395751953 L588.2103271484375,66.19580078125 L588.3355712890625,67.3844985961914 L588.9021606445312,68.53325653076172 L589.916259765625,69.58470916748047 L591.350341796875,70.47419738769531 L593.1309814453125,71.15241241455078 L595.151611328125,71.5970458984375 L597.306640625,71.82421112060547 L599.4641723632812,71.86712646484375 L601.4998168945312,71.7904052734375 L603.263671875,71.64414978027344 L604.6517944335938,71.48078918457031 L605.5506591796875,71.34832000732422 L606.0018310546875,71.27079010009766 M634.8465576171875,50.49251174926758 L634.708251953125,50.302223205566406 L634.37744140625,50.03744888305664 L633.7842407226562,49.776092529296875 L632.89990234375,49.6334228515625 L631.7356567382812,49.65216827392578 L630.3338012695312,49.850013732910156 L628.79931640625,50.23057174682617 L627.260009765625,50.79767608642578 L625.8642578125,51.534095764160156 L624.7412109375,52.398956298828125 L624.0061645507812,53.34860610961914 L623.7100830078125,54.334564208984375 L623.9014282226562,55.32832336425781 L624.6065673828125,56.31774139404297 L625.8243408203125,57.291648864746094 L627.5070190429688,58.2408332824707 L629.552490234375,59.17659378051758 L631.7877197265625,60.133766174316406 L634.0323486328125,61.14472198486328 L636.1170654296875,62.23143768310547 L637.9176025390625,63.37804412841797 L639.354248046875,64.55596923828125 L640.3707275390625,65.73126983642578 L640.9456787109375,66.90042114257812 L641.06640625,68.04917907714844 L640.7344970703125,69.152099609375 L639.9810180664062,70.15567016601562 L638.8248901367188,71.00201416015625 L637.2787475585938,71.6360092163086 L635.3697509765625,72.0373764038086 L633.1322021484375,72.20999908447266 L630.6595458984375,72.17936706542969 L628.10546875,71.98822784423828 L625.6387939453125,71.6816177368164 L623.4340209960938,71.30870056152344 L621.6102294921875,70.87944030761719 L620.22705078125,70.4073486328125 L619.2725830078125,69.92779541015625 L618.6881103515625,69.49530792236328 L618.4929809570312,69.16141510009766 L618.7147827148438,68.96488952636719 L619.354248046875,68.85791015625 L620.1094970703125,68.80477142333984 L620.7181396484375,68.7785873413086 M643.873046875,60.84207534790039 L643.8701782226562,60.834754943847656 L643.8663330078125,60.895965576171875 L643.8614501953125,61.123069763183594 L643.84716796875,61.619564056396484 L643.8128051757812,62.468955993652344 L643.762451171875,63.6490478515625 L643.6906127929688,65.10430908203125 L643.61083984375,66.7175064086914 L643.5511474609375,68.35238647460938 L643.529296875,69.84909057617188 L643.5474853515625,71.0953369140625 L643.5971069335938,71.98077392578125 L643.6453247070312,72.4454345703125 L643.6767578125,72.44634246826172 L643.7075805664062,71.98141479492188 L643.7747802734375,71.05236053466797 L643.9178466796875,69.74427032470703 L644.1754760742188,68.18537139892578 L644.580322265625,66.52009582519531 L645.16064453125,64.87427520751953 L645.939453125,63.37278366088867 L646.92041015625,62.10059356689453 L648.071044921875,61.1368522644043 L649.3348388671875,60.542396545410156 L650.6461791992188,60.34052276611328 L651.930908203125,60.51296615600586 L653.1204833984375,61.03696060180664 L654.1520385742188,61.875328063964844 L654.9669189453125,62.973670959472656 L655.5203857421875,64.25743865966797 L655.8140258789062,65.63143157958984 L655.8670654296875,66.96715545654297 L655.75634765625,68.13997650146484 L655.57275390625,69.05034637451172 L655.3887939453125,69.61676025390625 L655.2525634765625,69.77778625488281 L655.2005004882812,69.51180267333984 L655.2520751953125,68.83162689208984 L655.4659423828125,67.8106689453125 L655.8736572265625,66.5655288696289 L656.4723510742188,65.21881103515625 L657.2548217773438,63.8682746887207 L658.193603515625,62.59722137451172 L659.268798828125,61.483028411865234 L660.462158203125,60.608158111572266 L661.723876953125,60.02802658081055 L662.9801025390625,59.78017044067383 L664.1724243164062,59.870323181152344 L665.2450561523438,60.29684066772461 L666.1715087890625,61.04654312133789 L666.9351196289062,62.092933654785156 L667.5259399414062,63.36170196533203 L667.9461669921875,64.75656127929688 L668.2147216796875,66.15545654296875 L668.3524169921875,67.44140625 L668.39892578125,68.51300811767578 L668.3991088867188,69.31568908691406 L668.3880004882812,69.84037017822266 L668.384521484375,70.12163543701172 L668.39208984375,70.23360443115234 M672.8853759765625,62.099971771240234 L672.91259765625,62.15317916870117 L672.9603271484375,62.35250473022461 L673.0155029296875,62.78853988647461 L673.0634765625,63.503997802734375 L673.0922241210938,64.46852111816406 L673.1039428710938,65.62390899658203 L673.1063232421875,66.88551330566406 L673.1044921875,68.14109802246094 L673.0965576171875,69.272705078125 L673.087646484375,70.16112518310547 L673.0791625976562,70.71947479248047 L673.07275390625,70.97859954833984 M672.0076293945312,52.3985710144043 L671.97802734375,52.25010681152344 L672.0023193359375,52.09336471557617 L672.0650634765625,51.97626876831055 L672.1510009765625,51.94671630859375 M682.39111328125,50.51265335083008 L682.3701171875,50.66978454589844 L682.3519897460938,51.05498504638672 L682.3436889648438,51.75258255004883 L682.33154296875,52.776824951171875 L682.290771484375,54.122772216796875 L682.1788940429688,55.75894546508789 L681.9878540039062,57.65367889404297 L681.7399291992188,59.74840545654297 L681.4845581054688,61.965187072753906 L681.26611328125,64.19803619384766 L681.1292724609375,66.3499984741211 L681.0868530273438,68.32144165039062 L681.1231689453125,70.02919006347656 L681.1903076171875,71.40602111816406 L681.25341796875,72.41706085205078 L681.2794799804688,73.00505065917969 L681.2696533203125,73.15906524658203 L681.2396850585938,72.90953063964844 L681.2091064453125,72.49805450439453 L681.18701171875,72.13212585449219 M677.473876953125,62.43394088745117 L677.774658203125,62.542213439941406 L678.4065551757812,62.713096618652344 L679.4034423828125,62.90840148925781 L680.6807861328125,63.048702239990234 L682.162353515625,63.09113311767578 L683.75439453125,63.01765060424805 L685.3636474609375,62.835227966308594 L686.9495849609375,62.50245666503906 L688.433349609375,61.99460983276367 L689.734375,61.30517578125 L690.6788330078125,60.64628601074219 L691.2205200195312,60.17264938354492 M691.9930419921875,51.33734130859375 L692.0897216796875,51.66317367553711 L692.2476806640625,52.36974334716797 L692.432373046875,53.51217269897461 L692.5888671875,55.03602981567383 L692.6925048828125,56.864234924316406 L692.7401123046875,58.9057731628418 L692.748779296875,61.0728759765625 L692.7335815429688,63.25700378417969 L692.6998291015625,65.31420135498047 L692.6515502929688,67.09667205810547 L692.5979614257812,68.49388885498047 L692.54248046875,69.44046020507812 L692.5028076171875,69.91688537597656 L692.4951171875,69.93161010742188 L692.556396484375,69.51053619384766 L692.72900390625,68.69092559814453 L693.0655517578125,67.57239532470703 L693.5734252929688,66.25859069824219 L694.2573852539062,64.8659439086914 L695.0879516601562,63.49178695678711 L696.0452270507812,62.23002243041992 L697.1021728515625,61.1580810546875 L698.2476806640625,60.37440490722656 L699.4324340820312,59.944393157958984 L700.6131591796875,59.914207458496094 L701.7344970703125,60.28730773925781 L702.7517700195312,61.05158615112305 L703.6228637695312,62.154136657714844 L704.3391723632812,63.523529052734375 L704.893798828125,65.05721282958984 L705.3046875,66.63136291503906 L705.611328125,68.11936950683594 L705.849853515625,69.43116760253906 L706.0589599609375,70.50952911376953 L706.258544921875,71.34156799316406 L706.4720458984375,71.92578125 L706.7239990234375,72.25376892089844 L706.955810546875,72.38217163085938 L707.121826171875,72.38948059082031 " fill="none" stroke="black" stroke-linecap="round" stroke-width="2" /></svg>