<?xml version="1.0" encoding="utf-8" ?>
<svg baseProfile="full" height="100%" version="1.1" viewBox="0,0,1000,120" width="100%" xmlns="http://www.w3.org/2000/svg" xmlns:ev="http://www.w3.org/2001/xml-events" xmlns:xlink="http://www.w3.org/1999/xlink"><defs /><rect fill="white" height="120" width="1000" x="0" y="0" /><path d="M0,0 M-4.9132537841796875,50.88201141357422 L-4.866233825683594,51.107688903808594 L-4.80810546875,51.633766174316406 L-4.786712646484375,52.538841247558594 L-4.856021881103516,53.82965087890625 L-5.064277648925781,55.49321746826172 L-5.40740966796875,57.49359893798828 L-5.819145202636719,59.74906921386719 L-6.242546081542969,62.123756408691406 L-6.605400085449219,64.44815826416016 L-6.8555450439453125,66.57388305664062 L-7.002616882324219,68.43095397949219 L-7.030296325683594,69.9459228515625 L-6.922279357910156,71.03162384033203 L-6.707366943359375,71.62992095947266 L-6.472198486328125,71.83382415771484 L-6.288738250732422,71.80265045166016 M4.6298065185546875,52.069000244140625 L4.69354248046875,52.19386291503906 L4.769706726074219,52.65846633911133 L4.795978546142578,53.63913345336914 L4.692378997802734,55.19136047363281 L4.402313232421875,57.1827507019043 L3.9530372619628906,59.42159652709961 L3.455810546875,61.71718215942383 L3.00396728515625,63.906864166259766 L2.6715736389160156,65.85475158691406 L2.4623260498046875,67.45006561279297 L2.3454360961914062,68.52410888671875 L2.2834129333496094,69.08389282226562 M-6.157356262207031,62.77162551879883 L-6.059059143066406,62.778831481933594 L-5.692779541015625,62.782413482666016 L-4.9019012451171875,62.768035888671875 L-3.618274688720703,62.71222686767578 L-1.8995132446289062,62.60780715942383 L0.10824966430664062,62.448394775390625 L2.2282752990722656,62.23234939575195 L4.3255462646484375,61.96036148071289 L6.308067321777344,61.63600540161133 L8.082565307617188,61.274532318115234 L9.558746337890625,60.913204193115234 L10.654720306396484,60.575313568115234 L11.332115173339844,60.268455505371094 L11.592559814453125,59.98506546020508 L11.506767272949219,59.735748291015625 L11.127201080322266,59.56591796875 L10.49481201171875,59.538917541503906 L9.680904388427734,59.70880889892578 L8.779315948486328,60.09431076049805 L7.847877502441406,60.680362701416016 L7.002429962158203,61.450523376464844 L6.318050384521484,62.36753463745117 L5.845409393310547,63.37262725830078 L5.6696624755859375,64.38966369628906 L5.870876312255859,65.3282470703125 L6.449028015136719,66.1026611328125 L7.420368194580078,66.66259002685547 L8.728557586669922,66.96359252929688 L10.275981903076172,66.99092102050781 L11.979270935058594,66.75628662109375 L13.758537292480469,66.29341888427734 L15.497390747070312,65.63297271728516 L17.106224060058594,64.82363891601562 L18.481689453125,63.892250061035156 L19.563316345214844,62.869384765625 L20.34161376953125,61.808143615722656 L20.852706909179688,60.789676666259766 L21.1494140625,59.889190673828125 L21.305465698242188,59.19293212890625 L21.373550415039062,58.71588134765625 L21.41852569580078,58.43998336791992 L21.463531494140625,58.367088317871094 L21.486679077148438,58.5429573059082 L21.45075225830078,59.03044891357422 L21.307846069335938,59.88228225708008 L21.032455444335938,61.031612396240234 L20.66339111328125,62.33794403076172 L20.266921997070312,63.63249588012695 L19.89154052734375,64.75936889648438 L19.599525451660156,65.62736511230469 L19.404693603515625,66.23515319824219 L19.298751831054688,66.5925064086914 L19.266090393066406,66.69291687011719 L19.313919067382812,66.50057983398438 L19.437118530273438,65.94454193115234 L19.661270141601562,65.00837707519531 L19.9970703125,63.801734924316406 L20.45191192626953,62.48583984375 L21.03594207763672,61.2080192565918 L21.77527618408203,60.07060623168945 L22.688674926757812,59.10359191894531 L23.790771484375,58.3104362487793 L25.0516357421875,57.72203063964844 L26.427642822265625,57.36283874511719 L27.851776123046875,57.24429702758789 L29.261550903320312,57.34951400756836 L30.615798950195312,57.62110900878906 L31.949752807617188,57.99230194091797 L33.25579833984375,58.40073776245117 L34.52702331542969,58.7913818359375 L35.53352355957031,59.08928298950195 L36.16015625,59.26848220825195 M35.39265441894531,64.91846466064453 L35.64190673828125,64.86491394042969 L36.2110595703125,64.66710662841797 L37.150054931640625,64.24824523925781 L38.38874816894531,63.57668685913086 L39.777496337890625,62.69004821777344 L41.12371826171875,61.6787223815918 L42.28453063964844,60.651023864746094 L43.136932373046875,59.69869613647461 L43.60243225097656,58.8866081237793 L43.638031005859375,58.264896392822266 L43.21272277832031,57.87792205810547 L42.32255554199219,57.80669021606445 L41.02470397949219,58.134864807128906 L39.45263671875,58.89543151855469 L37.797607421875,60.034427642822266 L36.29396057128906,61.43163299560547 L35.170257568359375,62.92219924926758 L34.60337829589844,64.3825454711914 L34.6864013671875,65.72962188720703 L35.59562683105469,66.87116241455078 L37.31842041015625,67.72355651855469 L39.699493408203125,68.23450469970703 L41.941436767578125,68.44747924804688 L43.50382995605469,68.47538757324219 M66.48497009277344,59.52245330810547 L66.54011535644531,59.55168151855469 L66.6314697265625,59.733734130859375 L66.74114990234375,60.18671417236328 L66.82974243164062,60.99103927612305 L66.86619567871094,62.118988037109375 L66.81307983398438,63.468116760253906 L66.66983032226562,64.90322875976562 L66.44450378417969,66.24791717529297 L66.16358947753906,67.33928680419922 L65.87289428710938,68.07674407958984 L65.64387512207031,68.4561996459961 L65.50254821777344,68.574951171875 M67.05718994140625,51.34344482421875 L67.07405090332031,51.27734375 L67.09213256835938,51.202903747558594 L67.10549926757812,51.14337921142578 L67.10826110839844,51.122013092041016 M79.73823547363281,58.009708404541016 L79.65388488769531,57.95174026489258 L79.38932800292969,57.862884521484375 L78.83345031738281,57.789344787597656 L77.92803955078125,57.81593704223633 L76.71365356445312,58.00382614135742 L75.32936096191406,58.363670349121094 L74.01509094238281,58.86139678955078 L73.01026916503906,59.43986129760742 L72.50772094726562,60.055912017822266 L72.61680603027344,60.69816970825195 L73.35554504394531,61.366310119628906 L74.65830993652344,62.053524017333984 L76.40402221679688,62.76743698120117 L78.39129638671875,63.519371032714844 L80.38674926757812,64.31851959228516 L82.16165161132812,65.16305541992188 L83.53506469726562,66.02093505859375 L84.40541076660156,66.83935546875 L84.75675964355469,67.5697021484375 L84.61338806152344,68.17729949951172 L84.03245544433594,68.64917755126953 L83.05035400390625,68.9820327758789 L81.71871948242188,69.16596984863281 L80.11447143554688,69.20526885986328 L78.35682678222656,69.1155776977539 L76.58964538574219,68.93006896972656 L74.94960021972656,68.6869125366211 L73.48316955566406,68.40477752685547 L72.23143005371094,68.1014404296875 L71.21495056152344,67.8012466430664 L70.51600646972656,67.56398010253906 L70.13873291015625,67.42160034179688 M102.2523193359375,51.41536331176758 L102.29386901855469,51.464778900146484 L102.34188842773438,51.7143440246582 L102.37248229980469,52.32471466064453 L102.31614685058594,53.39002227783203 L102.14186096191406,54.89497756958008 L101.84353637695312,56.74027633666992 L101.4547119140625,58.79190444946289 L101.07209777832031,60.93128204345703 L100.79794311523438,63.069427490234375 L100.62049865722656,65.09221649169922 L100.51785278320312,66.90496063232422 L100.43182373046875,68.35669708251953 L100.31661987304688,69.32654571533203 L100.18215942382812,69.77777862548828 L100.07888793945312,69.86024475097656 L100.0074462890625,69.7616958618164 M94.80686950683594,61.173892974853516 L95.03189086914062,61.261749267578125 L95.58161926269531,61.40058135986328 L96.55270385742188,61.55618667602539 L97.93244934082031,61.65098571777344 L99.63612365722656,61.63518524169922 L101.53762817382812,61.46571350097656 L103.52156066894531,61.12794494628906 L105.50611877441406,60.58242416381836 L107.38618469238281,59.84761428833008 L109.05976867675781,58.97343826293945 L110.27923583984375,58.207889556884766 L110.97314453125,57.701026916503906 M111.59945678710938,50.801700592041016 L111.59683227539062,51.1462516784668 L111.58547973632812,51.86566162109375 L111.55221557617188,53.00019836425781 L111.48277282714844,54.461570739746094 L111.36625671386719,56.14289855957031 L111.20991516113281,57.94110870361328 L111.0482177734375,59.752685546875 L110.9058837890625,61.45634460449219 L110.79205322265625,62.93889236450195 L110.7130126953125,64.11487579345703 L110.67558288574219,64.92505645751953 L110.68661499023438,65.33609771728516 L110.79603576660156,65.31004333496094 L111.08990478515625,64.82648468017578 L111.63687133789062,63.91246032714844 L112.49002075195312,62.703086853027344 L113.63468933105469,61.38243865966797 L114.98329162597656,60.12921142578125 L116.44966125488281,59.07844161987305 L117.94888305664062,58.31697082519531 L119.41259765625,57.88130569458008 L120.7744140625,57.81378173828125 L121.95733642578125,58.13834762573242 L122.89122009277344,58.8588981628418 L123.52781677246094,59.933834075927734 L123.84132385253906,61.283260345458984 L123.87977600097656,62.775665283203125 L123.74795532226562,64.249755859375 L123.58399963378906,65.54277038574219 L123.48989868164062,66.54864501953125 L123.49946594238281,67.20722198486328 L123.60842895507812,67.51628112792969 L123.82135009765625,67.49342346191406 L124.20819091796875,67.15763092041016 L124.86785888671875,66.51053619384766 L125.82684326171875,65.59297180175781 L127.02745056152344,64.47099304199219 L128.36183166503906,63.244712829589844 L129.67129516601562,62.022361755371094 L130.81118774414062,60.9075813293457 L131.68942260742188,59.95671081542969 L132.23167419433594,59.20222854614258 L132.40101623535156,58.63969039916992 L132.21473693847656,58.28189468383789 L131.68060302734375,58.15743637084961 L130.80819702148438,58.32770919799805 L129.65924072265625,58.83692932128906 L128.36627197265625,59.684322357177734 L127.12303161621094,60.797080993652344 L126.16731262207031,62.10145568847656 L125.68141174316406,63.48933792114258 L125.81387329101562,64.84954833984375 L126.6260986328125,66.052978515625 L128.13748168945312,66.98169708251953 L130.2591094970703,67.55195617675781 L132.887939453125,67.75594329833984 L135.76246643066406,67.64118957519531 L138.62808227539062,67.30231475830078 L140.8685302734375,66.9326171875 L142.23110961914062,66.6610107421875 M163.4459991455078,62.46891403198242 L163.45277404785156,62.293487548828125 L163.41360473632812,61.98723220825195 L163.2625274658203,61.57779312133789 L162.9275665283203,61.150001525878906 L162.35479736328125,60.78109359741211 L161.51107788085938,60.57073974609375 L160.3647003173828,60.59242630004883 L158.92596435546875,60.91697692871094 L157.2386016845703,61.575077056884766 L155.4363250732422,62.550689697265625 L153.70510864257812,63.78001022338867 L152.2431640625,65.16300964355469 L151.2042236328125,66.55738830566406 L150.67454528808594,67.81786346435547 L150.67626953125,68.79960632324219 L151.23170471191406,69.37262725830078 L152.32476806640625,69.43445587158203 L153.90830993652344,68.93450164794922 L155.8590087890625,67.87783813476562 L158.02113342285156,66.32237243652344 L160.21424865722656,64.3490982055664 L162.2938995361328,62.055946350097656 L164.14697265625,59.56695556640625 L165.69552612304688,57.03166198730469 L166.86788940429688,54.64242935180664 L167.66741943359375,52.603450775146484 L168.1392059326172,51.03866195678711 L168.36582946777344,50.01067352294922 L168.42019653320312,49.53645324707031 L168.34674072265625,49.61918640136719 L168.14170837402344,50.305702209472656 L167.80442810058594,51.645774841308594 L167.38131713867188,53.55405807495117 L166.95046997070312,55.86974334716797 L166.59188842773438,58.35692596435547 L166.4109344482422,60.777645111083984 L166.4687957763672,62.94501876831055 L166.76759338378906,64.74082946777344 L167.28330993652344,66.0569839477539 L167.9803924560547,66.84750366210938 L168.84312438964844,67.08554077148438 L169.90480041503906,66.77961730957031 L171.19268798828125,65.976806640625 L172.67153930664062,64.77483367919922 L174.2441864013672,63.30876922607422 L175.74795532226562,61.748291015625 L177.0275421142578,60.254520416259766 L177.957275390625,58.95016098022461 L178.48062133789062,57.91831588745117 L178.5877227783203,57.19811248779297 L178.31617736816406,56.822052001953125 L177.68919372558594,56.831974029541016 L176.75479125976562,57.2695426940918 L175.606201171875,58.151031494140625 L174.40365600585938,59.434234619140625 L173.35324096679688,61.00771713256836 L172.67068481445312,62.72209167480469 L172.5021514892578,64.41024017333984 L172.89083862304688,65.90452575683594 L173.8290252685547,67.06301879882812 L175.2742156982422,67.76521301269531 L177.17742919921875,67.93598175048828 L179.46669006347656,67.5341796875 L182.02310180664062,66.55781555175781 L184.66529846191406,65.03742218017578 L187.2017059326172,63.03263473510742 L189.4788818359375,60.6466064453125 L191.41494750976562,58.0656852722168 L192.96804809570312,55.49906539916992 L194.12747192382812,53.18638610839844 L194.91563415527344,51.32123565673828 L195.37718200683594,49.979896545410156 L195.58233642578125,49.169673919677734 L195.6013641357422,48.89268493652344 L195.46981811523438,49.1534309387207 L195.1896514892578,50.0146369934082 L194.76177978515625,51.494850158691406 L194.23170471191406,53.4907341003418 L193.66152954101562,55.821678161621094 L193.12826538085938,58.25726318359375 L192.70022583007812,60.577842712402344 L192.40185546875,62.631019592285156 L192.2221221923828,64.32202911376953 L192.1175994873047,65.54885864257812 L192.01695251464844,66.26988983154297 L191.86659240722656,66.50450897216797 L191.70530700683594,66.44157409667969 L191.57337951660156,66.27599334716797 M186.97999572753906,61.047637939453125 L187.0731964111328,61.02726364135742 L187.3860626220703,61.0311164855957 L188.0501251220703,61.0815544128418 L189.13858032226562,61.175540924072266 L190.6533660888672,61.272377014160156 L192.55555725097656,61.31517791748047 L194.80303955078125,61.272216796875 L197.30072021484375,61.12488555908203 L199.92648315429688,60.869022369384766 L202.506103515625,60.50653076171875 L204.83428955078125,60.073978424072266 L206.73223876953125,59.63174819946289 L208.09185791015625,59.24105453491211 L208.85202026367188,58.94190979003906 L209.03384399414062,58.760746002197266 L208.68963623046875,58.7281494140625 L207.86083984375,58.92129135131836 L206.62518310546875,59.445919036865234 L205.10198974609375,60.3466796875 L203.46609497070312,61.58338165283203 L201.96896362304688,63.02789306640625 L200.8292236328125,64.49353790283203 L200.19680786132812,65.80883026123047 L200.13323974609375,66.84825897216797 L200.5982208251953,67.50165557861328 L201.52890014648438,67.70926666259766 L202.84158325195312,67.43540954589844 L204.40550231933594,66.68921661376953 L206.078857421875,65.55268859863281 L207.68756103515625,64.16914367675781 L209.0421142578125,62.72393035888672 L210.046142578125,61.42613220214844 L210.68209838867188,60.412715911865234 L210.99923706054688,59.76030349731445 L211.07846069335938,59.50215530395508 L210.99420166015625,59.662330627441406 L210.77923583984375,60.27553176879883 L210.48464965820312,61.34770965576172 L210.20501708984375,62.76630401611328 L210.05587768554688,64.340087890625 L210.13739013671875,65.84088134765625 L210.52426147460938,67.07881164550781 L211.23672485351562,67.92957305908203 L212.25186157226562,68.32181549072266 L213.5404052734375,68.21051025390625 L215.02008056640625,67.61054229736328 L216.578369140625,66.6011734008789 L218.07504272460938,65.32913208007812 L219.36956787109375,63.96735382080078 L220.3604736328125,62.68996047973633 L221.03860473632812,61.63330078125 L221.42901611328125,60.859981536865234 L221.6138916015625,60.409690856933594 L221.65625,60.31725311279297 L221.59332275390625,60.615718841552734 L221.43203735351562,61.36107635498047 L221.20199584960938,62.54259490966797 L220.95147705078125,64.00959014892578 L220.74713134765625,65.55655670166016 L220.6429443359375,66.94554901123047 L220.65972900390625,67.99325561523438 L220.76715087890625,68.6539306640625 L220.89169311523438,68.98204040527344 L220.9869384765625,69.0860366821289 M221.88421630859375,53.25005340576172 L221.91738891601562,53.18586349487305 L221.98013305664062,53.12031555175781 L222.0491943359375,53.073001861572266 L222.1011962890625,53.06351089477539 M230.36300659179688,52.51313018798828 L230.30224609375,52.79048538208008 L230.13824462890625,53.43126678466797 L229.82656860351562,54.5135612487793 L229.35491943359375,56.00535583496094 L228.75851440429688,57.8231201171875 L228.09716796875,59.871952056884766 L227.48199462890625,62.034610748291016 L227.04287719726562,64.15607452392578 L226.89639282226562,66.06272888183594 L227.11953735351562,67.60751342773438 L227.76309204101562,68.68987274169922 L228.81442260742188,69.28321075439453 L230.25540161132812,69.39176177978516 L232.0205078125,69.02835845947266 L234.00732421875,68.24021911621094 L236.04107666015625,67.10618591308594 L237.94305419921875,65.73971557617188 L239.50274658203125,64.28390502929688 L240.59140014648438,62.88187026977539 L241.13067626953125,61.638004302978516 L241.16741943359375,60.64570236206055 L240.76873779296875,59.97951126098633 L240.03302001953125,59.71876525878906 L239.01312255859375,59.92603302001953 L237.82183837890625,60.63685607910156 L236.57131958007812,61.78816223144531 L235.48251342773438,63.25413513183594 L234.7559814453125,64.86611938476562 L234.54595947265625,66.44146728515625 L234.91366577148438,67.80982971191406 L235.85305786132812,68.86100769042969 L237.376708984375,69.47671508789062 L239.42071533203125,69.63194274902344 L241.811767578125,69.38288116455078 L243.89263916015625,68.98253631591797 L245.27047729492188,68.63633728027344 M252.46493530273438,62.943359375 L252.17724609375,62.70676803588867 L251.6806640625,62.39030075073242 L250.9774169921875,62.12688064575195 L250.12698364257812,62.114559173583984 L249.11221313476562,62.46187973022461 L247.95880126953125,63.20589828491211 L246.76092529296875,64.31195068359375 L245.68035888671875,65.66484832763672 L244.89114379882812,67.10322570800781 L244.52313232421875,68.45287322998047 L244.60662841796875,69.56046295166016 L245.11843872070312,70.30641174316406 L246.00131225585938,70.61807250976562 L247.19525146484375,70.43482208251953 L248.65130615234375,69.74076843261719 L250.29071044921875,68.54823303222656 L251.97918701171875,66.91422271728516 L253.59463500976562,64.9415283203125 L255.0306396484375,62.77376174926758 L256.2344055175781,60.567745208740234 L257.1993103027344,58.508544921875 L257.938232421875,56.761470794677734 L258.4532775878906,55.42472839355469 L258.76873779296875,54.54158020019531 L258.8922424316406,54.13333511352539 L258.82208251953125,54.21803283691406 L258.55413818359375,54.86743927001953 L258.0794372558594,56.140708923339844 L257.45208740234375,57.973819732666016 L256.7801513671875,60.205326080322266 L256.1860656738281,62.62150573730469 L255.78140258789062,65.01068878173828 L255.65264892578125,67.22736358642578 L255.79904174804688,69.17684173583984 L256.21539306640625,70.7799072265625 L256.9485168457031,71.94184112548828 L257.99090576171875,72.60899353027344 L259.2835388183594,72.79004669189453 L260.46075439453125,72.68107604980469 L261.2644958496094,72.48553466796875 M274.86639404296875,63.39637756347656 L274.9390563964844,63.38264846801758 L275.02880859375,63.484493255615234 L275.08587646484375,63.83505630493164 L275.0293884277344,64.5527114868164 L274.80621337890625,65.63544464111328 L274.42950439453125,67.00081634521484 L273.94000244140625,68.48410034179688 L273.4844055175781,69.86575317382812 L273.2026672363281,70.94867706298828 L273.1686706542969,71.61204528808594 L273.28790283203125,71.89122772216797 L273.4476318359375,71.92886352539062 M277.39794921875,57.34541702270508 L277.4103698730469,57.26808547973633 L277.4730224609375,57.17853546142578 L277.55877685546875,57.104576110839844 L277.64044189453125,57.07402801513672 M281.3269958496094,61.34795379638672 L281.34716796875,61.923919677734375 L281.3662414550781,62.942840576171875 L281.3628845214844,64.32601165771484 L281.31475830078125,65.83348083496094 L281.2177734375,67.31319427490234 L281.0816650390625,68.63345336914062 L280.946533203125,69.71479034423828 L280.84393310546875,70.50343322753906 L280.7979431152344,70.96419525146484 L280.8411560058594,71.07571411132812 L281.0118408203125,70.81437683105469 L281.3597412109375,70.15498352050781 L281.93707275390625,69.1197738647461 L282.7540283203125,67.83257293701172 L283.7713317871094,66.45609283447266 L284.9347229003906,65.15511322021484 L286.1795349121094,64.07125091552734 L287.4617919921875,63.286842346191406 L288.7393798828125,62.85561752319336 L289.98095703125,62.81281661987305 L291.12060546875,63.16975021362305 L292.08807373046875,63.91031265258789 L292.7896728515625,64.99659729003906 L293.1939392089844,66.36719512939453 L293.32061767578125,67.88421630859375 L293.2648620605469,69.35499572753906 L293.1502685546875,70.4730453491211 L293.0661315917969,71.12095642089844 M303.939208984375,57.376197814941406 L303.99566650390625,56.6522102355957 L303.9976501464844,55.583213806152344 L303.8587341308594,54.37837219238281 L303.5050964355469,53.37232971191406 L302.9595031738281,52.64581298828125 L302.2895202636719,52.2566032409668 L301.5935363769531,52.238529205322266 L300.9248352050781,52.69076919555664 L300.3084411621094,53.64902877807617 L299.75238037109375,55.10254669189453 L299.2587585449219,56.98935317993164 L298.83685302734375,59.24036407470703 L298.52484130859375,61.771915435791016 L298.326171875,64.50092315673828 L298.2361145019531,67.31732177734375 L298.2201232910156,70.12049102783203 L298.2068786621094,72.73029327392578 L298.14263916015625,74.9864273071289 L298.0554504394531,76.58324432373047 L297.9698181152344,77.46142578125 M294.6737060546875,65.21746063232422 L295.10162353515625,65.06505584716797 L295.9969482421875,64.83421325683594 L297.0234069824219,64.60568237304688 L297.8445739746094,64.460205078125 M311.5749816894531,63.84673309326172 L311.2968444824219,63.72917175292969 L310.75555419921875,63.605037689208984 L309.9249572753906,63.57691955566406 L308.85711669921875,63.78348922729492 L307.609375,64.28687286376953 L306.34375,65.08853912353516 L305.2403564453125,66.0966796875 L304.4955139160156,67.17961883544922 L304.2368469238281,68.18463134765625 L304.4889831542969,68.97518920898438 L305.2047119140625,69.4445571899414 L306.3289794921875,69.52120208740234 L307.7455749511719,69.16173553466797 L309.3045959472656,68.37446594238281 L310.8222351074219,67.25054931640625 L312.1090393066406,65.9244384765625 L313.02447509765625,64.55265045166016 L313.53973388671875,63.262428283691406 L313.7041931152344,62.145469665527344 L313.6235656738281,61.248435974121094 L313.4159851074219,60.617401123046875 L313.167724609375,60.271480560302734 L312.923828125,60.225120544433594 L312.72491455078125,60.464149475097656 L312.6434326171875,60.96342468261719 L312.76849365234375,61.640380859375 L313.195068359375,62.381717681884766 L313.9869079589844,63.05239486694336 L315.1358642578125,63.53358840942383 L316.5505676269531,63.739898681640625 L318.1143798828125,63.671268463134766 L319.6562805175781,63.38191604614258 L321.00860595703125,62.98219680786133 L322.06024169921875,62.5894775390625 L322.7594909667969,62.288734436035156 L323.1138916015625,62.136016845703125 L323.18536376953125,62.18962860107422 L323.0211486816406,62.506195068359375 L322.62689208984375,63.142330169677734 L322.0395202636719,64.09133911132812 L321.3172302246094,65.26683044433594 L320.5670471191406,66.51529693603516 L319.9012145996094,67.65756225585938 L319.42315673828125,68.54750061035156 L319.1326599121094,69.14149475097656 L318.99951171875,69.45182800292969 L318.967529296875,69.51371765136719 L319.0115966796875,69.31083679199219 L319.12969970703125,68.7672348022461 L319.4013671875,67.8317642211914 L319.8315124511719,66.57829284667969 L320.3988037109375,65.148681640625 L321.08416748046875,63.718299865722656 L321.90008544921875,62.40496063232422 L322.8750305175781,61.264347076416016 L324.1060791015625,60.3385009765625 L325.5740966796875,59.70124435424805 L327.2013854980469,59.41358947753906 L328.87188720703125,59.483028411865234 L330.5068359375,59.870086669921875 L332.0126953125,60.482112884521484 L333.3543395996094,61.19504165649414 L334.3394775390625,61.79624938964844 L334.9136047363281,62.1833610534668 M338.7266540527344,60.64657211303711 L338.7586364746094,60.66203308105469 L338.77764892578125,60.84043502807617 L338.7254943847656,61.3157958984375 L338.5211181640625,62.16031265258789 L338.13800048828125,63.31288146972656 L337.61041259765625,64.63947296142578 L337.05560302734375,65.96574401855469 L336.5881042480469,67.13136291503906 L336.2789001464844,68.04684448242188 L336.1351013183594,68.64561462402344 L336.1611022949219,68.87701416015625 L336.3762512207031,68.69857788085938 L336.84466552734375,68.07106018066406 L337.62030029296875,66.99861145019531 L338.7151794433594,65.60620880126953 L340.08642578125,64.06529235839844 L341.648681640625,62.57353973388672 L343.2724609375,61.29987716674805 L344.8267822265625,60.35803985595703 L346.22833251953125,59.81342697143555 L347.4206237792969,59.728904724121094 L348.38299560546875,60.11045837402344 L349.0833740234375,60.92157745361328 L349.5127258300781,62.06584167480469 L349.6746520996094,63.3840217590332 L349.64605712890625,64.67639923095703 L349.5148010253906,65.7895736694336 L349.3779296875,66.61190795898438 L349.2889709472656,67.07865142822266 L349.3645935058594,67.15919494628906 L349.6971130371094,66.8075180053711 L350.39398193359375,65.992431640625 L351.5052185058594,64.79408264160156 L352.9726867675781,63.367061614990234 L354.6297607421875,61.91696548461914 L356.29046630859375,60.65515899658203 L357.7774353027344,59.72227478027344 L359.0054931640625,59.198638916015625 L359.984375,59.12883377075195 L360.7534484863281,59.50318908691406 L361.336181640625,60.279964447021484 L361.7257080078125,61.36958694458008 L361.9393615722656,62.637142181396484 L362.0650329589844,63.94336700439453 L362.2180480957031,65.13404846191406 L362.4972839355469,66.09569549560547 L362.8164367675781,66.73011779785156 L363.07281494140625,67.05187225341797 M373.08538818359375,60.64356994628906 L373.01763916015625,60.47443771362305 L372.8208312988281,60.24295425415039 L372.426513671875,60.05497741699219 L371.7811584472656,60.08527755737305 L370.8502197265625,60.4537353515625 L369.6825256347656,61.22072982788086 L368.3847961425781,62.330322265625 L367.1434020996094,63.64662551879883 L366.15875244140625,64.98516082763672 L365.5804443359375,66.17408752441406 L365.4630126953125,67.09505462646484 L365.7983703613281,67.6774673461914 L366.54229736328125,67.87488555908203 L367.66094970703125,67.6384048461914 L369.0681457519531,66.96855163574219 L370.6600646972656,65.92788696289062 L372.2771911621094,64.66053771972656 L373.7447509765625,63.36451721191406 L374.9073181152344,62.231441497802734 L375.7039794921875,61.36604309082031 L376.1326599121094,60.82460021972656 L376.2779846191406,60.621891021728516 L376.2229309082031,60.77007293701172 L376.0252990722656,61.28937911987305 L375.7098083496094,62.180538177490234 L375.3429870605469,63.35871124267578 L375.0335998535156,64.69161224365234 L374.9206237792969,66.00994873046875 L375.1351013183594,67.1576919555664 L375.76019287109375,68.00724029541016 L376.81048583984375,68.47423553466797 L378.2450256347656,68.48764038085938 L379.97381591796875,68.01643371582031 L381.87127685546875,67.05924224853516 L383.81768798828125,65.66030883789062 L385.7076110839844,63.89875030517578 L387.454345703125,61.88204574584961 L388.9931945800781,59.728153228759766 L390.2678527832031,57.56824493408203 L391.2524719238281,55.52849578857422 L391.9482421875,53.741512298583984 L392.388427734375,52.301841735839844 L392.6285400390625,51.26137161254883 L392.6997985839844,50.62382888793945 L392.5985107421875,50.38530731201172 L392.327880859375,50.549339294433594 L391.88446044921875,51.15264892578125 L391.3124084472656,52.20294189453125 L390.7002868652344,53.68473815917969 L390.10455322265625,55.52356719970703 L389.5533752441406,57.61989974975586 L389.07843017578125,59.849796295166016 L388.6877746582031,62.082035064697266 L388.40875244140625,64.18514251708984 L388.25811767578125,66.04486083984375 L388.2145080566406,67.55886840820312 L388.23101806640625,68.67280578613281 L388.2753601074219,69.39014434814453 L388.3207092285156,69.76371765136719 L388.3570861816406,69.84764099121094 L388.36297607421875,69.69586181640625 L388.32550048828125,69.34858703613281 L388.2649841308594,68.96749877929688 L388.2083740234375,68.67407989501953 M381.81878662109375,61.08180618286133 L381.9085388183594,61.084964752197266 L382.2295227050781,61.11485290527344 L382.92449951171875,61.18375778198242 L384.0694580078125,61.28042984008789 L385.6317138671875,61.36026382446289 L387.5262451171875,61.357173919677734 L389.6496887207031,61.22005081176758 L391.89044189453125,60.941322326660156 L394.1470947265625,60.5411262512207 L396.3121032714844,60.072078704833984 L398.2893371582031,59.59474563598633 L400.0098876953125,59.16350555419922 L401.4228210449219,58.82738494873047 L402.4857482910156,58.61050033569336 L403.1799011230469,58.52660369873047 L403.5083312988281,58.61051559448242 L403.5433044433594,58.909236907958984 L403.3711853027344,59.46642303466797 L403.05328369140625,60.29954147338867 L402.6290588378906,61.36790466308594 L402.1373596191406,62.61669158935547 L401.5884704589844,63.961219787597656 L401.0446472167969,65.30140686035156 L400.57098388671875,66.51951599121094 L400.1995544433594,67.51457977294922 L399.9615478515625,68.17051696777344 L399.8519592285156,68.50700378417969 M402.4981689453125,53.583106994628906 L402.5058898925781,53.46522903442383 L402.52508544921875,53.3277587890625 L402.5546875,53.21818542480469 L402.5833435058594,53.19471740722656 L402.6002502441406,53.23228073120117 L402.5971374511719,53.311946868896484 L402.5811462402344,53.38796615600586 L402.56524658203125,53.44276428222656 M414.9125671386719,59.834617614746094 L414.8669128417969,59.69828414916992 L414.7265625,59.48350143432617 L414.4068298339844,59.25849533081055 L413.8040771484375,59.159690856933594 L412.8369140625,59.32268524169922 L411.52630615234375,59.837833404541016 L410.0027770996094,60.704402923583984 L408.5018005371094,61.863372802734375 L407.2809753417969,63.20222091674805 L406.5199890136719,64.58161163330078 L406.3124084472656,65.88289642333984 L406.6703186035156,66.98399353027344 L407.5477600097656,67.7693862915039 L408.8720397949219,68.1691665649414 L410.53173828125,68.1514663696289 L412.3613586425781,67.70369720458984 L414.1830749511719,66.86431884765625 L415.82647705078125,65.70472717285156 L417.1507263183594,64.31002044677734 L418.0654602050781,62.80732345581055 L418.52215576171875,61.31633758544922 L418.5351257324219,59.93006134033203 L418.18267822265625,58.73571014404297 L417.5901794433594,57.791202545166016 L416.90533447265625,57.11643600463867 L416.2636413574219,56.731632232666016 L415.7408447265625,56.62161636352539 L415.4110107421875,56.75010681152344 L415.3350524902344,57.076412200927734 L415.5786437988281,57.517337799072266 L416.2050476074219,57.977630615234375 L417.2435302734375,58.3741340637207 L418.64031982421875,58.64169692993164 L420.30621337890625,58.7557258605957 L422.1072082519531,58.74303436279297 L423.9010314941406,58.632144927978516 L425.54425048828125,58.47257614135742 L426.92388916015625,58.323429107666016 L427.96978759765625,58.24507141113281 L428.6947021484375,58.31508255004883 L429.1373291015625,58.60280227661133 L429.3433837890625,59.16141128540039 L429.3257141113281,60.021331787109375 L429.091796875,61.17618942260742 L428.6622009277344,62.54927062988281 L428.1275634765625,64.01325225830078 L427.5675964355469,65.37498474121094 L427.0771179199219,66.48165130615234 L426.69891357421875,67.25907135009766 L426.46868896484375,67.69758605957031 L426.4021911621094,67.78257751464844 L426.5487365722656,67.50431060791016 L426.9386291503906,66.83114624023438 L427.6218566894531,65.79537963867188 L428.5743713378906,64.52213287353516 L429.76617431640625,63.17610549926758 L431.134765625,61.88370132446289 L432.6124267578125,60.77119064331055 L434.1225280761719,59.9169921875 L435.5865173339844,59.37897872924805 L436.89910888671875,59.21192169189453 L437.99383544921875,59.45256805419922 L438.823486328125,60.081947326660156 L439.35888671875,61.06489562988281 L439.604736328125,62.325286865234375 L439.58697509765625,63.7560920715332 L439.3765869140625,65.24385070800781 L439.12091064453125,66.68611145019531 L438.9544677734375,67.96267700195312 L438.95513916015625,68.98411560058594 L439.0672302246094,69.65570068359375 L439.1968994140625,69.9935302734375 M451.6347351074219,61.09404373168945 L451.6454772949219,61.045902252197266 L451.6911926269531,61.018150329589844 L451.79168701171875,61.07525634765625 L451.9562072753906,61.29401397705078 L452.1668395996094,61.71958541870117 L452.42449951171875,62.361568450927734 L452.7277526855469,63.200660705566406 L453.0758972167969,64.18939208984375 L453.4689025878906,65.26378631591797 L453.8848876953125,66.34883117675781 L454.2964782714844,67.39958953857422 L454.6940612792969,68.37699890136719 L455.0633544921875,69.25128936767578 L455.3748779296875,69.97681427001953 L455.607666015625,70.54066467285156 L455.76727294921875,70.8670425415039 L455.9006042480469,70.92528533935547 L456.0686950683594,70.70795440673828 L456.24530029296875,70.38313293457031 L456.3889465332031,70.09012603759766 M462.167724609375,63.9061279296875 L462.12103271484375,64.06829833984375 L461.9378662109375,64.42951965332031 L461.5356750488281,65.05465698242188 L460.8651123046875,65.94890594482422 L459.931396484375,67.11097717285156 L458.7355041503906,68.48969268798828 L457.3330078125,70.04269409179688 L455.7953796386719,71.71694946289062 L454.2183837890625,73.48197937011719 L452.6956481933594,75.30007934570312 L451.33685302734375,77.10418701171875 L450.2225646972656,78.74908447265625 L449.4317626953125,80.07147979736328 L448.99468994140625,80.95155334472656 L448.83740234375,81.39791107177734 L448.8291015625,81.53971862792969 M469.35137939453125,62.66676712036133 L469.3929443359375,62.426841735839844 L469.3204345703125,62.15111541748047 L469.0067138671875,61.9868049621582 L468.36572265625,62.12236785888672 L467.43072509765625,62.617733001708984 L466.32891845703125,63.474300384521484 L465.222412109375,64.60814666748047 L464.2637939453125,65.92919921875 L463.58837890625,67.29995727539062 L463.2977294921875,68.59635162353516 L463.41650390625,69.71331787109375 L463.9432373046875,70.56937408447266 L464.827392578125,71.0738754272461 L466.0,71.17788696289062 L467.39044189453125,70.84378814697266 L468.89581298828125,70.09768676757812 L470.36712646484375,69.00603485107422 L471.6622314453125,67.67670440673828 L472.64715576171875,66.22993469238281 L473.242919921875,64.80147552490234 L473.4586181640625,63.48618698120117 L473.3612060546875,62.36809539794922 L473.0787353515625,61.490150451660156 L472.739990234375,60.878578186035156 L472.43878173828125,60.54959487915039 L472.2305908203125,60.51097106933594 L472.141845703125,60.72443389892578 L472.1845703125,61.14527130126953 L472.40765380859375,61.69038391113281 L472.8502197265625,62.26047897338867 L473.541259765625,62.74678039550781 L474.48663330078125,63.056549072265625 L475.638916015625,63.11702346801758 L476.90087890625,62.91695022583008 L478.18475341796875,62.48341369628906 L479.37744140625,61.897727966308594 L480.37420654296875,61.2753791809082 L481.11895751953125,60.731903076171875 L481.59332275390625,60.338592529296875 L481.80731201171875,60.122283935546875 L481.830078125,60.07388687133789 L481.6981201171875,60.21892166137695 L481.3929443359375,60.615509033203125 L480.92169189453125,61.32414627075195 L480.32745361328125,62.32875061035156 L479.68817138671875,63.5477409362793 L479.1429443359375,64.8453369140625 L478.81317138671875,66.09664916992188 L478.74310302734375,67.17949676513672 L478.982666015625,68.02079772949219 L479.5557861328125,68.55464172363281 L480.458251953125,68.74469757080078 L481.66845703125,68.5835189819336 L483.1192626953125,68.09016418457031 L484.691162109375,67.2926254272461 L486.28802490234375,66.25666046142578 L487.810546875,65.05929565429688 L489.181884765625,63.80559158325195 L490.33984375,62.63218307495117 L491.22296142578125,61.652427673339844 L491.80706787109375,60.93986129760742 L492.10784912109375,60.51420593261719 L492.17254638671875,60.38471984863281 L492.06915283203125,60.5910530090332 L491.8385009765625,61.1997184753418 L491.5059814453125,62.24077224731445 L491.1229248046875,63.646217346191406 L490.7506103515625,65.2586441040039 L490.494140625,66.90126037597656 L490.45697021484375,68.41241455078125 L490.6986083984375,69.6827621459961 L491.3232421875,70.60707092285156 L492.3359375,71.1112289428711 L493.65838623046875,71.18627166748047 L494.88006591796875,71.01921081542969 L495.72186279296875,70.79720306396484 M508.24847412109375,62.027435302734375 L508.22186279296875,62.1663932800293 L508.16778564453125,62.52772903442383 L508.0665283203125,63.20103073120117 L507.91876220703125,64.17809295654297 L507.70648193359375,65.36693572998047 L507.45086669921875,66.61946868896484 L507.19757080078125,67.80077362060547 L506.9736328125,68.77886962890625 L506.80517578125,69.5169677734375 L506.73333740234375,69.96721649169922 L506.75579833984375,70.06877899169922 L506.90399169921875,69.76927185058594 L507.20245361328125,69.04199981689453 L507.62982177734375,67.9112777709961 L508.176025390625,66.52464294433594 L508.826416015625,65.01908874511719 L509.55517578125,63.511138916015625 L510.36798095703125,62.105926513671875 L511.25933837890625,60.8865852355957 L512.2098388671875,59.91993713378906 L513.2115478515625,59.266258239746094 L514.242919921875,58.92351531982422 L515.2822875976562,58.85673522949219 L516.3383178710938,59.03582763671875 L517.3906860351562,59.41043472290039 L518.3975219726562,59.9002685546875 L519.1825561523438,60.33983612060547 L519.662841796875,60.628623962402344 M521.2845458984375,64.46857452392578 L521.4935913085938,64.56983947753906 L521.9906005859375,64.66522979736328 L522.8499755859375,64.66211700439453 L524.039794921875,64.46392059326172 L525.4681396484375,64.05409240722656 L526.9921875,63.48317337036133 L528.4650268554688,62.7963981628418 L529.7756958007812,62.05970764160156 L530.8302612304688,61.32038497924805 L531.5416259765625,60.6197624206543 L531.8467407226562,59.98640823364258 L531.7123413085938,59.4727668762207 L531.1422119140625,59.108402252197266 L530.1817626953125,58.97945785522461 L528.8976440429688,59.15634536743164 L527.3710327148438,59.68085861206055 L525.7122802734375,60.535301208496094 L524.0643310546875,61.66331481933594 L522.5999755859375,62.97978591918945 L521.4758911132812,64.40982055664062 L520.8154907226562,65.86725616455078 L520.7179565429688,67.2706527709961 L521.1942138671875,68.52626037597656 L522.3016357421875,69.510009765625 L523.9893798828125,70.1445541381836 L526.0828247070312,70.39338684082031 L527.94921875,70.38198852539062 L529.2117309570312,70.26934051513672 M543.8142700195312,62.3045539855957 L543.8313598632812,62.06869888305664 L543.7672119140625,61.715755462646484 L543.5347900390625,61.34959411621094 L543.0310668945312,61.130271911621094 L542.224609375,61.15636444091797 L541.1406860351562,61.49113464355469 L539.8641967773438,62.132137298583984 L538.546142578125,63.054080963134766 L537.357177734375,64.18290710449219 L536.4251098632812,65.41166687011719 L535.8379516601562,66.62486267089844 L535.6409301757812,67.71051025390625 L535.8466186523438,68.5623779296875 L536.4656372070312,69.09423828125 L537.4696044921875,69.22334289550781 L538.806640625,68.92316436767578 L540.3662719726562,68.2138671875 L542.004638671875,67.17002868652344 L543.5574951171875,65.9137954711914 L544.875732421875,64.59638977050781 L545.8504638671875,63.37294006347656 L546.4688110351562,62.38681411743164 L546.785400390625,61.71562194824219 L546.8853149414062,61.37397384643555 L546.8358764648438,61.36796951293945 L546.659912109375,61.722896575927734 L546.3468017578125,62.49774169921875 L545.8871459960938,63.747314453125 L545.3156127929688,65.45013427734375 L544.6905517578125,67.53124237060547 L544.0524291992188,69.8685531616211 L543.4358520507812,72.32979583740234 L542.8471069335938,74.7806167602539 L542.3031005859375,77.10111236572266 L541.8189697265625,79.16968536376953 L541.4580078125,80.84194946289062 L541.25927734375,81.9771728515625 L541.2528076171875,82.52165222167969 L541.351806640625,82.62976837158203 L541.4776611328125,82.5240478515625 M550.4696044921875,60.02455139160156 L550.4697875976562,60.04248809814453 L550.4381103515625,60.25708770751953 L550.3554077148438,60.83269119262695 L550.2063598632812,61.84669494628906 L550.0104370117188,63.2259407043457 L549.8252563476562,64.8082046508789 L549.7188110351562,66.38572692871094 L549.7694091796875,67.80465698242188 L550.0601196289062,68.9609146118164 L550.6307373046875,69.75408172607422 L551.5088500976562,70.123779296875 L552.6622924804688,70.0280532836914 L554.0279541015625,69.45122528076172 L555.505859375,68.46446228027344 L556.97412109375,67.1666488647461 L558.3125,65.67428588867188 L559.4498901367188,64.1529541015625 L560.3258666992188,62.756099700927734 L560.9385986328125,61.60604476928711 L561.3095092773438,60.80241775512695 L561.4600219726562,60.38542938232422 L561.4307250976562,60.3634033203125 L561.2528076171875,60.753196716308594 L560.9412841796875,61.54591751098633 L560.5681762695312,62.670135498046875 L560.2512817382812,64.00178527832031 L560.1364135742188,65.37783813476562 L560.3624267578125,66.6398696899414 L560.9984130859375,67.66248321533203 L562.0300903320312,68.36182403564453 L563.4099731445312,68.67305755615234 L565.0484008789062,68.5676040649414 L566.837158203125,68.04682159423828 L568.64111328125,67.1663818359375 L570.3008422851562,66.00836181640625 L571.6630859375,64.69034576416016 L572.6422119140625,63.33585739135742 L573.1890258789062,62.062442779541016 L573.3102416992188,60.95600128173828 L573.0476684570312,60.11142349243164 L572.4234008789062,59.5921516418457 L571.4656982421875,59.465335845947266 L570.26416015625,59.777740478515625 L568.9236450195312,60.53864669799805 L567.6076049804688,61.68468475341797 L566.518798828125,63.12653350830078 L565.8101196289062,64.71233367919922 L565.5858764648438,66.2940444946289 L565.9200439453125,67.73039245605469 L566.82763671875,68.90443420410156 L568.2984008789062,69.705078125 L570.261962890625,70.06587982177734 L572.5875244140625,69.92837524414062 L575.0956420898438,69.31314086914062 L577.5924682617188,68.28666687011719 L579.907470703125,66.97057342529297 L581.9251098632812,65.4981460571289 L583.5537109375,63.999412536621094 L584.794677734375,62.57417678833008 L585.6782836914062,61.33436965942383 L586.2517700195312,60.351409912109375 L586.5878295898438,59.694000244140625 L586.7704467773438,59.40534591674805 L586.860595703125,59.515071868896484 L586.9354248046875,60.04314041137695 L587.0277709960938,60.99445343017578 L587.1543579101562,62.3008918762207 L587.341552734375,63.8575325012207 L587.5904541015625,65.50945281982422 L587.8717651367188,67.11213684082031 L588.1254272460938,68.54541015625 L588.2542114257812,69.72948455810547 L588.1490478515625,70.59642028808594 L587.7594604492188,71.12804412841797 L587.0680541992188,71.31622314453125 L586.1287231445312,71.1896743774414 L585.0791015625,70.82669067382812 L584.08251953125,70.34113311767578 L583.3399658203125,69.90802001953125 L582.92724609375,69.63410186767578 M601.1146850585938,55.0241813659668 L601.1644897460938,55.060646057128906 L601.1923217773438,55.3127326965332 L601.1241455078125,55.94044494628906 L600.8675537109375,57.035701751708984 L600.3677978515625,58.55481719970703 L599.6435546875,60.41155242919922 L598.7655029296875,62.4642219543457 L597.8341674804688,64.59983825683594 L596.9669189453125,66.66718292236328 L596.2494506835938,68.49446105957031 L595.763427734375,69.8009033203125 L595.5101318359375,70.52835083007812 M594.8897705078125,65.7126693725586 L595.0269775390625,65.68385314941406 L595.4171752929688,65.69051361083984 L596.1758422851562,65.76750946044922 L597.3394775390625,65.90592193603516 L598.87255859375,66.04178619384766 L600.6739501953125,66.06161499023438 L602.6735229492188,65.88162231445312 L604.7920532226562,65.46796417236328 L606.9400634765625,64.83549499511719 L608.9752197265625,64.0184326171875 L610.7401733398438,63.107330322265625 L612.0496826171875,62.16831970214844 L612.8275756835938,61.29032897949219 L613.0712280273438,60.568016052246094 L612.8175048828125,60.09263229370117 L612.11865234375,59.942447662353516 L611.0479125976562,60.20006561279297 L609.6949462890625,60.88077926635742 L608.2450561523438,61.94157028198242 L606.925048828125,63.28163528442383 L605.9387817382812,64.76193237304688 L605.4442749023438,66.24210357666016 L605.5156860351562,67.60281372070312 L606.2257080078125,68.72085571289062 L607.5281372070312,69.5135269165039 L609.2550048828125,69.95392608642578 L610.833984375,70.1174545288086 L611.903076171875,70.12631225585938 M623.0987548828125,64.42568969726562 L622.975830078125,64.18543243408203 L622.72802734375,63.85040283203125 L622.296630859375,63.552955627441406 L621.6227416992188,63.484920501708984 L620.6640014648438,63.732540130615234 L619.4702758789062,64.34603881835938 L618.1861572265625,65.27750396728516 L617.0286865234375,66.41552734375 L616.1976928710938,67.62176513671875 L615.810791015625,68.72712707519531 L615.9171752929688,69.5762710571289 L616.516357421875,70.0640869140625 L617.5693359375,70.10073852539062 L619.004638671875,69.65998077392578 L620.712646484375,68.7651138305664 L622.5507202148438,67.46353149414062 L624.3616943359375,65.84129333496094 L626.04345703125,64.00332641601562 L627.53369140625,62.04519271850586 L628.7944946289062,60.099430084228516 L629.8106079101562,58.30348205566406 L630.5745849609375,56.784812927246094 L631.09033203125,55.63326644897461 L631.3973999023438,54.87166976928711 L631.54736328125,54.48341751098633 L631.5517578125,54.456138610839844 L631.4185180664062,54.8170051574707 L631.1261596679688,55.62147521972656 L630.6720581054688,56.880043029785156 L630.0674438476562,58.5218620300293 L629.3629150390625,60.42894744873047 L628.6083984375,62.458736419677734 L627.8843383789062,64.49009704589844 L627.2755737304688,66.43816375732422 L626.8563232421875,68.23004150390625 L626.7291259765625,69.78312683105469 L626.9542846679688,71.01797485351562 L627.5137329101562,71.87710571289062 L628.1404418945312,72.35782623291016 L628.6285400390625,72.5478515625 M649.8397827148438,65.8071060180664 M649.1082763671875,64.26697540283203 L648.7208862304688,63.991859436035156 L648.0621337890625,63.63436508178711 L647.1473388671875,63.33256912231445 L646.0553588867188,63.26664733886719 L644.7890625,63.51422882080078 L643.38037109375,64.10248565673828 L641.9401245117188,65.00387573242188 L640.628662109375,66.17400360107422 L639.5962524414062,67.51266479492188 L638.927490234375,68.8606185913086 L638.6790771484375,70.0789794921875 L638.8425903320312,71.01335906982422 L639.4271850585938,71.55290222167969 L640.408935546875,71.64494323730469 L641.7540893554688,71.2839126586914 L643.3674926757812,70.5043716430664 L645.1517333984375,69.39799499511719 L646.9412841796875,68.07296752929688 L648.5875244140625,66.67211151123047 L649.9434204101562,65.36763000488281 L650.92822265625,64.29423522949219 L651.52783203125,63.52479934692383 L651.801513671875,63.07231140136719 L651.8086547851562,62.945343017578125 L651.603515625,63.16184997558594 L651.204833984375,63.78163146972656 L650.64306640625,64.80961608886719 L649.983154296875,66.16317749023438 L649.331298828125,67.67616271972656 L648.82568359375,69.1755599975586 L648.6021118164062,70.49746704101562 L648.779296875,71.5247573852539 L649.4356689453125,72.15414428710938 L650.5888061523438,72.31159973144531 L652.2073364257812,71.93316650390625 L654.21337890625,71.01741027832031 L656.474853515625,69.61619567871094 L658.8583984375,67.82183837890625 L661.2366943359375,65.76082611083984 L663.5084838867188,63.570838928222656 L665.6024169921875,61.35856246948242 L667.4436645507812,59.24761199951172 L668.955078125,57.36785888671875 L670.077392578125,55.8375358581543 L670.7674560546875,54.750335693359375 L671.0098266601562,54.152915954589844 L670.824951171875,54.063316345214844 L670.2185668945312,54.511695861816406 L669.248046875,55.53086853027344 L668.0304565429688,57.104705810546875 L666.7374877929688,59.1395378112793 L665.5282592773438,61.44704055786133 L664.546875,63.812564849853516 L663.8598022460938,66.02491760253906 L663.4927368164062,67.92835998535156 L663.4656372070312,69.39866638183594 L663.8123779296875,70.3590316772461 L664.5325927734375,70.74827575683594 L665.6126708984375,70.56189727783203 L666.9840698242188,69.83336639404297 L668.5230712890625,68.66937255859375 L670.0802001953125,67.21212768554688 L671.4925537109375,65.64507293701172 L672.6278686523438,64.13761901855469 L673.4132690429688,62.84038162231445 L673.8526000976562,61.837425231933594 L674.0078735351562,61.166534423828125 L673.9652099609375,60.81250762939453 L673.775634765625,60.7620964050293 L673.4566650390625,61.00493621826172 L673.0064086914062,61.54412078857422 L672.4860229492188,62.34537124633789 L671.9851684570312,63.33152389526367 L671.6316528320312,64.3692855834961 L671.5274047851562,65.3321304321289 L671.7302856445312,66.1143569946289 L672.239990234375,66.64865112304688 L673.0618286132812,66.89817810058594 L674.1394653320312,66.84912109375 L675.4299926757812,66.50676727294922 L676.86376953125,65.91287994384766 L678.3794555664062,65.13917541503906 L679.8935546875,64.26847076416016 L681.318603515625,63.40182876586914 L682.51904296875,62.64280319213867 L683.4255981445312,62.0611457824707 L683.9820556640625,61.68125534057617 L684.2019653320312,61.52396774291992 L684.1248168945312,61.59169006347656 L683.7755126953125,61.91565704345703 L683.16796875,62.55545425415039 L682.3759765625,63.50343704223633 L681.4856567382812,64.69190979003906 L680.631103515625,66.01549530029297 L679.940673828125,67.33028411865234 L679.52392578125,68.50586700439453 L679.447021484375,69.4585189819336 L679.744140625,70.10302734375 L680.38916015625,70.39834594726562 L681.3348388671875,70.31671142578125 L682.4939575195312,69.86443328857422 L683.7977905273438,69.0543441772461 L685.1463623046875,67.9293441772461 L686.4375,66.57441711425781 L687.5408325195312,65.12276458740234 L688.3666381835938,63.7076416015625 L688.86767578125,62.47060775756836 L689.0885620117188,61.49766540527344 L689.10302734375,60.79872131347656 L689.0208129882812,60.37420654296875 L688.9044189453125,60.208885192871094 L688.7916259765625,60.283790588378906 L688.6937866210938,60.60176086425781 L688.6481323242188,61.14739990234375 L688.6892700195312,61.83006286621094 L688.8972778320312,62.54502487182617 L689.3233642578125,63.16560363769531 L689.9928588867188,63.57354736328125 L690.896484375,63.70622253417969 L692.0110473632812,63.54462432861328 L693.2732543945312,63.1011962890625 L694.6182861328125,62.4371223449707 L695.9446411132812,61.64524841308594 L697.13427734375,60.82573699951172 L698.0897216796875,60.0926513671875 L698.7620239257812,59.51352310180664 L699.1267700195312,59.118247985839844 L699.1957397460938,58.92985153198242 L698.9945678710938,58.97501754760742 L698.52685546875,59.29521560668945 L697.8310546875,59.94081115722656 L696.9849243164062,60.905906677246094 L696.0762329101562,62.11898422241211 L695.2138671875,63.48306655883789 L694.5331420898438,64.86809539794922 L694.1056518554688,66.1584243774414 L693.9939575195312,67.25289916992188 L694.232421875,68.07420349121094 L694.833251953125,68.5553207397461 L695.7815551757812,68.66400146484375 L697.0759887695312,68.39264678955078 L698.6416015625,67.77264404296875 L700.3823852539062,66.8624267578125 L702.1744384765625,65.76463317871094 L703.897705078125,64.57955932617188 L705.4273071289062,63.41750717163086 L706.680908203125,62.39361572265625 L707.5835571289062,61.57901382446289 L708.1358032226562,61.01930236816406 L708.3838500976562,60.75932312011719 L708.3937377929688,60.80463790893555 L708.2198486328125,61.18543243408203 L707.9105834960938,61.9250373840332 L707.4783935546875,62.972171783447266 L706.9950561523438,64.23417663574219 L706.5586547851562,65.60124206542969 L706.263671875,66.92526245117188 L706.182861328125,68.11278533935547 L706.3593139648438,69.08811950683594 L706.7814331054688,69.77870178222656 L707.463623046875,70.1241226196289 L708.4223022460938,70.09719848632812 L709.6779174804688,69.65120697021484 L711.2073364257812,68.7875747680664 L712.9412231445312,67.52783203125 L714.78857421875,65.92935943603516 L716.6748046875,64.06377410888672 L718.5460205078125,62.0428581237793 L720.3982543945312,59.958778381347656 L722.2059936523438,57.93500900268555 L723.8966064453125,56.092193603515625 L725.3779296875,54.565956115722656 L726.5421142578125,53.42073440551758 L727.3124389648438,52.689453125 L727.6826171875,52.3755989074707 L727.6976318359375,52.506629943847656 L727.3858642578125,53.12561798095703 L726.7615356445312,54.297607421875 L725.8316040039062,55.95809555053711 L724.6611328125,57.98042297363281 L723.3819580078125,60.18041229248047 L722.17919921875,62.37160873413086 L721.2166748046875,64.40816497802734 L720.6061401367188,66.20438385009766 L720.3722534179688,67.65962982177734 L720.4996337890625,68.75157928466797 L720.974609375,69.41024780273438 L721.7241821289062,69.60943603515625 L722.664794921875,69.38276672363281 L723.5116577148438,68.9819564819336 L724.0794677734375,68.61184692382812 M720.7417602539062,60.50209426879883 L720.8991088867188,60.58417510986328 L721.466064453125,60.7304573059082 L722.6140747070312,60.91009521484375 L724.43896484375,61.06074523925781 L726.7303466796875,61.1285514831543 L729.1865844726562,61.133602142333984 L731.1712646484375,61.107337951660156 L732.3948974609375,61.083641052246094 M751.1349487304688,63.50300216674805 L750.8155517578125,63.28559112548828 L750.244140625,63.02073287963867 L749.423828125,62.84049606323242 L748.44775390625,62.90664291381836 L747.37890625,63.28612518310547 L746.3290405273438,63.9634895324707 L745.394287109375,64.87957000732422 L744.7091674804688,65.9595947265625 L744.3385009765625,67.08726501464844 L744.3397827148438,68.13021087646484 L744.7459106445312,68.98040771484375 L745.5606079101562,69.51435089111328 L746.7545776367188,69.65415954589844 L748.2680053710938,69.35517120361328 L749.97216796875,68.62448120117188 L751.7142333984375,67.52240753173828 L753.3291625976562,66.17001342773438 L754.6735229492188,64.70130157470703 L755.6572265625,63.27305221557617 L756.274169921875,62.01716613769531 L756.5939331054688,61.0461311340332 L756.6981811523438,60.39780807495117 L756.6746215820312,60.09024429321289 L756.5639038085938,60.11625671386719 L756.391357421875,60.48802185058594 L756.1911010742188,61.187740325927734 L756.0360107421875,62.153358459472656 L756.0280151367188,63.231849670410156 L756.2736206054688,64.25495147705078 L756.8335571289062,65.06397247314453 L757.7506713867188,65.55461883544922 L758.994873046875,65.67353820800781 L760.5006103515625,65.426513671875 L762.1790771484375,64.8508071899414 L763.9061889648438,64.01519775390625 L765.5299682617188,63.02061080932617 L766.921875,61.99535369873047 L767.9825439453125,61.069976806640625 L768.6731567382812,60.36997604370117 L768.9947509765625,59.98566436767578 L768.9689331054688,59.94924545288086 L768.60888671875,60.268672943115234 L767.9364013671875,60.95920181274414 L767.03564453125,61.9682731628418 L766.0579223632812,63.205116271972656 L765.1826171875,64.52236938476562 L764.5960083007812,65.7521743774414 L764.4309692382812,66.75505828857422 L764.739013671875,67.45507049560547 L765.5322875976562,67.78325653076172 L766.7711791992188,67.70884704589844 L768.3770141601562,67.23213958740234 L770.2261962890625,66.3983154296875 L772.1677856445312,65.30268859863281 L774.0599975585938,64.06303405761719 L775.779296875,62.818992614746094 L777.2173461914062,61.69108200073242 L778.3152465820312,60.798240661621094 L779.0139770507812,60.210025787353516 L779.2982788085938,59.9830207824707 L779.2103881835938,60.12192153930664 L778.7951049804688,60.64753723144531 L778.1259765625,61.53518295288086 L777.31787109375,62.71256637573242 L776.4947509765625,64.02849578857422 L775.7993774414062,65.33929443359375 L775.340576171875,66.49523162841797 L775.168212890625,67.42898559570312 L775.2918090820312,68.12269592285156 L775.7001342773438,68.56766510009766 L776.3857421875,68.74176025390625 L777.35302734375,68.62762451171875 L778.5746459960938,68.20020294189453 L780.0081176757812,67.47367095947266 L781.558349609375,66.51066589355469 L783.1290283203125,65.40958404541016 L784.6564331054688,64.27700805664062 L786.083984375,63.205055236816406 L787.3756103515625,62.28284454345703 L788.500732421875,61.57373809814453 L789.405029296875,61.12952423095703 L790.0682373046875,61.00114822387695 L790.5031127929688,61.213077545166016 L790.7005615234375,61.761810302734375 L790.6714477539062,62.634578704833984 L790.4277954101562,63.757755279541016 L790.0215454101562,65.00714111328125 L789.5496826171875,66.2397232055664 L789.1264038085938,67.30643463134766 L788.8287353515625,68.1027603149414 L788.6808471679688,68.58722686767578 L788.6449584960938,68.74364471435547 L788.7068481445312,68.54893493652344 L788.8796997070312,67.9984359741211 L789.2018432617188,67.10292053222656 L789.71630859375,65.93449401855469 L790.4557495117188,64.61559295654297 L791.40625,63.26688766479492 L792.5487060546875,61.978431701660156 L793.857177734375,60.84091567993164 L795.2727661132812,59.90019607543945 L796.7205810546875,59.193260192871094 L798.151123046875,58.74559020996094 L799.5956420898438,58.543922424316406 L801.0664672851562,58.53828811645508 L802.5608520507812,58.67641830444336 L803.7857666015625,58.84345245361328 L804.5692138671875,58.965904235839844 M816.6666259765625,60.66421127319336 L816.66162109375,60.71897506713867 L816.6248779296875,60.948753356933594 L816.5023803710938,61.459381103515625 L816.2346801757812,62.320762634277344 L815.7800903320312,63.49858856201172 L815.1338500976562,64.87811279296875 L814.3665771484375,66.32936096191406 L813.6129150390625,67.68441772460938 L812.9902954101562,68.78580474853516 L812.5888061523438,69.55197143554688 L812.3988647460938,69.9698257446289 L812.3488159179688,70.12135314941406 M824.3410034179688,60.309627532958984 L824.4614868164062,60.06699752807617 L824.5484008789062,59.84810256958008 L824.4984741210938,59.836997985839844 L824.195068359375,60.24309158325195 L823.6528930664062,61.11077880859375 L822.9176025390625,62.359283447265625 L822.1185302734375,63.82085037231445 L821.3896484375,65.30774688720703 L820.842529296875,66.60533142089844 L820.5017700195312,67.56752014160156 L820.385986328125,68.10997009277344 L820.4884643554688,68.18022918701172 L820.871826171875,67.7718734741211 L821.611328125,66.89251708984375 L822.7216796875,65.61682891845703 L824.1213989257812,64.09647369384766 L825.720703125,62.48448181152344 L827.4129028320312,60.93391799926758 L829.1134643554688,59.57112121582031 L830.7332153320312,58.49201583862305 L832.1742553710938,57.76517868041992 L833.3228759765625,57.45243835449219 L834.1292724609375,57.56978225708008 L834.5797119140625,58.124263763427734 L834.6881713867188,59.10619354248047 L834.4729614257812,60.47124099731445 L833.9989013671875,62.10502624511719 L833.3552856445312,63.844947814941406 L832.688232421875,65.48664093017578 L832.1393432617188,66.8681640625 L831.8346557617188,67.87739562988281 L831.8391723632812,68.45027923583984 L832.2037963867188,68.55394744873047 L832.9640502929688,68.17111206054688 L834.1148071289062,67.30587768554688 L835.5892333984375,66.05001068115234 L837.2788696289062,64.53182220458984 L839.04443359375,62.917083740234375 L840.7658081054688,61.37431716918945 L842.3548583984375,60.04732131958008 L843.719970703125,59.02179718017578 L844.7867431640625,58.36228942871094 L845.5013427734375,58.08795166015625 L845.83984375,58.195953369140625 L845.8301391601562,58.707275390625 L845.5245971679688,59.625118255615234 L844.999267578125,60.870887756347656 L844.3907470703125,62.30124282836914 L843.8348999023438,63.7253303527832 L843.456787109375,64.94721221923828 L843.3739624023438,65.85456848144531 L843.6652221679688,66.38561248779297 L844.3793334960938,66.49729919433594 L845.5569458007812,66.16355895996094 L847.156494140625,65.3971939086914 L849.0679931640625,64.2561264038086 L851.143798828125,62.862483978271484 L853.201904296875,61.36674499511719 L855.06005859375,59.93117141723633 L856.5771484375,58.692405700683594 L857.6652221679688,57.73908233642578 L858.30029296875,57.112220764160156 L858.5211181640625,56.84795379638672 L858.3768920898438,56.97581100463867 L857.9020385742188,57.55527877807617 L857.119384765625,58.639442443847656 L856.0733642578125,60.17818069458008 L854.8397216796875,62.07482147216797 L853.523681640625,64.21583557128906 L852.2168579101562,66.47468566894531 L850.9566650390625,68.7475357055664 L849.7543334960938,70.9095458984375 L848.6372680664062,72.78797149658203 L847.6595458984375,74.25874328613281 L846.8995971679688,75.26814270019531 L846.41259765625,75.79927825927734 L846.2045288085938,75.88384246826172 L846.273193359375,75.5109634399414 L846.6480712890625,74.67530822753906 L847.3575439453125,73.40046691894531 L848.4295043945312,71.81156158447266 L849.8397216796875,70.03450775146484 L851.5272216796875,68.22709655761719 L853.4152221679688,66.49043273925781 L855.4426879882812,64.91667938232422 L857.5321655273438,63.56419372558594 L859.6119384765625,62.5307731628418 L861.5596923828125,61.84217834472656 L863.2631225585938,61.513206481933594 L864.6098022460938,61.50482940673828 L865.5303955078125,61.78424072265625 L865.9732055664062,62.3182373046875 L865.9242553710938,63.08280563354492 L865.384521484375,64.00650024414062 L864.4163208007812,65.00743103027344 L863.147705078125,65.95796966552734 L861.7798461914062,66.7483901977539 L860.5239868164062,67.31238555908203 L859.5479125976562,67.6167221069336 L858.9308471679688,67.68907928466797 L858.6256713867188,67.60719299316406 L858.5471801757812,67.4476089477539 L858.5967407226562,67.28363037109375 L858.712158203125,67.17005157470703 L858.8845825195312,67.11949920654297 L859.113037109375,67.14726257324219 L859.3817138671875,67.25656127929688 L859.7068481445312,67.43881225585938 L860.0980834960938,67.66716766357422 L860.6058959960938,67.90986633300781 L861.305908203125,68.11125183105469 L862.25048828125,68.21126556396484 L863.492431640625,68.15646362304688 L865.0480346679688,67.89421081542969 L866.8991088867188,67.38380432128906 L869.0101928710938,66.62271118164062 L871.3084716796875,65.63321685791016 L873.6863403320312,64.44912719726562 L876.0416870117188,63.1460075378418 L878.221435546875,61.784080505371094 L880.0875854492188,60.441261291503906 L881.5199584960938,59.201271057128906 L882.4447631835938,58.15593338012695 L882.8190307617188,57.37479019165039 L882.6680297851562,56.942562103271484 L882.0155639648438,56.91707992553711 L880.89892578125,57.341514587402344 L879.4161987304688,58.2232666015625 L877.7448120117188,59.528167724609375 L876.1209716796875,61.150901794433594 L874.8113403320312,62.94384765625 L874.0159301757812,64.74473571777344 L873.804931640625,66.37706756591797 L874.187255859375,67.68821716308594 L875.1361083984375,68.5787582397461 L876.6448974609375,68.99140167236328 L878.6669921875,68.91376495361328 L881.0840454101562,68.39160919189453 L883.683837890625,67.49559020996094 L886.2235717773438,66.32548522949219 L888.4735717773438,65.00324249267578 L890.298583984375,63.65546798706055 L891.624267578125,62.39545440673828 L892.4423828125,61.301971435546875 L892.7982177734375,60.44550323486328 L892.7518920898438,59.878543853759766 L892.3567504882812,59.64104461669922 L891.6607666015625,59.76622772216797 L890.7193603515625,60.27450180053711 L889.6319580078125,61.13055419921875 L888.5513916015625,62.26222610473633 L887.6508178710938,63.53392791748047 L887.1026611328125,64.80084228515625 L887.0149536132812,65.9216079711914 L887.4431762695312,66.79743194580078 L888.3956909179688,67.35196685791016 L889.8270874023438,67.51679992675781 L891.675537109375,67.26316833496094 L893.8206176757812,66.62881469726562 L896.1067504882812,65.7026596069336 L898.3553466796875,64.62821960449219 L900.384033203125,63.54349136352539 L902.0184936523438,62.552696228027344 L903.1943359375,61.739715576171875 L903.8995361328125,61.16835021972656 L904.1926879882812,60.88866424560547 L904.1533813476562,60.944698333740234 L903.838134765625,61.35877990722656 L903.2750244140625,62.11450958251953 L902.5731201171875,63.10295867919922 L901.8661499023438,64.18067932128906 L901.3021240234375,65.1851806640625 L901.0049438476562,65.98416900634766 L901.0504150390625,66.49829864501953 L901.47705078125,66.70337677001953 L902.330322265625,66.5545654296875 L903.6005249023438,66.04932403564453 L905.2315673828125,65.21537017822266 L907.09228515625,64.1398696899414 L909.0264892578125,62.949466705322266 L910.8821411132812,61.815040588378906 L912.5374755859375,60.849945068359375 L913.9000854492188,60.12930679321289 L914.9056396484375,59.671443939208984 L915.5111694335938,59.49433135986328 L915.7092895507812,59.619483947753906 L915.5219116210938,60.08535385131836 L915.0253295898438,60.88783264160156 L914.3546752929688,61.95942687988281 L913.656494140625,63.15202331542969 L913.082275390625,64.32051086425781 L912.750732421875,65.33906555175781 L912.728759765625,66.12467956542969 L913.0743408203125,66.62699127197266 L913.84375,66.8128890991211 L915.0324096679688,66.64706420898438 L916.5792846679688,66.13562774658203 L918.351318359375,65.3150405883789 L920.16552734375,64.26239776611328 L921.8551025390625,63.078277587890625 L923.2964477539062,61.9058837890625 L924.3958129882812,60.86510467529297 L925.1134643554688,60.04376983642578 L925.4389038085938,59.48551940917969 L925.3829345703125,59.216217041015625 L924.9885864257812,59.26389694213867 L924.3192749023438,59.68107604980469 L923.460205078125,60.46791076660156 L922.5411376953125,61.556251525878906 L921.71728515625,62.81591796875 L921.1347045898438,64.09228515625 L920.9248046875,65.25489807128906 L921.1881713867188,66.20101928710938 L921.9586791992188,66.84276580810547 L923.2415161132812,67.11775970458984 L924.9893188476562,66.98995971679688 L927.0933837890625,66.46837615966797 L929.3958129882812,65.61582946777344 L931.7355346679688,64.54093170166016 L933.9297485351562,63.362953186035156 L935.8427124023438,62.21841049194336 L937.3689575195312,61.21592330932617 L938.4592895507812,60.41999816894531 L939.0992431640625,59.87388229370117 L939.3258056640625,59.62385559082031 L939.1698608398438,59.675716400146484 L938.6675415039062,60.06121063232422 L937.8795166015625,60.779476165771484 L936.9067993164062,61.756919860839844 L935.8837890625,62.87813949584961 L934.983154296875,64.00554656982422 L934.3468627929688,64.97770690917969 L934.0750732421875,65.69296264648438 L934.2518920898438,66.08309173583984 L934.91357421875,66.10507202148438 L936.0592651367188,65.75006866455078 L937.6632080078125,65.0599594116211 L939.6221313476562,64.11949157714844 L941.7682495117188,63.05613327026367 L943.882080078125,62.00740432739258 L945.7342529296875,61.09431838989258 L947.1503295898438,60.401092529296875 L948.0703735351562,59.984779357910156 L948.4987182617188,59.880638122558594 L948.4896240234375,60.11286926269531 L948.0794677734375,60.702484130859375 L947.3235473632812,61.635746002197266 L946.3140869140625,62.827293395996094 L945.2168579101562,64.13702392578125 L944.2315063476562,65.40275573730469 L943.555419921875,66.48760986328125 L943.3194580078125,67.30256652832031 L943.607177734375,67.78569030761719 L944.4373168945312,67.86593627929688 L945.7940673828125,67.5042724609375 L947.6299438476562,66.70628356933594 L949.8316650390625,65.53936004638672 L952.2391967773438,64.09174346923828 L954.7081298828125,62.46295166015625 L957.1051025390625,60.72990036010742 L959.3442993164062,58.97723388671875 L961.395263671875,57.29912567138672 L963.1812744140625,55.8087158203125 L964.6213989257812,54.60030746459961 L965.6670532226562,53.72346115112305 L966.2860107421875,53.19453811645508 L966.475341796875,53.01325225830078 L966.2822265625,53.188934326171875 L965.7011108398438,53.7626953125 L964.7462158203125,54.77765655517578 L963.4727172851562,56.17971420288086 L961.9750366210938,57.88039016723633 L960.369873046875,59.73633575439453 L958.829345703125,61.59041976928711 L957.5094604492188,63.313053131103516 L956.5400390625,64.80734252929688 L956.025634765625,65.96795654296875 L956.0364990234375,66.73109436035156 L956.5831909179688,67.04298400878906 L957.6698608398438,66.87420654296875 L959.25146484375,66.26666259765625 L961.1900634765625,65.31725311279297 L963.3049926757812,64.1773452758789 L965.3935546875,62.9854850769043 L967.246337890625,61.876529693603516 L968.7288818359375,60.921390533447266 L969.7855834960938,60.182350158691406 L970.3922729492188,59.683563232421875 L970.56201171875,59.47142791748047 L970.3135375976562,59.538570404052734 L969.6487426757812,59.93701171875 L968.6105346679688,60.64442825317383 L967.3296508789062,61.617279052734375 L965.9827270507812,62.746646881103516 L964.7802124023438,63.91598892211914 L963.8937377929688,64.9700698852539 L963.4163818359375,65.84675598144531 L963.3651123046875,66.45508575439453 L963.7572631835938,66.74597930908203 L964.5816650390625,66.65286254882812 L965.8112182617188,66.14175415039062 L967.3545532226562,65.22405242919922 L969.06640625,64.0134048461914 L970.7501220703125,62.64596176147461 L972.251220703125,61.288963317871094 L973.4412231445312,60.07866287231445 L974.2637939453125,59.11705780029297 L974.734130859375,58.441184997558594 L974.919921875,58.07163619995117 L974.883056640625,58.000083923339844 L974.6734619140625,58.2230110168457 L974.2947998046875,58.756038665771484 L973.7774658203125,59.57954788208008 L973.2064208984375,60.583740234375 L972.7055053710938,61.646690368652344 L972.3819580078125,62.640968322753906 L972.3038940429688,63.47895812988281 L972.5031127929688,64.1124038696289 L973.00439453125,64.48468017578125 L973.8674926757812,64.5162582397461 L975.129150390625,64.152099609375 L976.759765625,63.368507385253906 L978.6649169921875,62.183441162109375 L980.7384033203125,60.64260482788086 L982.843994140625,58.811012268066406 L984.9241943359375,56.79341125488281 L986.908203125,54.71650695800781 L988.7225341796875,52.721763610839844 L990.2562255859375,50.965843200683594 L991.4339599609375,49.57561492919922 L992.198486328125,48.59531784057617 L992.581298828125,48.04216384887695 L992.631591796875,47.90220260620117 L992.4052734375,48.17177200317383 L991.8604736328125,48.90799331665039 L990.9561767578125,50.14277648925781 L989.71142578125,51.7983283996582 L988.2037353515625,53.768741607666016 L986.578125,55.89952850341797 L985.008544921875,58.03679275512695 L983.591552734375,60.05768585205078 L982.4007568359375,61.839141845703125 L981.5067138671875,63.26531219482422 L980.9183349609375,64.24268341064453 L980.6153564453125,64.73007202148438 L980.5469970703125,64.76300048828125 L980.5927734375,64.55853271484375 L980.659912109375,64.31602478027344 M979.56591796875,58.21764373779297 L979.4739990234375,58.343326568603516 L979.414306640625,58.61927795410156 L979.4656982421875,59.057212829589844 L979.735107421875,59.60655975341797 L980.27392578125,60.19505310058594 L981.1171875,60.723777770996094 L982.3023681640625,61.09021759033203 L983.880126953125,61.233131408691406 L985.84228515625,61.10816192626953 L988.1400146484375,60.71868133544922 L990.65283203125,60.118995666503906 L993.177001953125,59.40110397338867 L995.4393310546875,58.67353439331055 L997.2379150390625,58.05445861816406 L998.447021484375,57.62506866455078 L999.0299072265625,57.448631286621094 L999.0411376953125,57.559715270996094 L998.5511474609375,57.99180221557617 L997.6177978515625,58.75613021850586 L996.400634765625,59.80931854248047 L995.1109619140625,61.0316276550293 L993.9627685546875,62.28345489501953 L993.1611328125,63.411865234375 L992.8287353515625,64.29785919189453 L993.0263671875,64.86150360107422 L993.78759765625,65.04986572265625 L995.095458984375,64.82099914550781 L996.8802490234375,64.20797729492188 L999.0135498046875,63.291343688964844 L1001.324462890625,62.18039321899414 L1003.62109375,61.006248474121094 L1005.6785888671875,59.89866256713867 L1007.3154296875,58.949424743652344 L1008.4423828125,58.24103546142578 L1009.0333251953125,57.82741928100586 L1009.1534423828125,57.740028381347656 L1008.8497314453125,58.01496887207031 L1008.11962890625,58.68532943725586 L1007.057861328125,59.735198974609375 L1005.855224609375,61.064632415771484 L1004.755615234375,62.499961853027344 L1004.0364990234375,63.8508415222168 L1003.8653564453125,64.9485092163086 L1004.2852783203125,65.68011474609375 L1005.30615234375,65.99468994140625 L1006.846435546875,65.84779357910156 L1008.7513427734375,65.23661804199219 L1010.801513671875,64.23858642578125 L1012.76123046875,62.9664421081543 L1014.4232177734375,61.56120300292969 L1015.66650390625,60.18025207519531 L1016.4053955078125,58.926780700683594 L1016.633056640625,57.879051208496094 L1016.3900146484375,57.118003845214844 L1015.8001708984375,56.67673110961914 L1015.02783203125,56.57118225097656 L1014.2703857421875,56.787200927734375 L1013.66845703125,57.25952911376953 L1013.350341796875,57.888343811035156 L1013.4302978515625,58.54234313964844 L1014.0191650390625,59.06682586669922 L1015.176025390625,59.3492431640625 L1016.8885498046875,59.314823150634766 L1019.024169921875,58.96134948730469 L1021.378173828125,58.35140609741211 L1023.752197265625,57.57274627685547 L1025.989990234375,56.7424430847168 L1027.9639892578125,55.98979568481445 L1029.568115234375,55.40096664428711 L1030.7437744140625,55.05488204956055 L1031.42333984375,55.02169418334961 L1031.599853515625,55.341793060302734 L1031.28759765625,56.039527893066406 L1030.5206298828125,57.081085205078125 L1029.3909912109375,58.35032653808594 L1028.06396484375,59.70149230957031 L1026.6917724609375,60.999515533447266 L1025.453125,62.12572479248047 L1024.4683837890625,63.01729965209961 L1023.7706298828125,63.64431381225586 L1023.3819580078125,64.0003433227539 L1023.283447265625,64.06889343261719 L1023.4693603515625,63.837039947509766 L1023.991943359375,63.275245666503906 L1024.9036865234375,62.39352798461914 L1026.204833984375,61.276206970214844 L1027.8656005859375,60.0535774230957 L1029.777587890625,58.840335845947266 L1031.8524169921875,57.75058364868164 L1034.0377197265625,56.854122161865234 L1036.273193359375,56.19561004638672 L1038.4708251953125,55.82910919189453 L1040.497314453125,55.76871109008789 L1042.1981201171875,55.993080139160156 L1043.4378662109375,56.478614807128906 L1044.130859375,57.194740295410156 L1044.26318359375,58.11509323120117 L1043.8748779296875,59.2309684753418 L1043.0606689453125,60.495643615722656 L1041.9815673828125,61.82957458496094 L1040.8265380859375,63.135013580322266 L1039.78564453125,64.32594299316406 L1039.037841796875,65.33519744873047 L1038.7110595703125,66.07697296142578 L1038.81884765625,66.48297882080078 L1039.27685546875,66.51790618896484 L1039.8077392578125,66.33612823486328 L1040.2052001953125,66.11114501953125 M1020.2396240234375,46.010711669921875 L1020.1756591796875,45.73591232299805 L1020.115234375,45.402679443359375 L1020.077392578125,45.12370681762695 L1020.064208984375,45.009307861328125 L1020.058837890625,45.0 L1020.048095703125,45.02983856201172 M1049.60595703125,66.92974090576172 L1049.6240234375,66.90180969238281 L1049.6748046875,66.87228393554688 L1049.76123046875,66.8646240234375 L1049.878173828125,66.88565063476562 L1049.986328125,66.90965270996094 L1050.065185546875,66.91268157958984 L1050.0814208984375,66.88224029541016 L1050.0426025390625,66.81539916992188 L1049.993408203125,66.75125885009766 L1049.96435546875,66.70757293701172 L1049.9586181640625,66.68757629394531 " fill="none" stroke="black" stroke-linecap="round" stroke-width="2" /></svg>