<?xml version="1.0" encoding="utf-8" ?>
<svg baseProfile="full" height="100%" version="1.1" viewBox="0,0,1000,120" width="100%" xmlns="http://www.w3.org/2000/svg" xmlns:ev="http://www.w3.org/2001/xml-events" xmlns:xlink="http://www.w3.org/1999/xlink"><defs /><rect fill="white" height="120" width="1000" x="0" y="0" /><path d="M0,0 M54.55088806152344,46.428672790527344 L54.565826416015625,46.63059997558594 L54.54960632324219,47.198360443115234 L54.458335876464844,48.274234771728516 L54.259620666503906,49.874534606933594 L53.947181701660156,51.8921012878418 L53.535972595214844,54.17387008666992 L53.075721740722656,56.548004150390625 L52.62626647949219,58.874420166015625 L52.24847412109375,61.0310173034668 L52.011756896972656,62.91145324707031 L51.930458068847656,64.44645690917969 L51.96326446533203,65.51167297363281 L52.054710388183594,66.02564239501953 L52.13988494873047,65.98107147216797 L52.18358612060547,65.6412124633789 L52.197845458984375,65.26773071289062 M43.42192077636719,45.949520111083984 L43.37578582763672,45.89863586425781 L43.48809051513672,45.839454650878906 L43.95256042480469,45.79754638671875 L44.9456672668457,45.789161682128906 L46.462013244628906,45.785850524902344 L48.39887237548828,45.74891662597656 L50.59327697753906,45.65824890136719 L52.95092010498047,45.51380157470703 L55.367515563964844,45.347015380859375 L57.72479248046875,45.187103271484375 L59.568946838378906,45.068023681640625 L60.6993408203125,45.0 M64.84244537353516,46.92305374145508 L64.89044189453125,47.222503662109375 L64.9611587524414,47.91636657714844 L65.0048828125,49.0892333984375 L64.9617919921875,50.69511413574219 L64.79602813720703,52.63137435913086 L64.50603485107422,54.76616668701172 L64.13914489746094,56.96397399902344 L63.776588439941406,59.06475830078125 L63.473793029785156,60.89357376098633 L63.26854705810547,62.32069396972656 L63.16862487792969,63.278961181640625 L63.17687225341797,63.750144958496094 L63.302337646484375,63.73566818237305 L63.582427978515625,63.227420806884766 L64.0758285522461,62.24366760253906 L64.81796264648438,60.8998908996582 L65.82222747802734,59.36827850341797 L67.07170104980469,57.83207321166992 L68.52189636230469,56.448184967041016 L70.10518646240234,55.33992004394531 L71.73759460449219,54.60038757324219 L73.3091812133789,54.312522888183594 L74.71024322509766,54.510101318359375 L75.85742950439453,55.16844940185547 L76.70743560791016,56.21562576293945 L77.23193359375,57.55630874633789 L77.42976379394531,59.08242416381836 L77.3641586303711,60.67970657348633 L77.14164733886719,62.19822311401367 L76.89848327636719,63.489601135253906 L76.73311614990234,64.37786102294922 L76.66423034667969,64.84320831298828 M89.7149429321289,57.160057067871094 L89.61862182617188,56.9404411315918 L89.38362884521484,56.641231536865234 L88.93485260009766,56.38877868652344 L88.19509887695312,56.35615158081055 L87.13015747070312,56.654747009277344 L85.7548828125,57.32250213623047 L84.21408081054688,58.30634307861328 L82.72920227050781,59.51219177246094 L81.52481079101562,60.8056640625 L80.7538070678711,62.03562927246094 L80.48741912841797,63.100345611572266 L80.69791412353516,63.906734466552734 L81.34602355957031,64.37271118164062 L82.36744689941406,64.43960571289062 L83.68470764160156,64.07621765136719 L85.20726013183594,63.29890823364258 L86.80877685546875,62.18557357788086 L88.35338592529297,60.853248596191406 L89.7256088256836,59.445735931396484 L90.83828735351562,58.13284683227539 L91.65077209472656,57.04898452758789 L92.18447875976562,56.26580810546875 L92.45891571044922,55.80939865112305 L92.52519226074219,55.69232940673828 L92.42997741699219,55.941078186035156 L92.21440887451172,56.60710906982422 L91.93347930908203,57.681758880615234 L91.67479705810547,59.055328369140625 L91.4893798828125,60.557708740234375 L91.45687866210938,62.01393127441406 L91.60145568847656,63.28345489501953 L91.9205551147461,64.27507781982422 L92.40496826171875,64.92253875732422 L93.05731201171875,65.1603775024414 L93.84498596191406,64.94932556152344 L94.78621673583984,64.29766082763672 L95.85286712646484,63.276065826416016 L96.9996566772461,62.01108169555664 L98.18109893798828,60.66845703125 L99.33992767333984,59.400142669677734 L100.36414337158203,58.33250427246094 L101.20970916748047,57.5386848449707 L101.84648132324219,57.06439971923828 L102.26168823242188,56.929622650146484 L102.4954605102539,57.15330123901367 L102.58265686035156,57.744285583496094 L102.48895263671875,58.6771240234375 L102.23865509033203,59.86164093017578 L101.89009094238281,61.162960052490234 L101.50809478759766,62.403076171875 L101.19270324707031,63.41967010498047 L101.0157470703125,64.14325714111328 L100.96807098388672,64.53994750976562 L101.03885650634766,64.60821533203125 L101.21955108642578,64.34261322021484 L101.51493072509766,63.73613357543945 L101.94232177734375,62.7949333190918 L102.52703094482422,61.62408447265625 L103.28511810302734,60.33140563964844 L104.21241760253906,59.043697357177734 L105.27947235107422,57.85529708862305 L106.46498107910156,56.8651123046875 L107.69277954101562,56.13119888305664 L108.89883422851562,55.7203369140625 L110.02374267578125,55.65401077270508 L111.0234375,55.95159149169922 L111.85130310058594,56.60129165649414 L112.49568176269531,57.57295227050781 L112.91998291015625,58.77635192871094 L113.12763214111328,60.08676528930664 L113.14852142333984,61.36202621459961 L113.07089233398438,62.49452590942383 L112.96624755859375,63.40260314941406 L112.89395904541016,64.04944610595703 L112.86871337890625,64.45632934570312 L112.91099548339844,64.60092163085938 L113.03398895263672,64.48773193359375 L113.26448059082031,64.13236999511719 L113.5137939453125,63.711490631103516 L113.7094497680664,63.36859130859375 M120.98576354980469,45.53273010253906 L121.11812591552734,45.63349151611328 L121.30699920654297,45.96750259399414 L121.49397277832031,46.65187072753906 L121.57331848144531,47.71783447265625 L121.5137710571289,49.110267639160156 L121.32215118408203,50.745086669921875 L121.06034088134766,52.5510139465332 L120.76708221435547,54.44890594482422 L120.49146270751953,56.36225509643555 L120.24951934814453,58.1864128112793 L120.05679321289062,59.825199127197266 L119.92394256591797,61.15459442138672 L119.8641357421875,62.094398498535156 L119.86254119873047,62.600059509277344 L119.89288330078125,62.769344329833984 L119.92897033691406,62.751407623291016 M126.5118408203125,55.930763244628906 L126.12689208984375,56.00255584716797 L125.3893051147461,56.22021484375 L124.30752563476562,56.645320892333984 L123.02751159667969,57.2747802734375 L121.72535705566406,58.0612907409668 L120.63768005371094,58.942928314208984 L119.94921875,59.86015701293945 L119.8102798461914,60.76314163208008 L120.28925323486328,61.60190200805664 L121.36678314208984,62.29594802856445 L122.98282623291016,62.79859924316406 L125.0531234741211,63.104454040527344 L127.36247253417969,63.25684356689453 L129.64813232421875,63.324249267578125 L131.41848754882812,63.358795166015625 L132.465576171875,63.37816619873047 M161.89556884765625,59.84868240356445 L161.75657653808594,59.6309814453125 L161.53378295898438,59.40178680419922 L161.21421813964844,59.3363037109375 L160.79527282714844,59.64056396484375 L160.24559020996094,60.39935302734375 L159.6212158203125,61.561431884765625 L159.03475952148438,62.96709442138672 L158.64178466796875,64.43722534179688 L158.55044555664062,65.7707748413086 L158.81777954101562,66.78404235839844 L159.46563720703125,67.37284088134766 L160.4818115234375,67.44599914550781 L161.82318115234375,66.9780044555664 L163.39633178710938,66.0175552368164 L165.0304412841797,64.68582153320312 L166.5467529296875,63.14333724975586 L167.8082275390625,61.61220169067383 L168.73458862304688,60.266727447509766 L169.32955932617188,59.22356414794922 L169.63919067382812,58.549827575683594 L169.7229766845703,58.29597091674805 L169.6528778076172,58.4908561706543 L169.48524475097656,59.19818115234375 L169.2745819091797,60.43573760986328 L169.05426025390625,62.14556121826172 L168.81631469726562,64.2374038696289 L168.5683135986328,66.6073226928711 L168.2968292236328,69.133056640625 L167.93701171875,71.69808959960938 L167.44891357421875,74.16670989990234 L166.7943572998047,76.39125061035156 L165.94190979003906,78.26309204101562 L164.93716430664062,79.70386505126953 L163.83224487304688,80.67259216308594 L162.6414794921875,81.15220642089844 L161.4095458984375,81.09154510498047 L160.21739196777344,80.52000427246094 L159.15684509277344,79.55574798583984 L158.4007568359375,78.5920639038086 L157.9943389892578,77.90692138671875 M183.13766479492188,59.97245407104492 L182.9791717529297,59.647430419921875 L182.60244750976562,59.2095947265625 L181.93377685546875,58.83051300048828 L180.9465789794922,58.74536895751953 L179.65985107421875,59.04572677612305 L178.18148803710938,59.77524185180664 L176.68801879882812,60.88312530517578 L175.3751678466797,62.26284408569336 L174.44613647460938,63.776058197021484 L174.0172576904297,65.25247955322266 L174.13536071777344,66.54459381103516 L174.78756713867188,67.53971862792969 L175.9013671875,68.15096282958984 L177.36956787109375,68.32194519042969 L179.0612335205078,68.04564666748047 L180.7876739501953,67.34748077392578 L182.35848999023438,66.30438995361328 L183.6129608154297,65.01668548583984 L184.44456481933594,63.610679626464844 L184.85003662109375,62.23172378540039 L184.91197204589844,61.03408432006836 L184.75961303710938,60.12418746948242 L184.5610809326172,59.56830596923828 L184.41807556152344,59.31394577026367 M188.91683959960938,60.018245697021484 L188.8809051513672,60.23835372924805 L188.8168182373047,60.70929718017578 L188.75454711914062,61.469669342041016 L188.72903442382812,62.4496955871582 L188.7921142578125,63.54322814941406 L188.99798583984375,64.62194061279297 L189.37757873535156,65.54593658447266 L189.95291137695312,66.1925277709961 L190.76048278808594,66.45919799804688 L191.80291748046875,66.27825927734375 L193.07623291015625,65.64810943603516 L194.52239990234375,64.62612915039062 L196.04920959472656,63.3153190612793 L197.52783203125,61.87538528442383 L198.8416748046875,60.47681427001953 L199.90103149414062,59.28376007080078 L200.65687561035156,58.426544189453125 L201.1001434326172,57.973079681396484 L201.28536987304688,57.94083023071289 L201.28367614746094,58.340538024902344 L201.173095703125,59.15069580078125 L201.04454040527344,60.29534912109375 L200.98171997070312,61.651939392089844 L201.1037139892578,63.09104919433594 L201.4943389892578,64.47772216796875 L202.1524200439453,65.70966339111328 L202.8242950439453,66.607666015625 L203.3177032470703,67.12126159667969 M233.39840698242188,55.25642395019531 L233.47157287597656,54.62223815917969 L233.61370849609375,53.595855712890625 L233.76084899902344,52.31795883178711 L233.8090362548828,51.072113037109375 L233.6421356201172,49.953758239746094 L233.20361328125,49.02878189086914 L232.53897094726562,48.33787536621094 L231.74977111816406,47.958255767822266 L230.91798400878906,47.973873138427734 L230.10755920410156,48.473846435546875 L229.3033905029297,49.48249053955078 L228.47264099121094,51.00191116333008 L227.63563537597656,52.984798431396484 L226.8397674560547,55.338714599609375 L226.1743927001953,57.94847106933594 L225.72586059570312,60.70330047607422 L225.4939727783203,63.461265563964844 L225.43588256835938,66.09467315673828 L225.4873046875,68.47013092041016 L225.56935119628906,70.42170715332031 L225.6509246826172,71.81648254394531 L225.72628784179688,72.60625457763672 L225.77757263183594,72.91280364990234 L225.80914306640625,72.93769073486328 M221.2796173095703,59.323856353759766 L221.4471435546875,59.37144470214844 L221.92933654785156,59.479801177978516 L222.8431854248047,59.63847732543945 L224.29476928710938,59.80208969116211 L226.21820068359375,59.91979217529297 L228.4257049560547,59.959510803222656 L230.32301330566406,59.94547653198242 L231.56332397460938,59.9150276184082 M243.2110595703125,58.93819808959961 L243.0465087890625,58.74384689331055 L242.67921447753906,58.47147750854492 L242.0399169921875,58.2259407043457 L241.0873260498047,58.16252136230469 L239.82057189941406,58.35794448852539 L238.3427734375,58.864498138427734 L236.83392333984375,59.665409088134766 L235.50668334960938,60.7003059387207 L234.5713653564453,61.87548828125 L234.14488220214844,63.062744140625 L234.2841339111328,64.11750030517578 L234.98606872558594,64.92698669433594 L236.18759155273438,65.39826202392578 L237.77389526367188,65.47779846191406 L239.60012817382812,65.1650161743164 L241.47305297851562,64.5023422241211 L243.1875,63.56633758544922 L244.57740783691406,62.465694427490234 L245.51763916015625,61.302337646484375 L245.96128845214844,60.17041015625 L245.98060607910156,59.168888092041016 L245.70660400390625,58.36879348754883 L245.36563110351562,57.84458541870117 L245.1170196533203,57.58403396606445 M250.31675720214844,58.368438720703125 L250.3489532470703,58.645633697509766 L250.3582305908203,59.214290618896484 L250.30911254882812,60.08148193359375 L250.1773223876953,61.14317321777344 L249.9958038330078,62.27298355102539 L249.81134033203125,63.339359283447266 L249.6707763671875,64.24677276611328 L249.591064453125,64.9294204711914 L249.5964813232422,65.31761169433594 L249.69464111328125,65.34414672851562 L249.88934326171875,64.95584869384766 L250.15798950195312,64.14591979980469 L250.49058532714844,63.01423645019531 L250.87693786621094,61.72438049316406 L251.35145568847656,60.41990280151367 L251.96905517578125,59.190975189208984 L252.77735900878906,58.08210754394531 L253.80775451660156,57.12186813354492 L255.05450439453125,56.357391357421875 L256.49383544921875,55.84485626220703 L258.07098388671875,55.60782241821289 L259.73846435546875,55.63212966918945 L261.4287414550781,55.87419128417969 L263.1127014160156,56.25498962402344 L264.7110595703125,56.66862869262695 L266.16119384765625,57.027923583984375 L267.2367858886719,57.26551055908203 L267.8675842285156,57.3795051574707 M280.36663818359375,55.309104919433594 M279.6833190917969,58.935760498046875 L279.61224365234375,59.91242980957031 L279.45452880859375,61.439083099365234 L279.194091796875,63.261051177978516 L278.8523864746094,64.90406799316406 L278.50244140625,66.21635437011719 L278.2319030761719,67.1133804321289 L278.0809326171875,67.60088348388672 L278.05596923828125,67.65538787841797 L278.1318359375,67.2560806274414 L278.27490234375,66.39576721191406 L278.5085754394531,65.12535858154297 L278.87896728515625,63.58477020263672 L279.39208984375,61.91746139526367 L280.0404968261719,60.26744842529297 L280.8177490234375,58.735107421875 L281.6902160644531,57.403717041015625 L282.64080810546875,56.34013366699219 L283.6719970703125,55.61536407470703 L284.7829284667969,55.2440071105957 L285.9405212402344,55.19126510620117 L287.10528564453125,55.369728088378906 L288.0361328125,55.61545944213867 L288.6134338378906,55.80803680419922 M291.7098693847656,61.504058837890625 L292.0101318359375,61.37883377075195 L292.6099548339844,61.08704376220703 L293.5120849609375,60.589847564697266 L294.6097106933594,59.8998908996582 L295.781494140625,59.07005310058594 L296.8875732421875,58.18946075439453 L297.79364013671875,57.348976135253906 L298.41754150390625,56.63088607788086 L298.6796875,56.08651351928711 L298.56805419921875,55.74517059326172 L298.07879638671875,55.64305114746094 L297.249755859375,55.83036804199219 L296.1374206542969,56.34708023071289 L294.8632507324219,57.215415954589844 L293.5535888671875,58.390533447265625 L292.389404296875,59.79074478149414 L291.5138244628906,61.31005096435547 L291.0634460449219,62.836692810058594 L291.1065979003906,64.26142120361328 L291.78729248046875,65.45790100097656 L293.1187438964844,66.30891418457031 L294.9957275390625,66.75784301757812 L296.7761535644531,66.89347076416016 L298.02850341796875,66.85931396484375 M311.397216796875,57.187068939208984 L311.00592041015625,56.97524642944336 L310.2583312988281,56.772132873535156 L309.1414489746094,56.74897384643555 L307.75640869140625,57.0792236328125 L306.22296142578125,57.79237747192383 L304.6710205078125,58.828163146972656 L303.277587890625,60.065269470214844 L302.21807861328125,61.37828826904297 L301.605712890625,62.61992263793945 L301.4859924316406,63.634742736816406 L301.8624267578125,64.30340576171875 L302.66375732421875,64.5369873046875 L303.83709716796875,64.29865264892578 L305.2832336425781,63.60859298706055 L306.8643493652344,62.534366607666016 L308.4335021972656,61.202857971191406 L309.84375,59.780601501464844 L310.9783630371094,58.456329345703125 L311.80181884765625,57.37828063964844 L312.3051452636719,56.64311218261719 L312.523681640625,56.278770446777344 L312.5120544433594,56.30229187011719 L312.3349609375,56.72107696533203 L312.0562744140625,57.55889129638672 L311.7599182128906,58.769012451171875 L311.5343322753906,60.24991226196289 L311.4423522949219,61.82320022583008 L311.56787109375,63.323486328125 L311.9448547363281,64.59687805175781 L312.5536804199219,65.56864929199219 L313.16461181640625,66.176513671875 L313.6178283691406,66.47228240966797 M325.08270263671875,57.44668960571289 L324.98382568359375,57.24280548095703 L324.7489929199219,57.02387237548828 L324.31781005859375,56.93451690673828 L323.6534118652344,57.149295806884766 L322.7335510253906,57.72817611694336 L321.622802734375,58.67616271972656 L320.4522705078125,59.93447494506836 L319.3908386230469,61.38433074951172 L318.6223449707031,62.87786865234375 L318.2910461425781,64.2565689086914 L318.4806823730469,65.39503479003906 L319.1964111328125,66.18824768066406 L320.3948059082031,66.55705261230469 L321.98504638671875,66.40922546386719 L323.8518981933594,65.71532440185547 L325.8599853515625,64.50741577148438 L327.8727111816406,62.87586975097656 L329.7410888671875,60.93825149536133 L331.3568420410156,58.81394577026367 L332.662353515625,56.58423614501953 L333.66162109375,54.34959411621094 L334.4031677246094,52.22734069824219 L334.931396484375,50.32276153564453 L335.2869567871094,48.73659896850586 L335.497802734375,47.528690338134766 L335.5863952636719,46.70988845825195 L335.58026123046875,46.30348205566406 L335.5169372558594,46.361873626708984 L335.37896728515625,46.934852600097656 L335.1648254394531,48.071807861328125 L334.8841552734375,49.743682861328125 L334.5487976074219,51.82014465332031 L334.19024658203125,54.12725067138672 L333.8493347167969,56.477840423583984 L333.5375671386719,58.69032669067383 L333.28778076171875,60.624088287353516 L333.13031005859375,62.17778778076172 L333.07318115234375,63.28544616699219 L333.124267578125,63.93281936645508 L333.2964172363281,64.11592864990234 L333.6184997558594,63.84601974487305 L334.13348388671875,63.15656661987305 L334.862548828125,62.13673782348633 L335.7838439941406,60.9307861328125 L336.8385925292969,59.70685577392578 L337.9755554199219,58.61675262451172 L339.1269226074219,57.769142150878906 L340.2261962890625,57.229251861572266 L341.2130432128906,57.03887939453125 L342.03192138671875,57.21298599243164 L342.649169921875,57.7336540222168 L343.0810852050781,58.570106506347656 L343.34832763671875,59.63554763793945 L343.49163818359375,60.820465087890625 L343.5639343261719,62.00526809692383 L343.6275329589844,63.0644645690918 L343.7139587402344,63.90582275390625 L343.84075927734375,64.50316619873047 L344.0229187011719,64.83712005615234 L344.262451171875,64.89418029785156 L344.5740051269531,64.64798736572266 L345.0044860839844,64.068115234375 L345.5683898925781,63.176448822021484 L346.27935791015625,62.07349395751953 L347.1231994628906,60.87932586669922 L348.01904296875,59.72636413574219 L348.85986328125,58.722232818603516 L349.5442199707031,57.924285888671875 L350.0020446777344,57.37595748901367 L350.235595703125,57.11622619628906 L350.30889892578125,57.1669921875 L350.2872009277344,57.558658599853516 L350.2347106933594,58.30404281616211 L350.1805419921875,59.33966064453125 L350.12774658203125,60.54833984375 L350.07659912109375,61.77969741821289 L350.054443359375,62.87638854980469 L350.07586669921875,63.73186111450195 L350.1258544921875,64.27894592285156 L350.18121337890625,64.5450210571289 M349.6506652832031,49.07837677001953 L349.6618957519531,49.015411376953125 L349.697998046875,48.965721130371094 L349.7442626953125,48.94211196899414 L349.7859802246094,48.95738983154297 M356.3099060058594,56.32884216308594 L356.39788818359375,56.39173126220703 L356.5430908203125,56.642581939697266 L356.6932373046875,57.197696685791016 L356.76422119140625,58.116737365722656 L356.6964416503906,59.352237701416016 L356.5057678222656,60.79445266723633 L356.24871826171875,62.270179748535156 L356.02069091796875,63.60752868652344 L355.8686828613281,64.67556762695312 L355.8194274902344,65.38845825195312 L355.8848876953125,65.6935043334961 L356.1062316894531,65.57205200195312 L356.529296875,64.99583435058594 L357.215087890625,63.98816680908203 L358.1602783203125,62.668121337890625 L359.3114929199219,61.225948333740234 L360.58160400390625,59.856536865234375 L361.88433837890625,58.72673034667969 L363.1416320800781,57.90420913696289 L364.3174133300781,57.424560546875 L365.37420654296875,57.31218719482422 L366.2640380859375,57.59759521484375 L366.9368896484375,58.25590896606445 L367.3603820800781,59.263118743896484 L367.51470947265625,60.5399055480957 L367.4523620605469,61.997920989990234 L367.2611999511719,63.51848220825195 L367.1143798828125,64.96498107910156 L367.15728759765625,66.15808868408203 L367.47662353515625,67.00511169433594 L367.89794921875,67.47819519042969 L368.257568359375,67.66441345214844 M378.1284484863281,60.21944046020508 L377.9654541015625,59.785400390625 L377.6324157714844,59.2279052734375 L377.07928466796875,58.7536506652832 L376.2934265136719,58.63911437988281 L375.26751708984375,58.94120788574219 L374.0967102050781,59.642093658447266 L372.94683837890625,60.629432678222656 L371.9977722167969,61.77577209472656 L371.41363525390625,62.92512512207031 L371.27569580078125,63.927799224853516 L371.5983581542969,64.66967010498047 L372.37017822265625,65.06755065917969 L373.5445556640625,65.06839752197266 L375.0087585449219,64.65811920166016 L376.631591796875,63.88591384887695 L378.2348327636719,62.84568786621094 L379.6611633300781,61.668575286865234 L380.79107666015625,60.504878997802734 L381.5827331542969,59.480743408203125 L382.0515441894531,58.67766571044922 L382.25299072265625,58.154449462890625 L382.25103759765625,57.960323333740234 L382.1093444824219,58.12153625488281 L381.85455322265625,58.69503402709961 L381.52947998046875,59.702938079833984 L381.17388916015625,61.11375427246094 L380.8216247558594,62.86187744140625 L380.5093688964844,64.88054656982422 L380.25518798828125,67.07085418701172 L380.0316162109375,69.37886810302734 L379.7929992675781,71.73483276367188 L379.45684814453125,74.05717468261719 L378.95147705078125,76.26469421386719 L378.22369384765625,78.2724609375 L377.2506103515625,79.9845962524414 L376.0299377441406,81.35138702392578 L374.56927490234375,82.3222427368164 L372.876953125,82.87227630615234 L371.02923583984375,83.02204895019531 L369.1097412109375,82.72096252441406 L367.27215576171875,81.98755645751953 L365.6683654785156,80.92654418945312 L364.53021240234375,79.9111328125 L363.8961486816406,79.19697570800781 M408.99261474609375,62.085453033447266 L408.82806396484375,61.797428131103516 L408.48431396484375,61.3824348449707 L407.91778564453125,60.96542739868164 L407.1118469238281,60.730281829833984 L406.05010986328125,60.76190185546875 L404.73681640625,61.111236572265625 L403.2361145019531,61.79692077636719 L401.7149353027344,62.800537109375 L400.34906005859375,64.06523132324219 L399.2971496582031,65.47586059570312 L398.66015625,66.89125061035156 L398.4569396972656,68.16358184814453 L398.687255859375,69.17877960205078 L399.3542175292969,69.8504409790039 L400.4091796875,70.12397003173828 L401.792236328125,69.98262786865234 L403.4087829589844,69.44697570800781 L405.12432861328125,68.57080078125 L406.7900390625,67.4385986328125 L408.2686767578125,66.13888549804688 L409.4374694824219,64.75460052490234 L410.2433166503906,63.37874221801758 L410.7030334472656,62.11254119873047 L410.872802734375,61.05147933959961 L410.81658935546875,60.262474060058594 L410.6336364746094,59.75190734863281 L410.4161682128906,59.48508071899414 L410.2470397949219,59.409732818603516 L410.1850280761719,59.48213195800781 L410.2630615234375,59.6757698059082 L410.482177734375,59.9670524597168 L410.8858947753906,60.298133850097656 L411.5240173339844,60.60211944580078 L412.4205322265625,60.803565979003906 L413.56201171875,60.84804153442383 L414.8977966308594,60.71597671508789 L416.3008728027344,60.43581008911133 L417.6290588378906,60.06293869018555 L418.7472839355469,59.686912536621094 L419.54638671875,59.37622833251953 L420.01300048828125,59.170616149902344 L420.21142578125,59.05772399902344 L420.21868896484375,59.044490814208984 L420.07952880859375,59.170475006103516 L419.7824401855469,59.52183151245117 L419.2911682128906,60.1688117980957 L418.6287841796875,61.138877868652344 L417.886962890625,62.366024017333984 L417.211181640625,63.74916458129883 L416.7477722167969,65.14840698242188 L416.5895080566406,66.43070220947266 L416.7921142578125,67.47479248046875 L417.3585205078125,68.19425964355469 L418.269775390625,68.52450561523438 L419.4701232910156,68.44088745117188 L420.88385009765625,67.94341278076172 L422.4129638671875,67.07763671875 L423.96356201171875,65.92015075683594 L425.4268798828125,64.57152557373047 L426.7342224121094,63.14644241333008 L427.8367614746094,61.76469802856445 L428.697509765625,60.54925537109375 L429.3078918457031,59.602840423583984 L429.6802978515625,58.993682861328125 L429.8251037597656,58.747745513916016 L429.79180908203125,58.87319564819336 L429.6344299316406,59.36763381958008 L429.3747863769531,60.22287368774414 L429.0572204589844,61.37976837158203 L428.7508544921875,62.741127014160156 L428.52880859375,64.16580200195312 L428.4881591796875,65.51136016845703 L428.6968688964844,66.64411926269531 L429.18988037109375,67.4605484008789 L429.9785461425781,67.87030029296875 L431.0466003417969,67.81434631347656 L432.36126708984375,67.25926208496094 L433.87518310546875,66.20655822753906 L435.53045654296875,64.68000793457031 L437.2801818847656,62.7496337890625 L439.0683898925781,60.522396087646484 L440.8193359375,58.12762451171875 L442.4680480957031,55.710350036621094 L443.95025634765625,53.388187408447266 L445.2142028808594,51.27733612060547 L446.2164306640625,49.49676513671875 L446.93157958984375,48.13616943359375 L447.35260009765625,47.25569152832031 L447.5055236816406,46.90540313720703 L447.41021728515625,47.095855712890625 L447.0746154785156,47.879852294921875 L446.49755859375,49.283729553222656 L445.70361328125,51.240135192871094 L444.7763671875,53.59607696533203 L443.8478088378906,56.1638069152832 L443.02850341796875,58.73078155517578 L442.41094970703125,61.15101623535156 L442.0362854003906,63.302005767822266 L441.89215087890625,65.0962905883789 L441.9335021972656,66.39395141601562 L442.08673095703125,67.11605834960938 L442.2546081542969,67.25292205810547 L442.3768615722656,67.05216979980469 L442.4367980957031,66.76356506347656 M437.9134521484375,57.30793380737305 L437.9748229980469,57.259429931640625 L438.38250732421875,57.22784423828125 L439.3539733886719,57.23976516723633 L441.0913391113281,57.29806137084961 L443.4564208984375,57.34196090698242 L446.1872863769531,57.333534240722656 L448.51678466796875,57.286800384521484 L450.0174560546875,57.232818603515625 M471.125,47.681766510009766 L471.1121826171875,47.894107818603516 L471.0555114746094,48.42509460449219 L470.9196472167969,49.37339782714844 L470.654296875,50.74280548095703 L470.2202453613281,52.46673583984375 L469.61669921875,54.468082427978516 L468.88323974609375,56.65082550048828 L468.09075927734375,58.93365478515625 L467.3355712890625,61.2216796875 L466.676513671875,63.405296325683594 L466.16656494140625,65.36698913574219 L465.88568115234375,66.95152282714844 L465.8592224121094,68.02120971679688 L466.08209228515625,68.52960205078125 L466.3977966308594,68.62971496582031 L466.6572570800781,68.53253936767578 M464.0207824707031,58.20030975341797 L464.2896423339844,58.24461364746094 L464.9115905761719,58.31660079956055 L465.973388671875,58.416053771972656 L467.4530334472656,58.513999938964844 L469.28948974609375,58.59048080444336 L471.3414001464844,58.6229133605957 L473.49932861328125,58.59600830078125 L475.6658630371094,58.49197769165039 L477.7343444824219,58.32135009765625 L479.6038513183594,58.077972412109375 L481.1737976074219,57.78630065917969 L482.3370361328125,57.4736442565918 L483.0781555175781,57.18305587768555 L483.4185485839844,56.94211959838867 L483.401123046875,56.784908294677734 L483.0655212402344,56.73466110229492 L482.4128112792969,56.848533630371094 L481.42584228515625,57.187110900878906 L480.16693115234375,57.807167053222656 L478.72650146484375,58.70545196533203 L477.25958251953125,59.842533111572266 L475.95147705078125,61.133602142333984 L474.96087646484375,62.48184585571289 L474.3864440917969,63.77434158325195 L474.2904968261719,64.91169738769531 L474.66619873046875,65.78897094726562 L475.47808837890625,66.33939361572266 L476.6733093261719,66.52235412597656 L478.17138671875,66.32588958740234 L479.8529357910156,65.75326538085938 L481.57421875,64.8470687866211 L483.1946716308594,63.683414459228516 L484.57080078125,62.375518798828125 L485.5899353027344,61.05141067504883 L486.1788330078125,59.8200798034668 L486.29742431640625,58.75398254394531 L485.99261474609375,57.89373779296875 L485.3968811035156,57.2683219909668 L484.79345703125,56.888954162597656 L484.3705749511719,56.715187072753906 M501.11865234375,56.01153564453125 L500.9299011230469,56.75680923461914 L500.6154479980469,58.02037048339844 L500.2075500488281,59.67991638183594 L499.7842102050781,61.418128967285156 L499.3763122558594,63.0654296875 L499.0262756347656,64.4637680053711 L498.7640686035156,65.54168701171875 L498.61834716796875,66.20484924316406 L498.6214599609375,66.39118194580078 L498.7962646484375,66.07144927978516 L499.1658020019531,65.24337768554688 L499.7554626464844,63.96952819824219 L500.55633544921875,62.417030334472656 L501.5581970214844,60.75630569458008 L502.74755859375,59.1524543762207 L504.07958984375,57.732261657714844 L505.48345947265625,56.58428192138672 L506.8865661621094,55.78401184082031 L508.18914794921875,55.42040252685547 L509.3055725097656,55.531986236572266 L510.177490234375,56.12409210205078 L510.7554626464844,57.12797546386719 L511.0040588378906,58.432804107666016 L510.9514465332031,59.88986587524414 L510.6639404296875,61.329498291015625 L510.2676696777344,62.592586517333984 L509.8815002441406,63.58112335205078 L509.6027526855469,64.22569274902344 L509.4869079589844,64.50459289550781 L509.5653381347656,64.40372467041016 L509.87103271484375,63.888179779052734 L510.4681396484375,62.96109390258789 L511.36419677734375,61.71308517456055 L512.5347900390625,60.26868438720703 L513.9273681640625,58.80442810058594 L515.4468994140625,57.48168182373047 L517.01171875,56.399688720703125 L518.5704345703125,55.6336669921875 L520.0467529296875,55.24209213256836 L521.3782958984375,55.23751449584961 L522.52294921875,55.625732421875 L523.430908203125,56.389381408691406 L524.0858154296875,57.46297836303711 L524.512939453125,58.76567459106445 L524.7392578125,60.18953323364258 L524.832275390625,61.6147575378418 L524.873779296875,62.928043365478516 L524.9310302734375,64.0362777709961 L525.033447265625,64.86018371582031 L525.177734375,65.38309478759766 L525.3271484375,65.64092254638672 L525.451904296875,65.69943237304688 L525.5518798828125,65.6313705444336 L525.6539306640625,65.46241760253906 L525.8045654296875,65.17031860351562 L526.0506591796875,64.74197387695312 L526.4462890625,64.17972564697266 L527.037109375,63.49934387207031 L527.8509521484375,62.744083404541016 L528.86376953125,61.92028045654297 L530.027099609375,61.027217864990234 L531.23193359375,60.07466506958008 L532.354248046875,59.082427978515625 L533.2760009765625,58.09156799316406 L533.927001953125,57.171791076660156 L534.26318359375,56.36445617675781 L534.2938232421875,55.71181869506836 L534.0277099609375,55.24383544921875 L533.47607421875,54.99462127685547 L532.6502685546875,55.01384735107422 L531.6116943359375,55.356361389160156 L530.4447021484375,56.044891357421875 L529.287109375,57.04966735839844 L528.2947998046875,58.29637145996094 L527.6312255859375,59.676273345947266 L527.4376220703125,61.08076858520508 L527.8070068359375,62.40774917602539 L528.747802734375,63.585609436035156 L530.2052001953125,64.54940032958984 L532.164794921875,65.24765014648438 L534.5155029296875,65.6517562866211 L537.088623046875,65.77477264404297 L539.2528076171875,65.72621154785156 L540.6495361328125,65.62562561035156 M555.934814453125,58.272300720214844 L555.9554443359375,58.518760681152344 L555.9576416015625,59.051422119140625 L555.9073486328125,59.91111373901367 L555.756103515625,61.02455520629883 L555.50634765625,62.31202697753906 L555.156494140625,63.671207427978516 L554.770751953125,65.00132751464844 L554.4017333984375,66.17628479003906 L554.110107421875,67.10685729980469 L553.9232177734375,67.70079803466797 L553.865478515625,67.91710662841797 L553.921875,67.73109436035156 L554.1004638671875,67.1260986328125 L554.4139404296875,66.10763549804688 L554.8941650390625,64.77147674560547 L555.5728759765625,63.23798370361328 L556.46533203125,61.63441848754883 L557.5623779296875,60.077301025390625 L558.837646484375,58.66815185546875 L560.2872314453125,57.49922180175781 L561.8909912109375,56.657432556152344 L563.6273193359375,56.19458770751953 L565.440673828125,56.09712600708008 L567.2823486328125,56.335296630859375 L569.0452880859375,56.833160400390625 L570.658935546875,57.489524841308594 L571.8619384765625,58.078468322753906 L572.5699462890625,58.4717903137207 M571.904296875,62.38365936279297 L572.3072509765625,62.457366943359375 L573.091552734375,62.46343994140625 L574.2550048828125,62.31395721435547 L575.6361083984375,61.94358825683594 L577.1004638671875,61.378562927246094 L578.4990234375,60.65508270263672 L579.7247314453125,59.8178596496582 L580.704833984375,58.89601516723633 L581.37646484375,57.947879791259766 L581.674560546875,57.06696319580078 L581.564697265625,56.344078063964844 L581.023193359375,55.89296340942383 L580.0682373046875,55.803382873535156 L578.7808837890625,56.13582992553711 L577.277587890625,56.89820861816406 L575.73583984375,58.051265716552734 L574.35302734375,59.478763580322266 L573.3165283203125,61.06755065917969 L572.74853515625,62.671302795410156 L572.8399658203125,64.15379333496094 L573.626220703125,65.38285827636719 L575.0411376953125,66.2797622680664 L576.5023193359375,66.80521392822266 L577.5836181640625,67.03556060791016 M593.2432861328125,59.748165130615234 L593.1353759765625,59.43061447143555 L592.89501953125,58.97298812866211 L592.446533203125,58.49843215942383 L591.7376708984375,58.209346771240234 L590.7218017578125,58.20711135864258 L589.443603515625,58.542930603027344 L588.0440673828125,59.180423736572266 L586.719482421875,60.05083465576172 L585.673583984375,61.01688766479492 L585.095458984375,61.9308967590332 L585.096923828125,62.66830825805664 L585.727294921875,63.1287956237793 L586.931884765625,63.24248504638672 L588.567626953125,62.99014663696289 L590.4278564453125,62.399784088134766 L592.2967529296875,61.548404693603516 L593.959716796875,60.55939865112305 L595.2784423828125,59.580570220947266 L596.171142578125,58.74465560913086 L596.6676025390625,58.133480072021484 L596.8450927734375,57.78870391845703 L596.8004150390625,57.720767974853516 L596.5970458984375,57.95907211303711 L596.2906494140625,58.5674934387207 L595.912109375,59.584136962890625 L595.5108642578125,60.985206604003906 L595.12744140625,62.708045959472656 L594.7725830078125,64.65989685058594 L594.4361572265625,66.7574234008789 L594.0728759765625,68.92803955078125 L593.62744140625,71.0910415649414 L593.0281982421875,73.16026306152344 L592.2353515625,75.06303405761719 L591.21875,76.71690368652344 L590.0013427734375,78.04969787597656 L588.611572265625,78.9298095703125 L587.1865234375,79.2843246459961 L585.85986328125,79.12271881103516 L584.8812255859375,78.72427368164062 L584.3282470703125,78.33990478515625 M605.58447265625,57.12748718261719 L605.4403076171875,56.9277458190918 L605.12646484375,56.6985969543457 L604.58349609375,56.57443618774414 L603.7928466796875,56.72890853881836 L602.7432861328125,57.224151611328125 L601.52197265625,58.076683044433594 L600.2542724609375,59.20876693725586 L599.1280517578125,60.520729064941406 L598.30615234375,61.86261749267578 L597.900146484375,63.08305740356445 L597.933837890625,64.05145263671875 L598.4061279296875,64.68724822998047 L599.2738037109375,64.91987609863281 L600.48974609375,64.72663879394531 L601.9644775390625,64.10816955566406 L603.569091796875,63.12000274658203 L605.168701171875,61.875213623046875 L606.625,60.52490234375 L607.830078125,59.23903274536133 L608.72119140625,58.16227340698242 L609.29345703125,57.364532470703125 L609.56640625,56.87391662597656 L609.622802734375,56.71366882324219 L609.48828125,56.90178298950195 L609.188720703125,57.500667572021484 L608.7545166015625,58.52540588378906 L608.28857421875,59.863197326660156 L607.9129638671875,61.32636260986328 L607.78076171875,62.71202850341797 L607.979248046875,63.84891891479492 L608.560791015625,64.64823913574219 L609.514404296875,65.0613021850586 L610.81005859375,65.044677734375 L612.3662109375,64.60530090332031 L614.0550537109375,63.80178451538086 L615.7371826171875,62.747867584228516 L617.2742919921875,61.57209014892578 L618.562744140625,60.387508392333984 L619.5694580078125,59.297061920166016 L620.2938232421875,58.38569259643555 L620.7547607421875,57.70028305053711 L621.0089111328125,57.26704406738281 L621.0806884765625,57.102439880371094 L620.9969482421875,57.2271614074707 L620.781005859375,57.681610107421875 L620.4241943359375,58.467018127441406 L619.9495849609375,59.52695846557617 L619.4222412109375,60.72494888305664 L618.9171142578125,61.89653778076172 L618.510009765625,62.8964729309082 L618.244140625,63.62737274169922 L618.1318359375,64.02347564697266 L618.168701171875,64.0625228881836 L618.3590087890625,63.71400833129883 L618.72802734375,62.98714065551758 L619.288330078125,61.9385871887207 L620.0367431640625,60.685916900634766 L620.969970703125,59.35618591308594 L622.0421142578125,58.077369689941406 L623.2076416015625,56.932701110839844 L624.431884765625,56.00021743774414 L625.6822509765625,55.3327522277832 L626.910400390625,54.966373443603516 L628.1151123046875,54.90432357788086 L629.2628173828125,55.104061126708984 L630.322265625,55.47798156738281 L631.1280517578125,55.85376739501953 L631.6195068359375,56.119449615478516 M639.697021484375,57.54168701171875 L639.408203125,57.43312454223633 L638.841064453125,57.35528564453125 L637.9588623046875,57.420265197753906 L636.8076171875,57.73966598510742 L635.428466796875,58.34153747558594 L633.966064453125,59.20705795288086 L632.6033935546875,60.25648498535156 L631.5418701171875,61.381954193115234 L630.921875,62.46748733520508 L630.779052734375,63.383853912353516 L631.07421875,64.03450775146484 L631.7791748046875,64.3448257446289 L632.8719482421875,64.2293472290039 L634.3216552734375,63.62522506713867 L636.056640625,62.54812240600586 L637.949462890625,61.05170822143555 L639.860107421875,59.241668701171875 L641.700927734375,57.24365997314453 L643.4053955078125,55.1416130065918 L644.92919921875,53.02589416503906 L646.218994140625,51.03481674194336 L647.2279052734375,49.303306579589844 L647.92724609375,47.95219802856445 L648.3394775390625,47.05933380126953 L648.487060546875,46.647804260253906 L648.40966796875,46.72111892700195 L648.112060546875,47.31003952026367 L647.60791015625,48.43119812011719 L646.9251708984375,50.05061721801758 L646.146240234375,52.06396484375 L645.3826904296875,54.327598571777344 L644.783935546875,56.63975143432617 L644.4588623046875,58.81865310668945 L644.4852294921875,60.71128463745117 L644.8885498046875,62.201637268066406 L645.67041015625,63.21321487426758 L646.787353515625,63.723793029785156 L648.2039794921875,63.72065734863281 L649.8341064453125,63.23651885986328 L651.56396484375,62.34479522705078 L653.2725830078125,61.15934371948242 L654.844970703125,59.810081481933594 L656.182373046875,58.44712448120117 L657.2459716796875,57.22575759887695 L658.0087890625,56.261985778808594 L658.48779296875,55.6090202331543 L658.7259521484375,55.28267288208008 L658.7623291015625,55.27869415283203 L658.6285400390625,55.614295959472656 L658.341064453125,56.3408317565918 L657.9107666015625,57.44718551635742 L657.4090576171875,58.831764221191406 L656.9405517578125,60.336822509765625 L656.6075439453125,61.77814483642578 L656.483154296875,63.017757415771484 L656.5972900390625,63.92198944091797 L656.9207763671875,64.39884185791016 L657.4027099609375,64.42207336425781 L657.8653564453125,64.19364929199219 L658.18896484375,63.91626739501953 M659.7919921875,47.73219299316406 L659.8341064453125,47.581573486328125 L659.93310546875,47.419586181640625 L660.0511474609375,47.29608154296875 L660.1497802734375,47.26091384887695 M665.348388671875,53.12416458129883 L665.3253173828125,53.472503662109375 L665.23828125,54.18202209472656 L665.02978515625,55.26434326171875 L664.66064453125,56.598838806152344 L664.1400146484375,58.0467529296875 L663.55712890625,59.45740509033203 L663.038330078125,60.697509765625 L662.670166015625,61.678768157958984 L662.49755859375,62.32241439819336 L662.519287109375,62.57872772216797 L662.7513427734375,62.40731430053711 L663.24951171875,61.791385650634766 L664.0599365234375,60.75885772705078 L665.17578125,59.41741180419922 L666.54443359375,57.91004180908203 L668.06005859375,56.397911071777344 L669.6287841796875,55.01310729980469 L671.1849365234375,53.86632537841797 L672.656982421875,53.0255126953125 L673.9771728515625,52.54622268676758 L675.0838623046875,52.469303131103516 L675.908447265625,52.81252670288086 L676.41796875,53.578468322753906 L676.6260986328125,54.74155807495117 L676.569580078125,56.19322204589844 L676.344482421875,57.778656005859375 L676.0684814453125,59.34021759033203 L675.8992919921875,60.69025802612305 L675.9676513671875,61.69941711425781 L676.326416015625,62.30458450317383 L676.7791748046875,62.5622673034668 L677.156005859375,62.599769592285156 M686.8775634765625,55.539913177490234 L686.746337890625,55.224853515625 L686.455810546875,54.83937454223633 L685.9384765625,54.550445556640625 L685.1578369140625,54.570865631103516 L684.09033203125,54.94011688232422 L682.8482666015625,55.643001556396484 L681.61474609375,56.58094024658203 L680.5877685546875,57.6422119140625 L679.9462890625,58.699302673339844 L679.78515625,59.6364631652832 L680.101318359375,60.35209274291992 L680.8555908203125,60.77763748168945 L681.9769287109375,60.85991287231445 L683.338134765625,60.571380615234375 L684.8302001953125,59.950233459472656 L686.3084716796875,59.077083587646484 L687.6297607421875,58.05885696411133 L688.6727294921875,57.02619934082031 L689.393310546875,56.1103401184082 L689.79150390625,55.388938903808594 L689.9559326171875,54.92631530761719 L689.9571533203125,54.753395080566406 L689.8726806640625,54.90139389038086 L689.728759765625,55.41337203979492 L689.562744140625,56.341705322265625 L689.3988037109375,57.65549087524414 L689.2587890625,59.29011535644531 L689.1141357421875,61.15285110473633 L688.934326171875,63.14886474609375 L688.6357421875,65.18888854980469 L688.15966796875,67.2162857055664 L687.4425048828125,69.1175537109375 L686.4439697265625,70.787353515625 L685.1434326171875,72.15023040771484 L683.601806640625,73.1522445678711 L681.8951416015625,73.76542663574219 L680.1536865234375,74.01376342773438 L678.487548828125,73.91612243652344 L677.0194091796875,73.47810363769531 L675.8486328125,72.76362609863281 L675.0537109375,71.86851501464844 L674.6209716796875,71.06849670410156 L674.463134765625,70.53602600097656 M713.2977294921875,47.21985626220703 L713.0059814453125,47.727073669433594 L712.5390625,48.7054557800293 L711.9559326171875,50.15132522583008 L711.3641357421875,51.897518157958984 L710.7816162109375,53.8150634765625 L710.212890625,55.788177490234375 L709.6688232421875,57.71654510498047 L709.2021484375,59.51974105834961 L708.876708984375,61.11146926879883 L708.8082275390625,62.41151428222656 L708.9129638671875,63.29084396362305 L709.0802001953125,63.76087951660156 M705.5166015625,57.07366943359375 L705.92431640625,57.152587890625 L706.816650390625,57.23746109008789 L708.23974609375,57.25901412963867 L710.1307373046875,57.079837799072266 L712.294921875,56.63887405395508 L714.5023193359375,55.95329666137695 L716.2578125,55.273338317871094 L717.3389892578125,54.784324645996094 M721.926025390625,47.40107727050781 L721.8875732421875,47.50235366821289 L721.787109375,47.84345245361328 L721.5867919921875,48.54005432128906 L721.2823486328125,49.64845275878906 L720.86376953125,51.11250305175781 L720.3214111328125,52.842018127441406 L719.672607421875,54.71809387207031 L718.96533203125,56.611412048339844 L718.2774658203125,58.36717987060547 L717.71533203125,59.86132049560547 L717.3304443359375,60.96487045288086 L717.150146484375,61.604347229003906 L717.1903076171875,61.746238708496094 L717.4881591796875,61.397193908691406 L718.1114501953125,60.6002197265625 L719.088623046875,59.47788619995117 L720.357666015625,58.17462158203125 L721.7884521484375,56.85454177856445 L723.224853515625,55.65934371948242 L724.5447998046875,54.6995964050293 L725.712158203125,54.042850494384766 L726.715087890625,53.72945022583008 L727.5400390625,53.77145004272461 L728.170166015625,54.17579650878906 L728.595458984375,54.922569274902344 L728.822265625,55.96211242675781 L728.93408203125,57.19157409667969 L729.02099609375,58.47230911254883 L729.18115234375,59.65536117553711 L729.504638671875,60.62607955932617 L730.0643310546875,61.308799743652344 L730.9036865234375,61.64024353027344 L732.0491943359375,61.57258605957031 L733.454833984375,61.089229583740234 L735.026611328125,60.21368408203125 L736.613525390625,59.02391815185547 L738.0428466796875,57.658729553222656 L739.17333984375,56.270416259765625 L739.9140625,55.0078239440918 L740.23486328125,53.986541748046875 L740.1585693359375,53.29093933105469 L739.7225341796875,52.9631233215332 L738.978515625,53.04525375366211 L738.027099609375,53.56967544555664 L736.990478515625,54.51990509033203 L736.0452880859375,55.815673828125 L735.3621826171875,57.317665100097656 L735.0888671875,58.834869384765625 L735.345703125,60.19658660888672 L736.230712890625,61.277610778808594 L737.735595703125,61.996150970458984 L739.85498046875,62.29922866821289 L742.3876953125,62.19939422607422 L745.0325927734375,61.76626205444336 L747.1539306640625,61.25908279418945 L748.4571533203125,60.87000274658203 M761.2607421875,55.85860061645508 L761.1002197265625,56.74505615234375 L760.8184814453125,58.26396179199219 L760.4259033203125,60.303890228271484 L759.9453125,62.542457580566406 L759.3656005859375,64.85417175292969 L758.692626953125,67.11146545410156 L757.9716796875,69.22466278076172 L757.25927734375,71.04437255859375 L756.6414794921875,72.44773864746094 L756.161376953125,73.34492492675781 L755.8663330078125,73.7056884765625 L755.7689208984375,73.52235412597656 L755.8851318359375,72.81399536132812 L756.214111328125,71.61239624023438 L756.7674560546875,69.9872817993164 L757.5179443359375,68.03709411621094 L758.46923828125,65.90946960449219 L759.58935546875,63.73652648925781 L760.8648681640625,61.63848114013672 L762.2801513671875,59.70529556274414 L763.838623046875,58.02122116088867 L765.5054931640625,56.66276550292969 L767.261962890625,55.72106170654297 L769.032958984375,55.246517181396484 L770.7193603515625,55.25680160522461 L772.2216796875,55.72415542602539 L773.42919921875,56.57223129272461 L774.2333984375,57.705299377441406 L774.557861328125,59.02373504638672 L774.3646240234375,60.415428161621094 L773.63427734375,61.772789001464844 L772.437744140625,63.006717681884766 L770.8699951171875,64.0275650024414 L769.0794677734375,64.77682495117188 L767.2210693359375,65.22824096679688 L765.5235595703125,65.34259796142578 L764.1651611328125,65.1275405883789 L763.2847900390625,64.64691162109375 L762.8560791015625,64.12923431396484 L762.7423095703125,63.742923736572266 M778.7286376953125,56.61864471435547 L778.7496337890625,56.90397644042969 L778.7017822265625,57.49285125732422 L778.5126953125,58.419578552246094 L778.1251220703125,59.59273147583008 L777.5615234375,60.88335037231445 L776.893798828125,62.14338302612305 L776.24609375,63.239036560058594 L775.7373046875,64.05562591552734 L775.4571533203125,64.52330017089844 L775.4415283203125,64.58159637451172 L775.6878662109375,64.19620513916016 L776.190673828125,63.39236831665039 L776.9498291015625,62.26386260986328 L777.96484375,60.940086364746094 L779.2142333984375,59.57054138183594 L780.6370849609375,58.26557922363281 L782.152587890625,57.110382080078125 L783.6912841796875,56.17864990234375 L785.172607421875,55.525394439697266 L786.5615234375,55.15973663330078 L787.8131103515625,55.04378128051758 L788.880859375,55.08291244506836 L789.6387939453125,55.16994857788086 L790.0684814453125,55.238792419433594 M796.4925537109375,55.162078857421875 L795.894775390625,55.30083465576172 L794.8643798828125,55.6503791809082 L793.4976806640625,56.280517578125 L792.055908203125,57.18089294433594 L790.7156982421875,58.2977409362793 L789.6353759765625,59.5348014831543 L788.9293212890625,60.805213928222656 L788.6842041015625,62.009010314941406 L788.9459228515625,63.056922912597656 L789.7081298828125,63.841102600097656 L790.930419921875,64.27633666992188 L792.5142822265625,64.29006958007812 L794.3128662109375,63.8663215637207 L796.133544921875,63.020938873291016 L797.811767578125,61.84683609008789 L799.2135009765625,60.455501556396484 L800.239013671875,58.99388122558594 L800.8624267578125,57.60218811035156 L801.09375,56.393760681152344 L800.9903564453125,55.460853576660156 L800.680908203125,54.87195587158203 L800.306396484375,54.61703872680664 L799.998779296875,54.587738037109375 L799.8251953125,54.65770721435547 M809.600341796875,56.254783630371094 L809.3856201171875,56.77059555053711 L809.0396728515625,57.687156677246094 L808.589599609375,58.9731559753418 L808.104736328125,60.46977996826172 L807.623779296875,62.1210823059082 L807.1302490234375,63.84864807128906 L806.63671875,65.58523559570312 L806.1541748046875,67.23299407958984 L805.6597900390625,68.68508911132812 L805.1446533203125,69.85457611083984 L804.6165771484375,70.6827621459961 L804.042724609375,71.14115142822266 L803.4632568359375,71.23743438720703 L802.87744140625,70.98345947265625 L802.3045654296875,70.42322540283203 L801.8438720703125,69.55724334716797 L801.5849609375,68.42708587646484 L801.58154296875,67.12664794921875 L801.7464599609375,66.00504302978516 L801.938720703125,65.25874328613281 M812.4150390625,49.04447937011719 L812.53515625,49.031005859375 L812.733642578125,49.064971923828125 L812.939697265625,49.129417419433594 L813.08251953125,49.207359313964844 M814.6663818359375,59.36878204345703 L815.16455078125,59.20862579345703 L816.01220703125,58.89602279663086 L817.11865234375,58.432769775390625 L818.2427978515625,57.871315002441406 L819.26513671875,57.255985260009766 L820.079833984375,56.616180419921875 L820.65771484375,55.98466491699219 L820.9915771484375,55.395633697509766 L821.0953369140625,54.8851203918457 L820.9617919921875,54.49995422363281 L820.584228515625,54.28787612915039 L819.9537353515625,54.30472183227539 L819.06396484375,54.61220169067383 L817.9398193359375,55.23429489135742 L816.678955078125,56.14873504638672 L815.4095458984375,57.29806900024414 L814.2886962890625,58.5928955078125 L813.488525390625,59.94828414916992 L813.12109375,61.28311538696289 L813.248291015625,62.51930236816406 L813.9217529296875,63.571807861328125 L815.1239013671875,64.36377716064453 L816.7857666015625,64.84955596923828 L818.8780517578125,64.96109771728516 L821.2572021484375,64.68870544433594 L823.7222900390625,64.09288787841797 L825.724853515625,63.44967269897461 L826.978515625,62.96413803100586 M834.37939453125,54.776126861572266 L834.0150146484375,54.73938751220703 L833.358642578125,54.82364273071289 L832.40869140625,55.151039123535156 L831.2476806640625,55.820343017578125 L829.9327392578125,56.807987213134766 L828.5816650390625,58.03810119628906 L827.3736572265625,59.40728759765625 L826.51123046875,60.801513671875 L826.1695556640625,62.10326385498047 L826.4420166015625,63.21509552001953 L827.33154296875,64.05528259277344 L828.8277587890625,64.51689910888672 L830.8179931640625,64.5534439086914 L833.0806884765625,64.1782455444336 L835.0093994140625,63.657039642333984 L836.2615966796875,63.21906661987305 M843.44677734375,49.61245346069336 L843.471435546875,49.67708969116211 L843.4620361328125,49.993289947509766 L843.3741455078125,50.71654510498047 L843.148681640625,51.90789031982422 L842.7838134765625,53.480812072753906 L842.3072509765625,55.29231262207031 L841.7900390625,57.19620895385742 L841.3165283203125,59.083560943603516 L840.967041015625,60.84382629394531 L840.7586669921875,62.358184814453125 L840.6739501953125,63.426368713378906 L840.657470703125,64.00762176513672 M837.570068359375,56.58559799194336 L837.7967529296875,56.50999450683594 L838.3780517578125,56.44807815551758 L839.428466796875,56.453399658203125 L840.9993896484375,56.56986618041992 L842.9869384765625,56.76066589355469 L845.1719970703125,56.97295379638672 L846.994140625,57.13454055786133 L848.1512451171875,57.226016998291016 M863.624267578125,57.605560302734375 L863.6705322265625,57.85848617553711 L863.7113037109375,58.42547607421875 L863.668701171875,59.37657165527344 L863.4476318359375,60.69340896606445 L862.994873046875,62.35194778442383 L862.3314208984375,64.30122375488281 L861.52734375,66.45438385009766 L860.685546875,68.67327117919922 L859.8876953125,70.76319885253906 L859.2027587890625,72.51991271972656 L858.6649169921875,73.8364028930664 L858.3065185546875,74.67224884033203 L858.1163330078125,75.0196533203125 L858.0965576171875,74.89128112792969 L858.25048828125,74.26952362060547 L858.61474609375,73.15419006347656 L859.201904296875,71.63056945800781 L860.0177001953125,69.83573913574219 L861.0191650390625,67.91613006591797 L862.16552734375,66.00215148925781 L863.4150390625,64.17406463623047 L864.7608642578125,62.50823211669922 L866.189697265625,61.07319641113281 L867.6795654296875,59.946380615234375 L869.20654296875,59.2006950378418 L870.732666015625,58.867408752441406 L872.196044921875,58.938751220703125 L873.53173828125,59.38399887084961 L874.6522216796875,60.11920928955078 L875.4638671875,61.058597564697266 L875.900390625,62.123844146728516 L875.9178466796875,63.21928405761719 L875.4930419921875,64.25083923339844 L874.6290283203125,65.12826538085938 L873.348388671875,65.77136993408203 L871.713134765625,66.1237564086914 L869.892333984375,66.19329833984375 L868.12255859375,66.036376953125 L866.781494140625,65.80696868896484 L866.012451171875,65.61991119384766 M880.5430908203125,59.45332336425781 L880.3720703125,59.88804244995117 L880.073974609375,60.66880798339844 L879.6558837890625,61.74277877807617 L879.1708984375,62.89146041870117 L878.6719970703125,63.97007751464844 L878.2373046875,64.84841918945312 L877.9140625,65.44474792480469 L877.7803955078125,65.70392608642578 L877.869873046875,65.58617401123047 L878.1844482421875,65.04889678955078 L878.739501953125,64.12763214111328 L879.5318603515625,62.91775131225586 L880.5321044921875,61.567138671875 L881.712646484375,60.24302291870117 L883.0224609375,59.063228607177734 L884.4083251953125,58.12019348144531 L885.8431396484375,57.46271514892578 L887.31640625,57.110965728759766 L888.80517578125,57.05582809448242 L890.3155517578125,57.283164978027344 L891.79345703125,57.70869445800781 L893.17626953125,58.255794525146484 L894.229248046875,58.736793518066406 L894.8626708984375,59.05072021484375 M900.9239501953125,59.21641540527344 L900.8704833984375,59.0398063659668 L900.7098388671875,58.82121276855469 L900.3455810546875,58.67497253417969 L899.69482421875,58.758174896240234 L898.71435546875,59.15172576904297 L897.4771728515625,59.840030670166016 L896.1495361328125,60.7791633605957 L894.9393310546875,61.89236068725586 L894.0318603515625,63.08783721923828 L893.5701904296875,64.2751235961914 L893.626708984375,65.3578872680664 L894.2083740234375,66.19989013671875 L895.276611328125,66.70635223388672 L896.7291259765625,66.7955093383789 L898.4173583984375,66.44158935546875 L900.1778564453125,65.68297576904297 L901.82958984375,64.6073226928711 L903.2001953125,63.34041213989258 L904.1727294921875,62.03512954711914 L904.6737060546875,60.823272705078125 L904.735595703125,59.82027053833008 L904.4788818359375,59.09221649169922 L904.135986328125,58.65871047973633 L903.872314453125,58.46754455566406 M909.8663330078125,58.45781707763672 L909.6982421875,59.006072998046875 L909.3946533203125,60.01868438720703 L908.948974609375,61.47732162475586 L908.3782958984375,63.20370101928711 L907.6849365234375,65.10379028320312 L906.8638916015625,67.03800964355469 L905.9888916015625,68.87644958496094 L905.1727294921875,70.4542236328125 L904.524169921875,71.64755249023438 L904.1063232421875,72.3561019897461 L903.9437255859375,72.55912780761719 L904.003662109375,72.24407958984375 L904.288818359375,71.4280014038086 L904.8095703125,70.15122985839844 L905.5594482421875,68.5182876586914 L906.516845703125,66.63931274414062 L907.6536865234375,64.66482543945312 L908.9434814453125,62.72738265991211 L910.3695068359375,60.95684814453125 L911.9169921875,59.457462310791016 L913.51611328125,58.3213005065918 L915.075927734375,57.59421920776367 L916.49169921875,57.296878814697266 L917.6822509765625,57.41815948486328 L918.5760498046875,57.921382904052734 L919.142333984375,58.744178771972656 L919.3509521484375,59.79570770263672 L919.216796875,60.961910247802734 L918.758056640625,62.1198844909668 L918.0067138671875,63.17142868041992 L916.9766845703125,64.0394058227539 L915.6861572265625,64.65701293945312 L914.2215576171875,64.98600769042969 L912.7882080078125,65.05850219726562 L911.5670166015625,64.94908142089844 L910.778076171875,64.75526428222656 L910.5205078125,64.5628662109375 L910.7286376953125,64.36707305908203 L911.1243896484375,64.19839477539062 L911.4931640625,64.0798568725586 M930.8392333984375,57.9360466003418 L930.6309814453125,57.747276306152344 L930.2159423828125,57.555458068847656 L929.531005859375,57.4938850402832 L928.58642578125,57.725059509277344 L927.4202880859375,58.27889633178711 L926.152099609375,59.13821792602539 L924.9541015625,60.224971771240234 L924.0284423828125,61.44809341430664 L923.489990234375,62.68341827392578 L923.3870849609375,63.808876037597656 L923.708984375,64.71914672851562 L924.4195556640625,65.31631469726562 L925.4871826171875,65.53634643554688 L926.858154296875,65.33858489990234 L928.436279296875,64.72393798828125 L930.0516357421875,63.75346755981445 L931.5186767578125,62.545806884765625 L932.686767578125,61.2347297668457 L933.4603271484375,59.952880859375 L933.7987060546875,58.79790115356445 L933.769775390625,57.8504638671875 L933.47119140625,57.16197967529297 L933.1175537109375,56.751747131347656 L932.859619140625,56.572696685791016 M943.302978515625,56.737937927246094 L943.0413818359375,56.62769317626953 L942.5323486328125,56.556297302246094 L941.755859375,56.629615783691406 L940.8184814453125,56.94146728515625 L939.8602294921875,57.484371185302734 L939.06396484375,58.239810943603516 L938.591552734375,59.16410446166992 L938.5833740234375,60.2141227722168 L939.0401611328125,61.34657287597656 L939.875732421875,62.48873519897461 L940.906005859375,63.569847106933594 L941.91162109375,64.55223846435547 L942.7022705078125,65.39917755126953 L943.16064453125,66.08080291748047 L943.199462890625,66.5938720703125 L942.8060302734375,66.91780090332031 L941.9892578125,67.04498291015625 L940.81396484375,66.99907684326172 L939.41064453125,66.81378936767578 L937.9720458984375,66.49400329589844 L936.7041015625,66.06900024414062 L935.794677734375,65.55934143066406 L935.29052734375,65.10376739501953 L935.1065673828125,64.79364013671875 M953.9703369140625,58.509822845458984 L953.8212890625,58.304893493652344 L953.516357421875,58.04603958129883 L953.008056640625,57.85077667236328 L952.289794921875,57.896148681640625 L951.35595703125,58.258544921875 L950.2646484375,58.938785552978516 L949.1429443359375,59.867515563964844 L948.1622314453125,60.94476318359375 L947.4866943359375,62.03643035888672 L947.2257080078125,63.03937530517578 L947.407470703125,63.854347229003906 L947.9984130859375,64.39939880371094 L948.937255859375,64.60269927978516 L950.14306640625,64.43910217285156 L951.52294921875,63.90888977050781 L952.9735107421875,63.07780838012695 L954.37646484375,62.03111267089844 L955.629638671875,60.88667297363281 L956.65771484375,59.7549934387207 L957.411865234375,58.76842498779297 L957.8790283203125,57.99383544921875 L958.10107421875,57.4859504699707 L958.1162109375,57.265995025634766 L957.957275390625,57.36138916015625 L957.653564453125,57.79193115234375 L957.224853515625,58.58291244506836 L956.7294921875,59.65660095214844 L956.2877197265625,60.906620025634766 L956.0262451171875,62.1810417175293 L956.039306640625,63.33699035644531 L956.3988037109375,64.24691009521484 L957.1334228515625,64.82096099853516 L958.25,64.96590423583984 L959.7388916015625,64.63534545898438 L961.565185546875,63.81131362915039 L963.63671875,62.532005310058594 L965.8355712890625,60.86880874633789 L968.0281982421875,58.912410736083984 L970.088134765625,56.76637268066406 L971.910888671875,54.54376983642578 L973.410888671875,52.35346603393555 L974.50390625,50.3216667175293 L975.130615234375,48.56812286376953 L975.2569580078125,47.18048858642578 L974.8983154296875,46.238494873046875 L974.1104736328125,45.79969787597656 L972.9693603515625,45.887062072753906 L971.564208984375,46.51020431518555 L970.0067138671875,47.64210891723633 L968.4285888671875,49.21212387084961 L966.9725341796875,51.13819885253906 L965.7581787109375,53.30509567260742 L964.87939453125,55.58176040649414 L964.3970947265625,57.83475112915039 L964.3089599609375,59.9349250793457 L964.7342529296875,61.76823425292969 L965.7218017578125,63.24797058105469 L967.21923828125,64.31021881103516 L968.7001953125,64.93838500976562 L969.78271484375,65.21552276611328 M975.59130859375,62.55973815917969 L975.6077880859375,62.54136276245117 L975.6326904296875,62.516361236572266 L975.6568603515625,62.49296569824219 L975.6715087890625,62.479393005371094 M978.011474609375,50.189064025878906 L978.1053466796875,50.32225799560547 L978.21923828125,50.61430358886719 L978.2830810546875,51.08658218383789 L978.202392578125,51.690067291259766 L977.94482421875,52.36549758911133 L977.568603515625,53.05849838256836 L977.168212890625,53.720035552978516 L976.850830078125,54.325828552246094 L976.6993408203125,54.82357406616211 L976.7850341796875,55.14262008666992 L977.1649169921875,55.20753479003906 L977.9169921875,54.978092193603516 L979.0679931640625,54.45433044433594 L980.609375,53.73453140258789 L982.4393310546875,52.9432487487793 L984.4228515625,52.24327850341797 L986.380859375,51.752906799316406 L988.12890625,51.553192138671875 L989.5028076171875,51.6673469543457 L990.3890380859375,52.121063232421875 L990.7276611328125,52.93347930908203 L990.53857421875,54.11830520629883 L989.9150390625,55.643009185791016 L989.010498046875,57.41893005371094 L988.0238037109375,59.30033874511719 L987.1619873046875,61.14677429199219 L986.5958251953125,62.849037170410156 L986.4373779296875,64.31221771240234 L986.7435302734375,65.4877700805664 L987.53076171875,66.34147644042969 L988.770263671875,66.86163330078125 L990.4700927734375,67.00570678710938 L992.63134765625,66.70944213867188 L994.622314453125,66.21714782714844 L996.0364990234375,65.75228118896484 " fill="none" stroke="black" stroke-linecap="round" stroke-width="2" /></svg>