<?xml version="1.0" encoding="utf-8" ?>
<svg baseProfile="full" height="100%" version="1.1" viewBox="0,0,1000,120" width="100%" xmlns="http://www.w3.org/2000/svg" xmlns:ev="http://www.w3.org/2001/xml-events" xmlns:xlink="http://www.w3.org/1999/xlink"><defs /><rect fill="white" height="120" width="1000" x="0" y="0" /><path d="M0,0 M441.2452392578125,51.24705505371094 L441.2486572265625,51.84776306152344 L441.26678466796875,53.01508331298828 L441.2745361328125,54.73171615600586 L441.24169921875,56.778743743896484 L441.1404724121094,58.98344802856445 L440.96942138671875,61.18038558959961 L440.7527160644531,63.25069808959961 L440.553466796875,65.0844497680664 L440.4005126953125,66.5574722290039 L440.321044921875,67.5915298461914 L440.3028259277344,68.17975616455078 L440.31414794921875,68.42262268066406 M437.573486328125,49.835716247558594 L437.92864990234375,49.50235366821289 L438.6987609863281,49.066322326660156 L439.9703674316406,48.68714904785156 L441.71783447265625,48.57483673095703 L443.8821716308594,48.78647232055664 L446.3511962890625,49.339908599853516 L448.9676818847656,50.20976257324219 L451.5544738769531,51.382110595703125 L453.927490234375,52.82228088378906 L455.9170227050781,54.46714782714844 L457.3895568847656,56.25197219848633 L458.26092529296875,58.114173889160156 L458.4575500488281,59.98145294189453 L457.96160888671875,61.78249740600586 L456.8169250488281,63.45169448852539 L455.10003662109375,64.91414642333984 L452.94049072265625,66.116455078125 L450.5006103515625,67.01984405517578 L447.91839599609375,67.58480834960938 L445.3352355957031,67.80236053466797 L442.9029235839844,67.70984649658203 L440.7487487792969,67.37126922607422 L438.9729919433594,66.88562774658203 L437.7215576171875,66.300048828125 L437.07147216796875,65.63848876953125 L437.0217590332031,64.92215728759766 L437.30438232421875,64.3135757446289 L437.64801025390625,63.90736389160156 M459.1544189453125,64.09556579589844 L459.56243896484375,64.08190155029297 L460.3427734375,63.94443130493164 L461.50421142578125,63.591033935546875 L462.92706298828125,62.969879150390625 L464.5164794921875,62.121150970458984 L466.0976257324219,61.126258850097656 L467.4853515625,60.08513259887695 L468.5458068847656,59.07805633544922 L469.1749267578125,58.15829849243164 L469.336181640625,57.37179183959961 L469.0228576660156,56.778846740722656 L468.2193603515625,56.45939254760742 L466.95941162109375,56.51521301269531 L465.34185791015625,57.01536178588867 L463.52313232421875,57.95637130737305 L461.7281494140625,59.261043548583984 L460.17401123046875,60.7982292175293 L459.0342102050781,62.427337646484375 L458.4443359375,64.03553771972656 L458.4471130371094,65.51901245117188 L459.0479431152344,66.77883911132812 L460.2237548828125,67.72990417480469 L461.8829040527344,68.31718444824219 L463.9862060546875,68.48677062988281 L466.40240478515625,68.26248168945312 L468.92559814453125,67.72517395019531 L470.98077392578125,67.1441879272461 L472.2776794433594,66.71226501464844 M480.1658935546875,59.04535675048828 L479.9066162109375,58.93772506713867 L479.43896484375,58.913352966308594 L478.7320861816406,59.1273193359375 L477.8307800292969,59.72833251953125 L476.7861328125,60.72562789916992 L475.692626953125,62.02438735961914 L474.7115478515625,63.45660400390625 L474.01318359375,64.86448669433594 L473.7010192871094,66.09809112548828 L473.8284912109375,67.04934692382812 L474.40130615234375,67.63909912109375 L475.35919189453125,67.80206298828125 L476.6334228515625,67.49088287353516 L478.1077880859375,66.70854187011719 L479.63995361328125,65.52020263671875 L481.0726318359375,64.0615463256836 L482.27032470703125,62.512413024902344 L483.14923095703125,61.07176971435547 L483.7126770019531,59.88646697998047 L484.011474609375,59.02848434448242 L484.1266784667969,58.52202224731445 L484.12152099609375,58.38778305053711 L484.05340576171875,58.65614318847656 L483.9756164550781,59.383243560791016 L483.93780517578125,60.5495719909668 L483.99591064453125,62.02476501464844 L484.2054138183594,63.609371185302734 L484.59014892578125,65.10548400878906 L485.1680908203125,66.35963439941406 L485.9303283691406,67.29961395263672 L486.8342590332031,67.8779067993164 L487.83935546875,68.04747009277344 L488.8899841308594,67.7677001953125 L489.9314880371094,67.04226684570312 L490.9160461425781,65.94287109375 L491.801513671875,64.61022186279297 L492.56085205078125,63.217674255371094 L493.172607421875,61.9237174987793 L493.6326599121094,60.83796691894531 L493.9474792480469,60.004268646240234 L494.11968994140625,59.426849365234375 L494.1871337890625,59.111595153808594 L494.1898193359375,59.08643341064453 L494.14019775390625,59.4096565246582 L494.0655822753906,60.12741470336914 L493.9587097167969,61.19573211669922 L493.81219482421875,62.48262023925781 L493.6695556640625,63.803714752197266 L493.5535888671875,64.96540069580078 L493.48602294921875,65.85557556152344 L493.4830017089844,66.44379425048828 L493.51422119140625,66.72071075439453 L493.5287780761719,66.68314361572266 L493.50823974609375,66.30647277832031 L493.4208984375,65.56787109375 L493.29571533203125,64.53316497802734 L493.1964111328125,63.32421112060547 L493.1960144042969,62.06401824951172 L493.359130859375,60.84992980957031 L493.75762939453125,59.72315216064453 L494.4466552734375,58.70320510864258 L495.4818115234375,57.83678436279297 L496.892578125,57.160831451416016 L498.646484375,56.69703674316406 L500.6376953125,56.44231033325195 L502.710693359375,56.369686126708984 L504.71728515625,56.43479919433594 L506.5557556152344,56.611629486083984 L508.15771484375,56.8659782409668 L509.48846435546875,57.16312026977539 L510.4183044433594,57.41926574707031 L510.9324951171875,57.58928680419922 M532.931396484375,47.84010314941406 L533.1690063476562,47.695472717285156 L533.6416015625,47.4455680847168 L534.3894653320312,47.113677978515625 L535.3950805664062,46.75168228149414 L536.65087890625,46.38792419433594 L538.093017578125,46.03392028808594 L539.6347045898438,45.700714111328125 L541.1798095703125,45.412994384765625 L542.6295166015625,45.18914794921875 L543.923583984375,45.0447998046875 L545.0093383789062,45.0 L545.8441162109375,45.07050323486328 L546.4104614257812,45.27661895751953 L546.74853515625,45.647239685058594 L546.9011840820312,46.204715728759766 L546.93603515625,46.9808349609375 L546.880859375,47.99333953857422 L546.7618408203125,49.23918151855469 L546.5701293945312,50.68526077270508 L546.3233032226562,52.281707763671875 L546.0394287109375,53.97552490234375 L545.74365234375,55.722137451171875 L545.4390258789062,57.477725982666016 L545.1328125,59.200382232666016 L544.7889404296875,60.84705352783203 L544.3777465820312,62.37425994873047 L543.8847045898438,63.75528335571289 L543.303466796875,64.96650695800781 L542.6240234375,65.98663330078125 L541.826904296875,66.79358673095703 L540.8795166015625,67.37997436523438 L539.7523193359375,67.73777770996094 L538.4638671875,67.8826904296875 L537.0687255859375,67.83174133300781 L535.64306640625,67.60348510742188 L534.2764282226562,67.20553588867188 L533.0734252929688,66.68997955322266 L532.1058349609375,66.1241455078125 L531.4691772460938,65.65985870361328 L531.1480712890625,65.37370300292969 M556.2014770507812,60.338314056396484 L555.924560546875,60.05028533935547 L555.3720703125,59.6995849609375 L554.5203857421875,59.46036911010742 L553.4343872070312,59.54641342163086 L552.18359375,60.012428283691406 L550.8832397460938,60.85824203491211 L549.6646118164062,61.999534606933594 L548.6937255859375,63.34638214111328 L548.1040649414062,64.77220153808594 L547.992919921875,66.1348648071289 L548.3698120117188,67.29098510742188 L549.192138671875,68.13116455078125 L550.372314453125,68.5576171875 L551.8336791992188,68.54291534423828 L553.4551391601562,68.08686828613281 L555.1209716796875,67.24979400634766 L556.6686401367188,66.12483215332031 L557.9422607421875,64.82313537597656 L558.8189086914062,63.45477294921875 L559.2599487304688,62.15445327758789 L559.2657470703125,61.021358489990234 L558.9230346679688,60.15077209472656 L558.3468017578125,59.6009635925293 L557.6936645507812,59.35682678222656 L557.1312255859375,59.34774398803711 L556.784912109375,59.47126770019531 L556.6442260742188,59.60527038574219 L556.6423950195312,59.6903076171875 M566.3411865234375,47.541412353515625 L566.436279296875,47.654136657714844 L566.5977783203125,48.0300178527832 L566.7977905273438,48.804298400878906 L566.9610595703125,50.02068328857422 L567.0353393554688,51.628028869628906 L566.98046875,53.53364562988281 L566.7881469726562,55.62611389160156 L566.508544921875,57.7987174987793 L566.1989135742188,59.93980026245117 L565.9217529296875,61.898216247558594 L565.7380981445312,63.54920196533203 L565.66162109375,64.8056640625 L565.6666259765625,65.6214599609375 L565.7442016601562,65.9749526977539 L565.88671875,65.84611511230469 L566.1475830078125,65.20987701416016 L566.6015625,64.11520385742188 L567.2969970703125,62.700382232666016 L568.2276611328125,61.164039611816406 L569.3508911132812,59.698020935058594 L570.608154296875,58.42647171020508 L571.9620971679688,57.42001724243164 L573.3658447265625,56.73460388183594 L574.765625,56.41993713378906 L576.0734252929688,56.514034271240234 L577.2028198242188,57.035125732421875 L578.090576171875,57.944793701171875 L578.720947265625,59.18259048461914 L579.1051635742188,60.653709411621094 L579.2935791015625,62.22798538208008 L579.3384399414062,63.761802673339844 L579.3292846679688,65.0936050415039 L579.3405151367188,66.0757064819336 L579.43017578125,66.63825225830078 L579.55615234375,66.85411071777344 L579.671630859375,66.86448669433594 M584.65869140625,57.34526824951172 L584.7051391601562,57.47376251220703 L584.7763671875,57.8385124206543 L584.8591918945312,58.535606384277344 L584.9036865234375,59.560977935791016 L584.8823852539062,60.82321548461914 L584.7830810546875,62.17724609375 L584.6351928710938,63.470375061035156 L584.487060546875,64.55616760253906 L584.39404296875,65.35330200195312 L584.3558349609375,65.80847930908203 L584.364013671875,65.90708923339844 L584.4053955078125,65.63261413574219 L584.507080078125,64.9704818725586 L584.71240234375,63.931087493896484 L585.0680541992188,62.60325241088867 L585.5950927734375,61.12287139892578 L586.3047485351562,59.6311149597168 L587.1905517578125,58.247615814208984 L588.261962890625,57.05328369140625 L589.4952392578125,56.12106704711914 L590.817626953125,55.50322723388672 L592.1403198242188,55.23978042602539 L593.36669921875,55.33061981201172 L594.4215698242188,55.77328109741211 L595.2830810546875,56.544612884521484 L595.9637451171875,57.619781494140625 L596.4645385742188,58.91221618652344 L596.8115234375,60.31498336791992 L597.0438232421875,61.69380187988281 L597.2003784179688,62.94038391113281 L597.3280639648438,63.97925567626953 L597.4852294921875,64.77554321289062 L597.6754150390625,65.30347442626953 L597.888916015625,65.57708740234375 L598.0748291015625,65.6661148071289 L598.1936645507812,65.65769958496094 M605.94091796875,64.42538452148438 L605.9625244140625,64.48137664794922 L605.9534912109375,64.71568298339844 L605.8406372070312,65.24927520751953 L605.5419311523438,66.15682983398438 L605.0087280273438,67.40037536621094 L604.2520751953125,68.86945343017578 L603.3468017578125,70.40546417236328 L602.3621826171875,71.83106994628906 L601.3193359375,73.01385498046875 L600.45263671875,73.81521606445312 L599.8748168945312,74.23258209228516 " fill="none" stroke="black" stroke-linecap="round" stroke-width="2" /></svg>