<?xml version="1.0" encoding="utf-8" ?>
<svg baseProfile="full" height="100%" version="1.1" viewBox="0,0,1000,240" width="100%" xmlns="http://www.w3.org/2000/svg" xmlns:ev="http://www.w3.org/2001/xml-events" xmlns:xlink="http://www.w3.org/1999/xlink"><defs /><rect fill="white" height="240" width="1000" x="0" y="0" /><path d="M0,0 M450.45111083984375,52.0531120300293 L450.45037841796875,52.148006439208984 L450.4686279296875,52.51457977294922 L450.482177734375,53.31639862060547 L450.46978759765625,54.632057189941406 L450.43878173828125,56.412200927734375 L450.4158630371094,58.4954833984375 L450.3742370605469,60.700416564941406 L450.35723876953125,62.84303283691406 L450.33135986328125,64.73889923095703 L450.28997802734375,66.22752380371094 L450.2946472167969,67.26750183105469 L450.376708984375,67.8537368774414 L450.4794616699219,68.02534484863281 L450.57562255859375,67.82532501220703 L450.5671691894531,67.21217346191406 L450.4409484863281,66.11649322509766 L450.2735290527344,64.5873794555664 L450.17132568359375,62.70054244995117 L450.226318359375,60.56758117675781 L450.5051574707031,58.35190963745117 L450.9505310058594,56.157745361328125 L451.5515441894531,54.076507568359375 L452.2837829589844,52.22122573852539 L453.1759948730469,50.68583297729492 L454.28021240234375,49.531925201416016 L455.63494873046875,48.83595275878906 L457.1726379394531,48.62354278564453 L458.8476257324219,48.916587829589844 L460.5694274902344,49.70218276977539 L462.26397705078125,50.937625885009766 L463.8995056152344,52.534358978271484 L465.44903564453125,54.375885009765625 L466.885498046875,56.317081451416016 L468.1533508300781,58.232208251953125 L469.1936340332031,60.01411056518555 L469.8959655761719,61.600341796875 L470.18206787109375,62.96757888793945 L469.97369384765625,64.09325408935547 L469.24456787109375,64.96221160888672 L467.94952392578125,65.5712890625 L466.1231689453125,65.91793060302734 L463.8387451171875,66.04105377197266 L461.2734680175781,65.9975357055664 L458.58837890625,65.78244018554688 L455.9950256347656,65.3944320678711 L453.66119384765625,64.84309387207031 L451.944091796875,64.29960632324219 L450.9493713378906,63.90407180786133 M470.098388671875,64.2339096069336 L470.15521240234375,64.2952651977539 L470.45281982421875,64.30389404296875 L471.13433837890625,64.14642333984375 L472.28790283203125,63.71842956542969 L473.8388671875,62.97565841674805 L475.617919921875,61.961002349853516 L477.3922424316406,60.783470153808594 L478.98724365234375,59.57294845581055 L480.2270812988281,58.447566986083984 L481.02362060546875,57.49873352050781 L481.2882080078125,56.75885009765625 L480.98345947265625,56.27206802368164 L480.1268615722656,56.09702682495117 L478.7751770019531,56.289588928222656 L477.0216979980469,56.880035400390625 L475.051513671875,57.83378982543945 L473.09490966796875,59.064048767089844 L471.3984375,60.4582633972168 L470.2143859863281,61.89915084838867 L469.6995849609375,63.300331115722656 L469.90545654296875,64.56725311279297 L470.83416748046875,65.58861541748047 L472.42230224609375,66.27516174316406 L474.57928466796875,66.53413391113281 L477.1260070800781,66.3666000366211 L479.7890319824219,65.89208221435547 L481.9306335449219,65.37596893310547 L483.2537536621094,65.00154113769531 M488.8359375,59.17823028564453 L488.780517578125,58.773292541503906 L488.72418212890625,58.1668815612793 L488.69818115234375,57.47955322265625 L488.74957275390625,56.899845123291016 L488.86163330078125,56.45226287841797 L489.046142578125,56.15874481201172 L489.2838134765625,56.04547119140625 L489.5906677246094,56.16370391845703 L489.9645690917969,56.55792236328125 L490.409912109375,57.237083435058594 L490.893310546875,58.1511116027832 L491.3868713378906,59.23941421508789 L491.83575439453125,60.44343948364258 L492.2024230957031,61.68992233276367 L492.4546203613281,62.88978958129883 L492.61444091796875,63.95321273803711 L492.6804504394531,64.78563690185547 L492.67596435546875,65.33488464355469 L492.55389404296875,65.5736083984375 L492.2436828613281,65.49992370605469 L491.6392517089844,65.15044403076172 L490.71429443359375,64.59125518798828 L489.5140075683594,63.932716369628906 L488.2181396484375,63.32261276245117 L486.9810791015625,62.85808563232422 L485.9710693359375,62.599220275878906 L485.2111511230469,62.5819091796875 L484.6732177734375,62.78777313232422 L484.35919189453125,63.203941345214844 L484.290283203125,63.80561828613281 L484.4986877441406,64.49653625488281 L485.0798645019531,65.16392517089844 L486.03826904296875,65.67271423339844 L487.3387756347656,65.90442657470703 L488.9449462890625,65.8138656616211 L490.8375244140625,65.33829498291016 L492.9120178222656,64.46820831298828 L495.050537109375,63.271339416503906 L496.779541015625,62.1356201171875 L497.8568420410156,61.33089828491211 M498.4945983886719,55.459861755371094 L498.6328125,55.571685791015625 L498.8253173828125,55.93027114868164 L499.02783203125,56.644256591796875 L499.15057373046875,57.7350959777832 L499.19927978515625,59.133338928222656 L499.2039489746094,60.65544891357422 L499.20733642578125,62.10341262817383 L499.2627868652344,63.31365966796875 L499.3980712890625,64.18396759033203 L499.56512451171875,64.68101501464844 L499.69915771484375,64.81807708740234 L499.765869140625,64.57645416259766 L499.75408935546875,63.91746520996094 L499.7183532714844,62.844871520996094 L499.7381896972656,61.45432662963867 L499.85748291015625,59.90497970581055 L500.09918212890625,58.360713958740234 L500.5346984863281,56.9537353515625 L501.18804931640625,55.72946548461914 L502.1319580078125,54.744056701660156 L503.35687255859375,54.05724334716797 L504.7479248046875,53.69472885131836 L505.9283142089844,53.57819366455078 L506.7008056640625,53.60279846191406 M522.1414184570312,46.561119079589844 L522.2565307617188,46.58260726928711 L522.5589599609375,46.66072082519531 L523.1937866210938,46.79301452636719 L524.2349243164062,46.93230438232422 L525.7015380859375,47.002201080322266 L527.47265625,46.922786712646484 L529.3941650390625,46.6810417175293 L531.284912109375,46.33110809326172 L533.068603515625,45.94708251953125 L534.6289672851562,45.594905853271484 L535.8880615234375,45.32102966308594 L536.7853393554688,45.11894607543945 L537.3258056640625,45.0 L537.5686645507812,45.00621032714844 L537.6512451171875,45.21592712402344 L537.6561279296875,45.73561096191406 L537.6624755859375,46.63471984863281 L537.772216796875,47.90081024169922 L538.0699462890625,49.43939208984375 L538.607421875,51.131797790527344 L539.3787841796875,52.864830017089844 L540.2952270507812,54.598270416259766 L541.2164306640625,56.311302185058594 L542.0323486328125,58.012691497802734 L542.614013671875,59.658634185791016 L542.8676147460938,61.21284103393555 L542.72265625,62.637168884277344 L542.1517333984375,63.94628143310547 L541.163330078125,65.15620422363281 L539.8372802734375,66.29986572265625 L538.2796020507812,67.33956909179688 L536.6025390625,68.16488647460938 L534.9207153320312,68.6672592163086 L533.3308715820312,68.79066467285156 L531.868896484375,68.54315185546875 L530.54150390625,67.9941177368164 L529.3848266601562,67.2781982421875 L528.3753051757812,66.48094177246094 L527.63720703125,65.81964111328125 L527.21142578125,65.40116882324219 M550.099853515625,57.55105972290039 L549.9859619140625,57.416908264160156 L549.81396484375,57.242149353027344 L549.5302124023438,57.14128112792969 L549.1370849609375,57.30641555786133 L548.55126953125,57.869041442871094 L547.8199462890625,58.91276550292969 L547.0908203125,60.358978271484375 L546.6116333007812,62.00353240966797 L546.5763549804688,63.57465744018555 L547.1940307617188,64.82088470458984 L548.4483032226562,65.56908416748047 L550.247802734375,65.74872589111328 L552.3865356445312,65.3504409790039 L554.6301879882812,64.47025299072266 L556.711669921875,63.23091125488281 L558.4214477539062,61.803585052490234 L559.5145874023438,60.38997268676758 L559.8572387695312,59.14353942871094 L559.40087890625,58.141910552978516 L558.2880859375,57.47207260131836 L556.7360229492188,57.1327018737793 L555.016357421875,57.101593017578125 L553.3310546875,57.32563400268555 L551.8997802734375,57.70431137084961 L550.8365478515625,58.10469055175781 L550.2405395507812,58.46003341674805 L550.0191650390625,58.69926834106445 L550.0209350585938,58.822513580322266 M561.5418090820312,45.14435958862305 L561.5496215820312,45.09880065917969 L561.6202392578125,45.21405792236328 L561.793212890625,45.69908142089844 L562.0480346679688,46.732139587402344 L562.31103515625,48.310935974121094 L562.5072021484375,50.31660842895508 L562.62744140625,52.588478088378906 L562.6943359375,54.935951232910156 L562.77490234375,57.202972412109375 L562.8927001953125,59.2449836730957 L563.0460815429688,60.917076110839844 L563.2032470703125,62.099849700927734 L563.361572265625,62.81358337402344 L563.4850463867188,63.120384216308594 L563.5677490234375,63.099124908447266 L563.62451171875,62.78514099121094 L563.7225952148438,62.17137908935547 L563.963623046875,61.22357177734375 L564.5177001953125,60.03318786621094 L565.457275390625,58.71723175048828 L566.7975463867188,57.43266296386719 L568.4517822265625,56.32225036621094 L570.2568969726562,55.52248001098633 L571.9945068359375,55.139625549316406 L573.5303344726562,55.264183044433594 L574.7078247070312,55.892234802246094 L575.4959716796875,56.98625183105469 L575.9057006835938,58.43246078491211 L576.026123046875,60.09517288208008 L575.968017578125,61.803070068359375 L575.9102783203125,63.3597412109375 L575.9056396484375,64.57797241210938 L575.9891967773438,65.38578796386719 L576.0777587890625,65.78884887695312 L576.1299438476562,65.91761016845703 L576.1288452148438,65.9163818359375 M580.4442749023438,57.63585662841797 L580.5331420898438,57.64842224121094 L580.6757202148438,57.79972839355469 L580.8477172851562,58.224796295166016 L580.9291381835938,59.00715255737305 L580.8494262695312,60.11209487915039 L580.6124877929688,61.40711975097656 L580.2549438476562,62.739540100097656 L579.8555908203125,63.92313766479492 L579.5240478515625,64.88461303710938 L579.2919921875,65.57743835449219 L579.1890258789062,65.9338607788086 L579.2159423828125,65.86750793457031 L579.3563232421875,65.28058624267578 L579.6246337890625,64.09637451171875 L580.0460205078125,62.464683532714844 L580.7001953125,60.69256591796875 L581.6087646484375,59.09209442138672 L582.805419921875,57.89620590209961 L584.2371215820312,57.173683166503906 L585.801513671875,56.898468017578125 L587.31787109375,57.01885223388672 L588.6351318359375,57.54422378540039 L589.605224609375,58.43431854248047 L590.1838989257812,59.6993293762207 L590.375,61.25606918334961 L590.2786865234375,62.98527145385742 L590.071044921875,64.43415069580078 L589.8883056640625,65.37503051757812 M598.0087280273438,67.04020690917969 L597.9376220703125,67.28350830078125 L597.7591552734375,67.84061431884766 L597.425537109375,68.78583526611328 L596.9237060546875,70.09759521484375 L596.3308715820312,71.64319610595703 L595.73583984375,73.25669860839844 L595.2753295898438,74.55001068115234 L595.0184936523438,75.34222412109375 " fill="none" stroke="black" stroke-linecap="round" stroke-width="2" /><path d="M0,0 M245.79061889648438,114.83556365966797 L245.66796875,114.97779083251953 L245.49288940429688,115.43101501464844 L245.3004150390625,116.37359619140625 L245.13961791992188,117.85689544677734 L244.98080444335938,119.78988647460938 L244.81045532226562,121.99378967285156 L244.60873413085938,124.2889633178711 L244.3857421875,126.50706481933594 L244.19937133789062,128.5736846923828 L244.12420654296875,130.38571166992188 L244.16729736328125,131.87542724609375 L244.29437255859375,132.85723876953125 L244.4453582763672,133.20558166503906 L244.5638885498047,132.86277770996094 L244.63140869140625,132.2125244140625 L244.66928100585938,131.59503173828125 M237.39244079589844,112.7870864868164 L237.57614135742188,112.75569152832031 L238.28338623046875,112.65576171875 L239.71707153320312,112.46072387695312 L241.86233520507812,112.18820190429688 L244.40811157226562,111.89773559570312 L247.06686401367188,111.64714813232422 L249.67868041992188,111.48981475830078 L252.18435668945312,111.37537384033203 L254.5230712890625,111.22021484375 L256.586181640625,110.95118713378906 L258.058349609375,110.64846801757812 L258.876953125,110.39842987060547 M259.9163513183594,111.47935485839844 L259.8873291015625,112.1755142211914 L259.9006042480469,113.39103698730469 L259.9763488769531,115.06404876708984 L260.0726318359375,116.95816802978516 L260.128662109375,118.99429321289062 L260.1085510253906,121.09514617919922 L260.00506591796875,123.17723083496094 L259.9023132324219,125.09397888183594 L259.89703369140625,126.70960998535156 L259.94635009765625,127.90447998046875 L260.0447998046875,128.65689086914062 L260.185302734375,128.97763061523438 L260.3632507324219,128.88668823242188 L260.6552734375,128.39524841308594 L261.19488525390625,127.5253677368164 L261.9559020996094,126.32611083984375 L262.96649169921875,124.94050598144531 L264.1749267578125,123.49957275390625 L265.52911376953125,122.16307067871094 L266.9880065917969,121.06660461425781 L268.5303955078125,120.28826904296875 L270.0528259277344,119.87460327148438 L271.49285888671875,119.8697280883789 L272.7412109375,120.28350830078125 L273.7330322265625,121.1436538696289 L274.42901611328125,122.44829559326172 L274.86328125,124.10270690917969 L275.0934753417969,125.93153381347656 L275.20318603515625,127.68293762207031 L275.26141357421875,129.13809204101562 L275.2980651855469,130.10153198242188 L275.31756591796875,130.5858154296875 M285.8997802734375,122.20897674560547 L285.89471435546875,121.97047424316406 L285.786865234375,121.5674057006836 L285.483642578125,121.1191177368164 L284.849365234375,120.85157012939453 L283.849853515625,120.98491668701172 L282.5669860839844,121.66409301757812 L281.2075500488281,122.8566665649414 L280.003662109375,124.38434600830078 L279.2109375,126.01543426513672 L278.93206787109375,127.50970458984375 L279.159423828125,128.70687866210938 L279.8466796875,129.51104736328125 L280.87274169921875,129.84295654296875 L282.1031188964844,129.66871643066406 L283.44085693359375,129.01840209960938 L284.7731018066406,127.97574615478516 L285.92803955078125,126.65587615966797 L286.838134765625,125.19435119628906 L287.4631042480469,123.712158203125 L287.83935546875,122.34437561035156 L288.0933837890625,121.22483825683594 L288.3066711425781,120.4614028930664 L288.50811767578125,120.1377182006836 L288.7066650390625,120.30477142333984 L288.9121398925781,120.9668960571289 L289.1392822265625,122.10115814208984 L289.45941162109375,123.58660125732422 L289.8817138671875,125.23588562011719 L290.4097595214844,126.83010864257812 L290.96112060546875,128.1785430908203 L291.40545654296875,129.08892822265625 L291.669921875,129.56849670410156 M297.5989990234375,119.52364349365234 L297.60089111328125,119.60916900634766 L297.67059326171875,119.99760437011719 L297.8253479003906,120.8300552368164 L298.0713195800781,122.08499908447266 L298.3739013671875,123.56954956054688 L298.6593017578125,125.04818725585938 L298.8221435546875,126.35928344726562 L298.9172668457031,127.4234848022461 L298.9631652832031,128.20887756347656 L299.044189453125,128.6343994140625 L299.2163391113281,128.64564514160156 L299.5079345703125,128.19656372070312 L299.8763122558594,127.30938720703125 L300.3539733886719,126.05872344970703 L300.90185546875,124.57057189941406 L301.5732116699219,122.97100067138672 L302.39202880859375,121.44671630859375 L303.43389892578125,120.16171264648438 L304.6686096191406,119.24866485595703 L306.0393371582031,118.78936767578125 L307.4185791015625,118.80039978027344 L308.7210388183594,119.2616195678711 L309.84869384765625,120.16940307617188 L310.8002014160156,121.4610366821289 L311.49835205078125,122.99435424804688 L311.92413330078125,124.56614685058594 L312.1719665527344,125.97126770019531 L312.33673095703125,127.005615234375 L312.523193359375,127.59564208984375 L312.7881774902344,127.73866271972656 L313.0337219238281,127.61956787109375 L313.18487548828125,127.4249267578125 M319.0421142578125,112.24637603759766 L319.1158142089844,112.19647979736328 L319.23931884765625,112.22650146484375 L319.43780517578125,112.48165130615234 L319.677001953125,113.10352325439453 L319.9232177734375,114.18053436279297 L320.14862060546875,115.68878936767578 L320.30877685546875,117.5263900756836 L320.3865661621094,119.5230712890625 L320.46087646484375,121.52531433105469 L320.5949401855469,123.39004516601562 L320.8294677734375,125.05091094970703 L321.19146728515625,126.43326568603516 L321.6378173828125,127.51798248291016 L322.1029968261719,128.27943420410156 L322.4794921875,128.72816467285156 L322.71759033203125,128.92921447753906 M327.5313415527344,121.77849578857422 L327.53533935546875,121.6263656616211 L327.4156799316406,121.44092559814453 L327.043212890625,121.32130432128906 L326.321044921875,121.4332504272461 L325.19049072265625,121.8759536743164 L323.7657775878906,122.64170837402344 L322.2074279785156,123.65223693847656 L320.72650146484375,124.78917694091797 L319.5476379394531,125.91069793701172 L318.87554931640625,126.93363952636719 L318.77545166015625,127.79875183105469 L319.35052490234375,128.42774963378906 L320.60247802734375,128.77279663085938 L322.46484375,128.82211303710938 L324.7646484375,128.630615234375 L327.2447509765625,128.309814453125 L329.5224914550781,127.9847183227539 L331.35687255859375,127.73772430419922 L332.5384521484375,127.5983657836914 L333.11480712890625,127.54364013671875 M368.6296691894531,122.09766387939453 L368.58514404296875,122.12999725341797 L368.39630126953125,122.38916015625 L367.964599609375,123.04039764404297 L367.23992919921875,124.16639709472656 L366.31085205078125,125.67400360107422 L365.2897644042969,127.31886291503906 L364.39691162109375,128.86695861816406 L363.75469970703125,130.1344451904297 L363.4620666503906,131.029052734375 L363.5141906738281,131.51478576660156 L363.95794677734375,131.57833862304688 L364.73590087890625,131.161865234375 L365.80242919921875,130.23114013671875 L367.0264892578125,128.80230712890625 L368.31890869140625,126.99885559082031 L369.4942626953125,125.01377868652344 L370.4698791503906,123.09276580810547 L371.17034912109375,121.43814849853516 L371.572509765625,120.14387512207031 L371.70245361328125,119.23502349853516 L371.7051086425781,118.73880004882812 L371.6153564453125,118.69294738769531 L371.4649963378906,119.15646362304688 L371.28253173828125,120.19282531738281 L371.094482421875,121.72905731201172 L370.93817138671875,123.59967041015625 L370.9267578125,125.62272644042969 L371.04022216796875,127.64378356933594 L371.23956298828125,129.57345581054688 L371.4463806152344,131.41848754882812 L371.590576171875,133.1970977783203 L371.61724853515625,134.9402313232422 L371.5128173828125,136.63600158691406 L371.2179870605469,138.25489807128906 L370.7083740234375,139.7301483154297 L369.87811279296875,140.98826599121094 L368.63580322265625,141.9646759033203 L367.00274658203125,142.6282196044922 L365.07489013671875,142.9212188720703 L363.0461730957031,142.8634490966797 L361.138427734375,142.48568725585938 L359.5077819824219,141.86021423339844 L358.19073486328125,141.06480407714844 L357.35052490234375,140.08261108398438 L357.08489990234375,138.88442993164062 L357.45599365234375,137.5027313232422 L358.11083984375,136.27731323242188 L358.7339782714844,135.44590759277344 M382.27911376953125,128.28048706054688 L382.2137451171875,128.81727600097656 L382.086669921875,129.66481018066406 L381.915283203125,130.69122314453125 L381.72406005859375,131.63880920410156 L381.5478210449219,132.3991241455078 L381.4521789550781,132.9107208251953 L381.479736328125,133.10015869140625 L381.6356506347656,132.91004943847656 L381.95257568359375,132.28189086914062 L382.43231201171875,131.17776489257812 L383.07489013671875,129.64947509765625 L383.85675048828125,127.84488677978516 L384.769775390625,125.94026947021484 L385.76873779296875,124.19330596923828 L386.85491943359375,122.77285766601562 L388.0126647949219,121.752197265625 L389.184814453125,121.17776489257812 L390.24285888671875,121.04691314697266 L391.0907287597656,121.34850311279297 L391.6874694824219,122.1030502319336 L392.0350646972656,123.2637939453125 L392.1624450683594,124.72647857666016 L392.1083984375,126.34294891357422 L391.90325927734375,127.8804702758789 L391.6218566894531,129.1211395263672 L391.3828430175781,129.93946838378906 L391.2393798828125,130.34234619140625 L391.19036865234375,130.45970153808594 M397.2554931640625,121.17098999023438 L397.288330078125,121.63107299804688 L397.353759765625,122.4683837890625 L397.47265625,123.6409912109375 L397.71112060546875,124.98214721679688 L398.12530517578125,126.34790802001953 L398.73699951171875,127.5430908203125 L399.42919921875,128.4720458984375 L400.22369384765625,129.0043182373047 L401.17120361328125,129.0459747314453 L402.413818359375,128.57044982910156 L403.9981689453125,127.60004425048828 L405.8372802734375,126.18343353271484 L407.671142578125,124.5760498046875 L409.3135986328125,122.99132537841797 L410.4806823730469,121.78130340576172 L411.13385009765625,121.07792663574219 M410.71331787109375,117.79686737060547 L410.7379455566406,117.8203125 L410.95916748046875,117.95962524414062 L411.4737548828125,118.32857513427734 L412.22662353515625,119.0384292602539 L413.013671875,120.1413345336914 L413.6767883300781,121.61224365234375 L414.12298583984375,123.36363220214844 L414.39678955078125,125.23512268066406 L414.59149169921875,127.02971649169922 L414.72509765625,128.55381774902344 L414.8226623535156,129.66043090820312 L414.84246826171875,130.28408813476562 L414.76678466796875,130.4987030029297 L414.62677001953125,130.44851684570312 L414.4854736328125,130.3108673095703 L414.37969970703125,130.20126342773438 M432.0952453613281,122.519287109375 L432.55804443359375,122.02368927001953 L433.3823547363281,121.17927551269531 L434.47613525390625,120.03913116455078 L435.5910949707031,118.77879333496094 L436.600341796875,117.42365264892578 L437.4429931640625,115.99819946289062 L438.0945739746094,114.51863861083984 L438.568115234375,113.10296630859375 L438.80047607421875,111.85279083251953 L438.73272705078125,110.86431884765625 L438.432861328125,110.13044738769531 L437.87054443359375,109.63560485839844 L437.08544921875,109.40084075927734 L436.1455993652344,109.5744857788086 L435.0651550292969,110.28749084472656 L433.9390869140625,111.64840698242188 L432.944091796875,113.60256958007812 L432.08251953125,116.00801086425781 L431.42840576171875,118.66291809082031 L431.0040283203125,121.42322540283203 L430.72479248046875,124.10350799560547 L430.5739440917969,126.59485626220703 L430.47479248046875,128.74716186523438 L430.35150146484375,130.456298828125 L430.2398681640625,131.65943908691406 L430.1764831542969,132.3967742919922 L430.1464538574219,132.74420166015625 L430.1727294921875,132.86146545410156 M429.98089599609375,123.91484069824219 L430.2553405761719,123.73690795898438 L430.89093017578125,123.50674438476562 L431.9463195800781,123.2806625366211 L433.43731689453125,123.094482421875 L435.25982666015625,122.89543914794922 L437.2333679199219,122.64517211914062 L438.8570556640625,122.38816833496094 L439.89141845703125,122.19922637939453 M456.0159606933594,124.08670043945312 L456.3301086425781,123.84717559814453 L456.8757019042969,123.39389038085938 L457.58514404296875,122.72084045410156 L458.2513427734375,121.90703582763672 L458.6767578125,121.0257568359375 L458.7274169921875,120.14458465576172 L458.3898620605469,119.40283203125 L457.7294921875,118.91228485107422 L456.8442077636719,118.77902221679688 L455.7979736328125,119.09883117675781 L454.5362548828125,119.88862609863281 L453.1297607421875,121.08146667480469 L451.72906494140625,122.5771255493164 L450.5379638671875,124.18827819824219 L449.73419189453125,125.74784851074219 L449.48468017578125,127.14325714111328 L449.73876953125,128.25701904296875 L450.53839111328125,128.99948120117188 L451.7889404296875,129.29318237304688 L453.345458984375,129.08993530273438 L455.0447998046875,128.39215087890625 L456.79315185546875,127.30204772949219 L458.34747314453125,125.94607543945312 L459.5806884765625,124.51093292236328 L460.35040283203125,123.20196533203125 L460.53912353515625,122.1541976928711 L460.36920166015625,121.4723892211914 L460.1161804199219,121.13968658447266 M467.902099609375,121.31529235839844 L467.93341064453125,121.49100494384766 L467.93505859375,121.93466186523438 L467.82958984375,122.6944580078125 L467.5370178222656,123.70272827148438 L467.02655029296875,124.80305480957031 L466.39239501953125,125.81163024902344 L465.7528076171875,126.5432357788086 L465.2479248046875,126.84180450439453 L464.99920654296875,126.59580993652344 L465.01568603515625,125.78148651123047 L465.268798828125,124.5149917602539 L465.7391357421875,123.02372741699219 L466.33746337890625,121.53593444824219 L467.07135009765625,120.21321868896484 L468.00738525390625,119.1489486694336 L469.2584228515625,118.40481567382812 L470.874755859375,118.02509307861328 L472.7926025390625,118.03224182128906 L474.46258544921875,118.24888610839844 L475.5710144042969,118.49024200439453 M488.7633972167969,117.85877227783203 L488.80255126953125,118.20838165283203 L488.887451171875,118.91767120361328 L488.9939880371094,120.0250473022461 L489.0738830566406,121.42903900146484 L489.0173645019531,123.0056381225586 L488.798828125,124.58002471923828 L488.4166259765625,125.99028015136719 L487.9664001464844,127.09452819824219 L487.6214294433594,127.81169891357422 L487.5591125488281,128.07029724121094 L487.8243713378906,127.83582305908203 L488.41546630859375,127.100830078125 L489.19158935546875,125.9363784790039 L490.1027526855469,124.4906234741211 L491.1447448730469,122.92726135253906 L492.3763732910156,121.34385681152344 L493.7893371582031,119.82686614990234 L495.34295654296875,118.46398162841797 L496.8651428222656,117.36908721923828 L498.26458740234375,116.63723754882812 L499.44134521484375,116.27009582519531 L500.4179992675781,116.16533660888672 L501.1054992675781,116.18621826171875 L501.5135803222656,116.22994995117188 M504.9459533691406,121.86618041992188 L505.21630859375,121.95047760009766 L505.8489074707031,122.00504302978516 L506.8790588378906,121.92682647705078 L508.2629089355469,121.56304168701172 L509.882568359375,120.83807373046875 L511.6355895996094,119.78693389892578 L513.3294067382812,118.58216857910156 L514.7596435546875,117.38333892822266 L515.6672973632812,116.37667083740234 L515.9263305664062,115.65319061279297 L515.4693603515625,115.26700592041016 L514.3613891601562,115.25859832763672 L512.669921875,115.66082763671875 L510.51953125,116.4334945678711 L508.09149169921875,117.54362487792969 L505.6631774902344,118.91019439697266 L503.4934997558594,120.43536376953125 L501.8194274902344,122.01461791992188 L500.7935791015625,123.50747680664062 L500.4766540527344,124.77513885498047 L500.8917236328125,125.73973083496094 L501.9873352050781,126.34693145751953 L503.69927978515625,126.54596710205078 L505.9110412597656,126.339599609375 L508.4426574707031,125.73822021484375 L511.1153869628906,124.7900161743164 L513.7618408203125,123.62008666992188 L516.1688232421875,122.38676452636719 L518.2203369140625,121.22383880615234 L519.849853515625,120.26535034179688 L521.0043334960938,119.57849884033203 L521.8096923828125,119.17002868652344 L522.3465576171875,119.05067443847656 L522.64599609375,119.25019836425781 L522.6842041015625,119.80211639404297 L522.3911743164062,120.71881866455078 L521.7603149414062,121.93213653564453 L520.9757690429688,123.28562927246094 L520.2471923828125,124.61433410644531 L519.782958984375,125.78484344482422 L519.6630249023438,126.68419647216797 L519.85205078125,127.23379516601562 L520.30029296875,127.3732681274414 L520.96923828125,127.05317687988281 L521.8676147460938,126.33475494384766 L522.900146484375,125.35404968261719 L523.9328002929688,124.23597717285156 L524.86328125,123.09912872314453 L525.513916015625,122.0260009765625 L525.7875366210938,121.03792572021484 L525.70654296875,120.19379425048828 L525.2617797851562,119.55345916748047 L524.5281372070312,119.15145111083984 L523.6646118164062,119.01799011230469 L522.6851806640625,119.1656723022461 L521.7163696289062,119.52095794677734 L520.8980712890625,120.00822448730469 L520.3812255859375,120.51008605957031 L520.3184814453125,120.88988494873047 L520.8242797851562,121.0588607788086 L521.8377685546875,120.99246215820312 L523.272705078125,120.71350860595703 L524.8912353515625,120.3541488647461 L526.46484375,120.03739929199219 L527.839111328125,119.85304260253906 L528.9526977539062,119.88866424560547 L529.7598876953125,120.1825180053711 L530.28564453125,120.76679992675781 L530.5504150390625,121.64199829101562 L530.60693359375,122.69780731201172 L530.61083984375,123.78466033935547 L530.779052734375,124.75904083251953 L531.1995849609375,125.48432922363281 L531.8922729492188,125.92654418945312 L532.6002197265625,126.13296508789062 L533.1046142578125,126.17988586425781 M547.0431518554688,117.3212890625 L546.9130859375,117.25216674804688 L546.6751708984375,117.27117919921875 L546.2266845703125,117.51484680175781 L545.4901123046875,118.19271850585938 L544.406982421875,119.37312316894531 L543.0220947265625,121.0111083984375 L541.5686645507812,122.91092681884766 L540.3543701171875,124.84767150878906 L539.5850830078125,126.56880950927734 L539.4080810546875,127.99727630615234 L539.8804321289062,129.08572387695312 L541.03515625,129.71554565429688 L542.8115234375,129.76756286621094 L545.0230712890625,129.2171173095703 L546.9876098632812,128.41671752929688 L548.293701171875,127.72743225097656 M557.49755859375,105.45751953125 L557.3724975585938,105.43000793457031 L557.2155151367188,105.40544128417969 L557.0819702148438,105.40392303466797 L557.02392578125,105.43367004394531 L556.98828125,105.44276428222656 L556.968505859375,105.42005157470703 L556.9930419921875,105.36438751220703 L557.006103515625,105.25482177734375 L557.0196533203125,105.1126708984375 L557.0093994140625,105.0 L556.93994140625,105.02067565917969 L556.745361328125,105.30778503417969 L556.4580078125,105.98523712158203 L556.035400390625,107.05487060546875 L555.577880859375,108.44585418701172 L555.1363525390625,110.05616760253906 L554.7600708007812,111.84728240966797 L554.4202880859375,113.81082153320312 L554.112060546875,115.9336929321289 L553.7181396484375,118.14430236816406 L553.2779541015625,120.3343734741211 L552.7523193359375,122.33731842041016 L552.2316284179688,124.04057312011719 L551.820068359375,125.37751007080078 L551.5740966796875,126.29253387451172 L551.4911499023438,126.78787994384766 L551.6268310546875,126.88720703125 L551.89794921875,126.55459594726562 L552.355224609375,125.7804946899414 L553.0179443359375,124.60615539550781 L553.86669921875,123.09757995605469 L554.9204711914062,121.42281341552734 L556.19482421875,119.77101135253906 L557.61669921875,118.31145477294922 L559.1556396484375,117.20943450927734 L560.7012939453125,116.58423614501953 L562.191650390625,116.46516418457031 L563.5928344726562,116.85404968261719 L564.9241943359375,117.68651580810547 L566.126708984375,118.86701965332031 L567.1082153320312,120.28083801269531 L567.7213134765625,121.78557586669922 L567.9510498046875,123.24852752685547 L567.8907470703125,124.53723907470703 L567.7803955078125,125.5257797241211 L567.7799072265625,126.12113952636719 L567.8928833007812,126.37348175048828 L568.0294189453125,126.3976821899414 M574.389892578125,118.54359436035156 L574.486328125,118.67800903320312 L574.6568603515625,119.07072448730469 L574.8638916015625,119.8089828491211 L574.99560546875,120.89997863769531 L574.97900390625,122.21089172363281 L574.7601928710938,123.5632553100586 L574.4694213867188,124.62455749511719 L574.227783203125,125.26294708251953 M575.244384765625,109.14697265625 L575.4095458984375,109.2029800415039 L575.6659545898438,109.46481323242188 L575.9237060546875,109.82466888427734 L576.0929565429688,110.17472839355469 M583.4183349609375,118.04525756835938 L583.4053344726562,118.55816650390625 L583.419677734375,119.53334045410156 L583.52978515625,120.91002655029297 L583.764892578125,122.39681243896484 L584.0679931640625,123.73145294189453 L584.3880004882812,124.76992797851562 L584.609375,125.42484283447266 L584.7332763671875,125.65410614013672 L584.94873046875,125.39318084716797 L585.4806518554688,124.55657958984375 L586.4766845703125,123.25611114501953 L587.9232177734375,121.80644226074219 L589.5169677734375,120.58319091796875 L590.892578125,119.922607421875 L591.8563232421875,119.9178695678711 L592.3951416015625,120.43635559082031 L592.6724853515625,121.2897720336914 L592.829345703125,122.21984100341797 L592.9315185546875,122.94737243652344 L592.9835205078125,123.38214111328125 M597.4747314453125,118.54771423339844 L597.494873046875,118.66773223876953 L597.71533203125,118.92808532714844 L598.216552734375,119.29497528076172 L599.0695190429688,119.75084686279297 L600.1432495117188,120.25086212158203 L601.1932373046875,120.72872161865234 L602.022216796875,121.1187973022461 L602.5853271484375,121.46209716796875 L602.8272094726562,121.71612548828125 L602.878662109375,121.96902465820312 L602.7274169921875,122.2026138305664 L602.27734375,122.3809585571289 L601.5234375,122.51760864257812 L600.4147338867188,122.72991180419922 L598.9434814453125,123.05363464355469 L597.2347412109375,123.53349304199219 L595.5306396484375,124.10608673095703 L594.077392578125,124.7218017578125 L593.2456665039062,125.34512329101562 L593.203125,125.98592376708984 L593.9703979492188,126.59871673583984 L595.3466796875,127.09918975830078 L597.17431640625,127.45096588134766 L599.1435546875,127.62860870361328 L601.0428466796875,127.6092300415039 L602.6823120117188,127.4197006225586 L603.83154296875,127.18187713623047 L604.4334716796875,126.97529602050781 M640.0964965820312,121.96696472167969 L640.0045776367188,121.99889373779297 L639.8658447265625,122.11539459228516 L639.6199951171875,122.37367248535156 L639.2059326171875,122.8419418334961 L638.5211181640625,123.51827239990234 L637.58251953125,124.40382385253906 L636.5224609375,125.40345764160156 L635.6185302734375,126.38508605957031 L635.025390625,127.21197509765625 L634.83349609375,127.78358459472656 L635.0436401367188,127.98368072509766 L635.6878662109375,127.78388214111328 L636.7471923828125,127.16038513183594 L638.197509765625,126.17179870605469 L639.8128662109375,124.94029998779297 L641.3212890625,123.57735443115234 L642.4591064453125,122.16243743896484 L643.052001953125,120.77164459228516 L642.9236450195312,119.43526458740234 L642.151611328125,118.25283813476562 L640.834716796875,117.33953857421875 L639.2718505859375,116.74395751953125 L637.7835693359375,116.47158813476562 L636.7673950195312,116.48432922363281 L636.409912109375,116.67578125 L636.8741455078125,116.97899627685547 L637.6839599609375,117.27032470703125 L638.4428100585938,117.46923065185547 M648.7056884765625,120.26570129394531 L648.6589965820312,120.6231689453125 L648.546142578125,121.3587646484375 L648.3735961914062,122.47157287597656 L648.2345581054688,123.8370132446289 L648.2196655273438,125.27201080322266 L648.4456787109375,126.57906341552734 L648.9439697265625,127.61470031738281 L649.7825927734375,128.27920532226562 L650.9647216796875,128.46060180664062 L652.5044555664062,128.14817810058594 L654.25390625,127.34417724609375 L655.990966796875,126.12881469726562 L657.4901123046875,124.66193389892578 L658.6270751953125,123.07354736328125 L659.346435546875,121.45962524414062 L659.7410888671875,119.93465423583984 L659.901123046875,118.60700988769531 L659.9398193359375,117.56439971923828 L659.9466552734375,116.90687561035156 L659.9574584960938,116.58805847167969 M667.6177368164062,113.47491455078125 L667.7490234375,113.67671203613281 L667.8785400390625,114.18525695800781 L667.9063720703125,115.08392333984375 L667.77685546875,116.36524963378906 L667.534423828125,117.92681884765625 L667.186767578125,119.66546630859375 L666.7486572265625,121.45674133300781 L666.3116455078125,123.18124389648438 L665.8804931640625,124.75570678710938 L665.5140380859375,126.14523315429688 L665.25537109375,127.3543701171875 L665.072509765625,128.4125213623047 L664.9317626953125,129.29486083984375 L664.854736328125,129.93020629882812 L664.8045043945312,130.29612731933594 L664.7709350585938,130.43353271484375 M659.6430053710938,124.44158935546875 L659.870849609375,124.53829193115234 L660.4361572265625,124.62429809570312 L661.459228515625,124.66451263427734 L662.9135131835938,124.63911437988281 L664.690673828125,124.60650634765625 L666.56201171875,124.67108154296875 L668.32958984375,124.868408203125 L669.7467041015625,125.10160064697266 L670.672119140625,125.30436706542969 L671.0814208984375,125.4332504272461 L671.14404296875,125.48036193847656 L671.0521240234375,125.49907684326172 M703.2210693359375,111.30863952636719 L703.2161865234375,111.3000259399414 L703.1499633789062,111.48643493652344 L702.9166870117188,112.04510498046875 L702.481689453125,113.09874725341797 L701.88671875,114.62598419189453 L701.3016357421875,116.45690155029297 L700.8428955078125,118.45173645019531 L700.5699462890625,120.49225616455078 L700.3867797851562,122.4970474243164 L700.1998291015625,124.42816925048828 L699.9415893554688,126.28752136230469 L699.65966796875,128.03640747070312 L699.3641357421875,129.62637329101562 L699.1317138671875,130.97410583496094 L698.984375,131.90786743164062 L698.9156494140625,132.40081787109375 M693.3065185546875,120.56104278564453 L693.5185546875,120.55088806152344 L694.2277221679688,120.51253509521484 L695.6032104492188,120.4001235961914 L697.7025756835938,120.1296615600586 L700.26953125,119.62043762207031 L702.973876953125,118.94962310791016 L705.13720703125,118.32191467285156 L706.4716796875,117.89496612548828 M718.4515380859375,118.87767791748047 L718.2540283203125,118.78306579589844 L717.8597412109375,118.69554138183594 L717.1751708984375,118.7596206665039 L716.1697998046875,119.1544189453125 L714.8050537109375,119.97357940673828 L713.237548828125,121.24150085449219 L711.705810546875,122.83174133300781 L710.5282592773438,124.5588607788086 L709.90771484375,126.24636840820312 L709.93408203125,127.70710754394531 L710.5960693359375,128.79794311523438 L711.825439453125,129.41810607910156 L713.5364990234375,129.50794982910156 L715.5972290039062,129.08184814453125 L717.7321166992188,128.25384521484375 L719.63916015625,127.1607666015625 L721.08984375,125.96733093261719 L721.9364624023438,124.74153900146484 L722.2129516601562,123.523193359375 L721.9794921875,122.33543395996094 L721.3006591796875,121.24633026123047 L720.3011474609375,120.33704376220703 L719.3489990234375,119.73127746582031 L718.6759033203125,119.41771697998047 M738.459228515625,119.5399398803711 L738.5172119140625,120.25678253173828 L738.5318603515625,121.5030288696289 L738.482421875,123.15454864501953 L738.318115234375,124.9093017578125 L738.0372314453125,126.54535675048828 L737.671875,127.93913269042969 L737.287109375,129.03369140625 L736.9505615234375,129.82875061035156 L736.7542724609375,130.31626892089844 L736.7154541015625,130.5002899169922 L736.80224609375,130.2276611328125 L737.0609130859375,129.38748168945312 L737.5205078125,127.8992691040039 L738.2904052734375,125.92485809326172 L739.420654296875,123.70494842529297 L740.8939208984375,121.5697250366211 L742.586181640625,119.73628997802734 L744.364990234375,118.33792877197266 L746.0084228515625,117.44456481933594 L747.390380859375,117.15812683105469 L748.41943359375,117.53116607666016 L749.05517578125,118.55754852294922 L749.2705078125,120.17326354980469 L749.0977783203125,122.15583038330078 L748.57470703125,124.21764373779297 L747.8955078125,126.06707763671875 L747.2371826171875,127.49356079101562 L746.7855224609375,128.3648681640625 L746.6195068359375,128.71469116210938 L746.7794189453125,128.57595825195312 L747.29248046875,127.92826080322266 L748.244873046875,126.77037048339844 L749.656005859375,125.18257141113281 L751.5157470703125,123.3245620727539 L753.6529541015625,121.48077392578125 L755.8414306640625,119.94160461425781 L757.839111328125,118.85948944091797 L759.4404296875,118.37403869628906 L760.59423828125,118.56263732910156 L761.2886962890625,119.38104248046875 L761.56201171875,120.76245880126953 L761.4759521484375,122.52276611328125 L761.1766357421875,124.3829574584961 L760.813720703125,126.11861419677734 L760.5789794921875,127.55160522460938 L760.6192626953125,128.45303344726562 L760.83544921875,128.88104248046875 L761.0648193359375,128.97483825683594 M769.2340087890625,127.9616470336914 L769.6038818359375,127.88915252685547 L770.4591064453125,127.7118148803711 L771.87744140625,127.37928009033203 L773.75732421875,126.8456802368164 L775.87939453125,126.0866470336914 L777.98681640625,125.0737075805664 L779.8724365234375,123.86611938476562 L781.3330078125,122.533203125 L782.2611083984375,121.20536041259766 L782.6005859375,119.9810562133789 L782.28955078125,118.98411560058594 L781.370849609375,118.29505157470703 L779.9029541015625,118.11157989501953 L777.9298095703125,118.53543853759766 L775.6488037109375,119.64571380615234 L773.3204345703125,121.29199981689453 L771.266357421875,123.26184844970703 L769.857177734375,125.25215911865234 L769.2779541015625,127.08680725097656 L769.7196044921875,128.57261657714844 L771.1639404296875,129.63357543945312 L773.427490234375,130.18319702148438 L775.65625,130.35531616210938 L777.26953125,130.31393432617188 M782.6695556640625,132.95901489257812 L782.734130859375,132.91030883789062 L782.683349609375,132.85511779785156 L782.5477294921875,132.8098907470703 L782.3582763671875,132.79107666015625 M782.638916015625,132.48500061035156 L782.5390625,132.4606170654297 L782.4464111328125,132.41604614257812 L782.4061279296875,132.3482666015625 L782.43017578125,132.25355529785156 L782.4456787109375,132.1656951904297 L782.4337158203125,132.0988006591797 L782.389892578125,132.0592803955078 M786.9583740234375,130.8833770751953 L786.915771484375,130.82449340820312 L786.864013671875,130.7353057861328 L786.8199462890625,130.64622497558594 L786.80029296875,130.58770751953125 M798.83447265625,132.34951782226562 L798.7113037109375,132.44163513183594 L798.4847412109375,132.5232696533203 L798.1512451171875,132.57546997070312 L797.805419921875,132.53829956054688 L797.5166015625,132.38595581054688 L797.37451171875,132.1166534423828 L797.3525390625,131.83531188964844 L797.401123046875,131.59962463378906 " fill="none" stroke="black" stroke-linecap="round" stroke-width="2" /><path d="M0,0 M203.22732543945312,165.2534942626953 L203.40042114257812,165.1248779296875 L203.62660217285156,165.0 L203.84190368652344,165.01698303222656 L203.9771728515625,165.39230346679688 L203.95993041992188,166.2578125 L203.75079345703125,167.67767333984375 L203.3524169921875,169.5889434814453 L202.80935668945312,171.82220458984375 L202.27496337890625,174.1536865234375 L201.9470977783203,176.4044647216797 L201.909912109375,178.43458557128906 L202.1945037841797,180.2022247314453 L202.71278381347656,181.6722869873047 L203.3009796142578,182.7957763671875 L203.77493286132812,183.51170349121094 L204.05178833007812,183.8616943359375 M209.1730194091797,169.59103393554688 L209.32177734375,169.96798706054688 L209.69143676757812,170.7013397216797 L210.24374389648438,171.8173828125 L210.8984375,173.24215698242188 L211.5567626953125,174.9480743408203 L212.13768005371094,176.8551788330078 L212.63259887695312,178.86863708496094 L213.10809326171875,180.84088134765625 L213.50950622558594,182.59817504882812 L213.83767700195312,183.9971466064453 L214.06036376953125,184.91461181640625 L214.1683349609375,185.3723907470703 M199.88653564453125,180.2884063720703 L200.00503540039062,180.16465759277344 L200.38812255859375,179.89366149902344 L201.30455017089844,179.48423767089844 L202.90802001953125,179.0221405029297 L205.0784912109375,178.6404571533203 L207.4429931640625,178.3950653076172 L209.36111450195312,178.2904052734375 L210.47116088867188,178.27210998535156 M217.8697509765625,180.5908966064453 L218.16262817382812,180.62828063964844 L218.81288146972656,180.6253662109375 L219.86410522460938,180.52125549316406 L221.18222045898438,180.21925354003906 L222.57943725585938,179.68771362304688 L223.87258911132812,178.96246337890625 L224.9044189453125,178.14627075195312 L225.55897521972656,177.33384704589844 L225.7386016845703,176.6553192138672 L225.3621368408203,176.16868591308594 L224.44046020507812,175.9547576904297 L223.07830810546875,176.05853271484375 L221.45111083984375,176.51808166503906 L219.78213500976562,177.3022918701172 L218.29263305664062,178.3697052001953 L217.21224975585938,179.62818908691406 L216.7054443359375,180.96923828125 L216.8857421875,182.25100708007812 L217.76242065429688,183.36441040039062 L219.3230743408203,184.18130493164062 L221.39503479003906,184.64013671875 L223.73095703125,184.74888610839844 L225.68646240234375,184.65074157714844 L226.93142700195312,184.4934539794922 M232.0644073486328,177.20948791503906 L232.09408569335938,177.25933837890625 L232.1175537109375,177.49667358398438 L232.06646728515625,178.02313232421875 L231.904052734375,178.8592071533203 L231.67251586914062,179.92982482910156 L231.469970703125,181.11241149902344 L231.36968994140625,182.25978088378906 L231.39085388183594,183.24510192871094 L231.4492645263672,183.98609924316406 L231.46859741210938,184.41456604003906 L231.46133422851562,184.52969360351562 L231.42666625976562,184.29299926757812 L231.4088134765625,183.71348571777344 L231.475830078125,182.8258819580078 L231.68603515625,181.7658233642578 L232.11358642578125,180.69100952148438 L232.83587646484375,179.73739624023438 L233.81292724609375,178.90542602539062 L235.0242919921875,178.20225524902344 L236.45419311523438,177.61492919921875 L238.02496337890625,177.194580078125 L239.63983154296875,176.98683166503906 L240.95030212402344,176.9486083984375 L241.76284790039062,176.98687744140625 M241.97494506835938,182.03082275390625 L242.04733276367188,182.1188507080078 L242.2809295654297,182.21484375 L242.81910705566406,182.2431182861328 L243.73916625976562,182.11502075195312 L245.01470947265625,181.7811737060547 L246.51904296875,181.255126953125 L248.0934295654297,180.5690155029297 L249.52476501464844,179.7717742919922 L250.68588256835938,178.88807678222656 L251.4536590576172,177.97877502441406 L251.6915283203125,177.12916564941406 L251.29290771484375,176.4562530517578 L250.230224609375,176.06820678710938 L248.54745483398438,176.05740356445312 L246.48013305664062,176.4160919189453 L244.4112091064453,177.13404846191406 L242.69534301757812,178.1612548828125 L241.60211181640625,179.40330505371094 L241.30235290527344,180.74952697753906 L241.84170532226562,182.04750061035156 L243.20095825195312,183.1551513671875 L245.28082275390625,183.97744750976562 L247.78634643554688,184.4857940673828 L250.41842651367188,184.68551635742188 L252.88409423828125,184.63153076171875 L255.01123046875,184.3776397705078 L256.5267333984375,184.08917236328125 L257.3992919921875,183.86428833007812 M281.3069152832031,175.38449096679688 L281.3083190917969,175.65802001953125 L281.2894592285156,176.35154724121094 L281.1925964355469,177.55043029785156 L281.02081298828125,179.1552276611328 L280.7778625488281,180.9047393798828 L280.5394592285156,182.57164001464844 L280.3901062011719,183.95216369628906 L280.3985900878906,184.7984161376953 L280.56072998046875,184.93951416015625 L280.86761474609375,184.30496215820312 L281.1735534667969,183.34002685546875 L281.3934326171875,182.49346923828125 M281.66058349609375,166.28492736816406 L281.6018981933594,166.22903442382812 L281.5959167480469,166.23902893066406 L281.63616943359375,166.30238342285156 L281.716064453125,166.40658569335938 M294.69195556640625,176.934326171875 L294.45013427734375,176.8294677734375 L293.8472900390625,176.72972106933594 L292.7735595703125,176.7271270751953 L291.3270263671875,176.89524841308594 L289.7276306152344,177.2020721435547 L288.28973388671875,177.59019470214844 L287.29571533203125,178.03602600097656 L286.91339111328125,178.56263732910156 L287.15081787109375,179.21998596191406 L287.99517822265625,180.00616455078125 L289.3231201171875,180.8629150390625 L290.9770812988281,181.73171997070312 L292.698486328125,182.5741729736328 L294.20574951171875,183.358642578125 L295.2337341308594,184.0811767578125 L295.69140625,184.7253875732422 L295.54193115234375,185.27630615234375 L294.83441162109375,185.7344207763672 L293.64129638671875,186.07473754882812 L292.1004333496094,186.24661254882812 L290.4405517578125,186.261474609375 L288.95916748046875,186.1149444580078 L287.92095947265625,185.91392517089844 L287.3843994140625,185.7542724609375 M319.4725036621094,168.7171173095703 L319.18609619140625,169.3765411376953 L318.96185302734375,170.55294799804688 L318.98321533203125,172.1827850341797 L319.4345397949219,174.00621032714844 L320.239501953125,175.91468811035156 L321.29693603515625,177.8262481689453 L322.48394775390625,179.70654296875 L323.86163330078125,181.53390502929688 L325.39996337890625,183.2386932373047 L327.07965087890625,184.71022033691406 L328.5052490234375,185.7613067626953 L329.44696044921875,186.34445190429688 M315.70184326171875,177.26763916015625 L316.16064453125,177.3218536376953 L317.2043762207031,177.40847778320312 L318.9262390136719,177.5050811767578 L321.2366943359375,177.52047729492188 L323.88336181640625,177.36376953125 L326.4802551269531,177.0324249267578 L328.46148681640625,176.6644287109375 L329.6196594238281,176.3771514892578 M336.4200439453125,168.9647979736328 L336.404296875,169.39840698242188 L336.34521484375,170.34230041503906 L336.2142333984375,171.85763549804688 L335.99908447265625,173.8352813720703 L335.69451904296875,176.12750244140625 L335.30615234375,178.55056762695312 L334.8719482421875,180.9009552001953 L334.4561767578125,182.9539337158203 L334.12274169921875,184.5139923095703 L333.93170166015625,185.43333435058594 L333.9263916015625,185.68423461914062 L334.1659851074219,185.29275512695312 L334.7694091796875,184.35409545898438 L335.78057861328125,183.01620483398438 L337.12432861328125,181.5135955810547 L338.6300964355469,180.05946350097656 L340.12353515625,178.8612518310547 L341.489501953125,178.03440856933594 L342.6997375488281,177.63177490234375 L343.72918701171875,177.67318725585938 L344.48883056640625,178.16505432128906 L344.96685791015625,179.08465576171875 L345.228271484375,180.3778076171875 L345.37158203125,181.915283203125 L345.51171875,183.4977569580078 L345.74810791015625,184.91233825683594 L346.10736083984375,185.92654418945312 L346.72259521484375,186.3913116455078 L347.7048645019531,186.22665405273438 L349.0580139160156,185.41351318359375 L350.7243347167969,184.04476928710938 L352.5722961425781,182.290283203125 L354.33721923828125,180.33432006835938 L355.8290100097656,178.4198760986328 L356.9053649902344,176.7288055419922 L357.47698974609375,175.37765502929688 L357.5291748046875,174.50244140625 L357.1123046875,174.20474243164062 L356.2105712890625,174.5241241455078 L354.89837646484375,175.47007751464844 L353.3376770019531,176.9271240234375 L351.8218994140625,178.71078491210938 L350.65509033203125,180.66336059570312 L350.16131591796875,182.6284942626953 L350.5360107421875,184.40969848632812 L351.87017822265625,185.83607482910156 L354.044189453125,186.76773071289062 L356.8636474609375,187.07318115234375 L359.9136657714844,186.77896118164062 L362.7938537597656,186.01930236816406 L364.92755126953125,185.18417358398438 L366.14739990234375,184.55975341796875 M395.224365234375,189.73092651367188 L394.7903747558594,189.34548950195312 L394.07275390625,188.6402587890625 L393.1112976074219,187.60098266601562 L392.05474853515625,186.32498168945312 L390.92999267578125,184.85992431640625 L389.79571533203125,183.2936553955078 L388.6830749511719,181.72311401367188 L387.7413330078125,180.17686462402344 L386.9793395996094,178.8148651123047 L386.34149169921875,177.95375061035156 L385.7065124511719,177.9602813720703 L384.9631652832031,179.07151794433594 L384.13116455078125,181.18699645996094 L383.4752197265625,183.65000915527344 L383.17303466796875,185.92486572265625 L383.3650207519531,187.64755249023438 L384.0472717285156,188.7063751220703 L385.0599060058594,189.1288299560547 L386.27740478515625,188.96109008789062 L387.5734558105469,188.1014862060547 L388.86468505859375,186.6267852783203 L390.16015625,184.6299591064453 L391.44976806640625,182.23846435546875 L392.7106628417969,179.6211395263672 L393.947021484375,176.99876403808594 L395.0216064453125,174.53500366210938 L395.89739990234375,172.38748168945312 L396.53497314453125,170.64022827148438 L396.9067077636719,169.3185272216797 L397.02752685546875,168.48965454101562 L396.96868896484375,168.25079345703125 L396.7615051269531,168.662841796875 L396.5203857421875,169.77345275878906 L396.30328369140625,171.56512451171875 L396.160888671875,173.92457580566406 L396.0835266113281,176.6729736328125 L396.0566101074219,179.5894317626953 L396.05560302734375,182.4408416748047 L396.1709289550781,184.97352600097656 L396.45562744140625,186.97361755371094 L396.95477294921875,188.30050659179688 L397.47991943359375,188.97950744628906 L397.87896728515625,189.19857788085938 M402.811767578125,184.5818328857422 L403.02691650390625,184.61558532714844 L403.4620361328125,184.53787231445312 L404.1546630859375,184.25421142578125 L405.0430908203125,183.6771240234375 L406.0435791015625,182.851318359375 L407.0689697265625,181.81314086914062 L408.02386474609375,180.6085968017578 L408.77557373046875,179.34371948242188 L409.27423095703125,178.14927673339844 L409.4369812011719,177.14337158203125 L409.223876953125,176.48678588867188 L408.5970764160156,176.33457946777344 L407.56744384765625,176.7852020263672 L406.13616943359375,177.88409423828125 L404.50543212890625,179.5404815673828 L402.91802978515625,181.50682067871094 L401.70538330078125,183.50135803222656 L401.1336669921875,185.28904724121094 L401.34600830078125,186.70689392089844 L402.3062744140625,187.66558837890625 L403.9503173828125,188.13165283203125 L406.0831298828125,188.08010864257812 L408.5396728515625,187.5745391845703 L411.206787109375,186.58766174316406 L413.9083251953125,185.16171264648438 L416.47967529296875,183.38311767578125 L418.4713134765625,181.7713165283203 L419.665771484375,180.65240478515625 M422.16546630859375,169.2506103515625 L422.2677917480469,168.8018035888672 L422.3910827636719,168.3743896484375 L422.5052490234375,168.2462615966797 L422.56982421875,168.71636962890625 L422.6064453125,169.76925659179688 L422.6152038574219,171.32228088378906 L422.5955810546875,173.177734375 L422.5455322265625,175.24172973632812 L422.48040771484375,177.367919921875 L422.4361572265625,179.45970153808594 L422.42657470703125,181.43093872070312 L422.4332275390625,183.1962127685547 L422.4482421875,184.62620544433594 L422.45806884765625,185.67201232910156 L422.4407653808594,186.2788543701172 L422.4070129394531,186.4746856689453 L422.3243103027344,186.30946350097656 L422.2227783203125,186.00184631347656 L422.1378479003906,185.7126922607422 M416.39410400390625,178.57395935058594 L416.4757385253906,178.503173828125 L416.85748291015625,178.390869140625 L417.68798828125,178.2847137451172 L419.01025390625,178.23452758789062 L420.7254638671875,178.2764892578125 L422.702880859375,178.414794921875 L424.8349914550781,178.5993194580078 L427.123779296875,178.76004028320312 L429.4886169433594,178.8678436279297 L431.76947021484375,178.89834594726562 L433.5323181152344,178.88612365722656 L434.5863952636719,178.86732482910156 M443.5283203125,177.80645751953125 L443.0726623535156,177.55917358398438 L442.21307373046875,177.33921813964844 L440.87725830078125,177.36459350585938 L439.12799072265625,177.88510131835938 L437.09283447265625,178.9547576904297 L435.08056640625,180.4632568359375 L433.4636535644531,182.20103454589844 L432.5685729980469,183.94635009765625 L432.50689697265625,185.491455078125 L433.1983947753906,186.66758728027344 L434.5334777832031,187.33616638183594 L436.3499450683594,187.3679656982422 L438.4549560546875,186.73292541503906 L440.6797180175781,185.4492645263672 L442.7732849121094,183.69461059570312 L444.49676513671875,181.7169952392578 L445.72979736328125,179.80194091796875 L446.4316101074219,178.18402099609375 L446.6629638671875,177.07168579101562 L446.6343994140625,176.51126098632812 L446.4652404785156,176.5205078125 L446.25030517578125,177.06378173828125 L446.0892028808594,178.0864715576172 L446.0697937011719,179.46060180664062 L446.2506408691406,181.02127075195312 L446.7493591308594,182.5182647705078 L447.61810302734375,183.7401123046875 L448.8633117675781,184.52926635742188 L450.46636962890625,184.8212127685547 L452.3070983886719,184.5889892578125 L454.1569519042969,183.85406494140625 L455.8687438964844,182.70919799804688 L457.3055419921875,181.33106994628906 L458.3722839355469,179.93667602539062 L459.0609436035156,178.75770568847656 L459.4139404296875,177.89125061035156 L459.5144348144531,177.3560028076172 L459.5283508300781,177.14724731445312 L459.5282897949219,177.28147888183594 L459.5208435058594,177.83645629882812 L459.4153747558594,178.9327850341797 L459.1469421386719,180.5242462158203 L458.7309875488281,182.4509735107422 L458.2270202636719,184.40760803222656 L457.73382568359375,186.09095764160156 L457.38934326171875,187.2820587158203 L457.2005615234375,187.95266723632812 L457.1380920410156,188.21400451660156 M457.3380432128906,166.08941650390625 L457.3844299316406,165.83558654785156 L457.5363464355469,165.6535186767578 L457.73260498046875,165.58685302734375 L457.9119567871094,165.67919921875 M467.2247619628906,167.2657928466797 L467.244873046875,167.85121154785156 L467.1351013183594,169.00604248046875 L466.7752685546875,170.71316528320312 L466.1279296875,172.76812744140625 L465.2789611816406,174.9938201904297 L464.3698425292969,177.23858642578125 L463.6056823730469,179.40481567382812 L463.1155090332031,181.41693115234375 L462.928466796875,183.15867614746094 L463.049560546875,184.5438995361328 L463.4264831542969,185.5402374267578 L463.98284912109375,186.15843200683594 L464.71551513671875,186.43380737304688 L465.6181640625,186.4019012451172 L466.67779541015625,186.0843505859375 L467.9150390625,185.5174560546875 L469.3108825683594,184.76351928710938 L470.79791259765625,183.8519744873047 L472.3286437988281,182.81443786621094 L473.7841491699219,181.66921997070312 L475.0558776855469,180.50112915039062 L476.0346374511719,179.40499877929688 L476.6163024902344,178.4591522216797 L476.784912109375,177.7014923095703 L476.5881042480469,177.16397094726562 L476.074951171875,176.8727264404297 L475.3108215332031,176.90684509277344 L474.3255920410156,177.31263732910156 L473.2135314941406,178.06922912597656 L472.1224365234375,179.1278076171875 L471.24420166015625,180.39617919921875 L470.7338562011719,181.74285888671875 L470.671875,183.04348754882812 L471.0331115722656,184.1609344482422 L471.78045654296875,184.97581481933594 L472.84698486328125,185.43783569335938 L474.1646728515625,185.53750610351562 L475.6220397949219,185.3209228515625 L476.85260009765625,184.9983367919922 L477.6472473144531,184.72296142578125 M489.87896728515625,179.28073120117188 L489.9041442871094,179.01397705078125 L489.7609558105469,178.66656494140625 L489.3104248046875,178.3842010498047 L488.49908447265625,178.3548126220703 L487.4071044921875,178.64547729492188 L486.2269287109375,179.24253845214844 L485.1397705078125,180.12710571289062 L484.27862548828125,181.23529052734375 L483.7015686035156,182.4963836669922 L483.4538269042969,183.77772521972656 L483.4731750488281,184.93519592285156 L483.7352294921875,185.82705688476562 L484.2480773925781,186.37094116210938 L485.0884704589844,186.49041748046875 L486.27239990234375,186.19227600097656 L487.78826904296875,185.44412231445312 L489.45843505859375,184.25872802734375 L491.0777282714844,182.66380310058594 L492.4642028808594,180.73255920410156 L493.5354919433594,178.561279296875 L494.2720947265625,176.35638427734375 L494.75152587890625,174.2978973388672 L495.0742492675781,172.59585571289062 L495.31646728515625,171.34764099121094 L495.54559326171875,170.57728576660156 L495.7689208984375,170.2440948486328 L495.9369201660156,170.36973571777344 L496.01446533203125,170.99441528320312 L495.98980712890625,172.16676330566406 L495.8807067871094,173.81690979003906 L495.75640869140625,175.77023315429688 L495.6802062988281,177.82286071777344 L495.622802734375,179.81619262695312 L495.5791320800781,181.65060424804688 L495.56475830078125,183.27114868164062 L495.7245178222656,184.5673370361328 L496.20263671875,185.40953063964844 L497.09136962890625,185.7354736328125 L498.0358581542969,185.7054443359375 L498.7575988769531,185.5257568359375 M508.48272705078125,178.51573181152344 L508.41064453125,179.166259765625 L508.3708801269531,180.31515502929688 L508.4493103027344,181.8462371826172 L508.6524658203125,183.3878173828125 L508.82427978515625,184.66375732421875 L508.85894775390625,185.4808349609375 L508.76959228515625,185.8633575439453 L508.62091064453125,185.95123291015625 M509.65869140625,170.52369689941406 L509.7455749511719,170.48370361328125 L509.955078125,170.474365234375 L510.20654296875,170.4942169189453 L510.4194641113281,170.54180908203125 M513.961669921875,178.83604431152344 L514.06298828125,179.03457641601562 L514.2420654296875,179.53167724609375 L514.4596557617188,180.3875274658203 L514.6204833984375,181.5514678955078 L514.6316528320312,182.87840270996094 L514.4697265625,184.1800079345703 L514.1570434570312,185.2764434814453 L513.8050537109375,186.0725860595703 L513.5418701171875,186.49050903320312 L513.4344482421875,186.52297973632812 L513.51025390625,186.1380157470703 L513.8190307617188,185.32542419433594 L514.3511962890625,184.15377807617188 L515.1395263671875,182.7602996826172 L516.18505859375,181.3433074951172 L517.3993530273438,180.12107849121094 L518.6752319335938,179.2261962890625 L519.9424438476562,178.7449493408203 L521.09228515625,178.73858642578125 L522.0613403320312,179.22299194335938 L522.7999267578125,180.2025909423828 L523.2407836914062,181.57981872558594 L523.34130859375,183.18594360351562 L523.1777954101562,184.82003784179688 L522.846923828125,186.2799072265625 L522.4686889648438,187.4201202392578 L522.1826171875,188.15386962890625 L522.02783203125,188.51173400878906 M536.276611328125,176.52938842773438 L536.7478637695312,175.6781005859375 L537.3883056640625,174.34246826171875 L537.91796875,172.71434020996094 L538.075439453125,171.17335510253906 L537.8561401367188,169.83143615722656 L537.3612670898438,168.80650329589844 L536.7180786132812,168.1779327392578 L536.01904296875,168.08358764648438 L535.17724609375,168.60940551757812 L534.2457275390625,169.80934143066406 L533.2640380859375,171.6233367919922 L532.2776489257812,173.9366455078125 L531.3699951171875,176.59910583496094 L530.6224365234375,179.42942810058594 L530.0067138671875,182.24794006347656 L529.5655517578125,184.9133758544922 L529.2818603515625,187.2091827392578 L529.121826171875,188.96533203125 L529.1074829101562,190.1011505126953 L529.178466796875,190.6650390625 L529.261474609375,190.8370361328125 M526.3089599609375,182.64813232421875 L526.3790283203125,182.56260681152344 L526.6626586914062,182.48031616210938 L527.307861328125,182.4651641845703 L528.4583740234375,182.5421142578125 L530.1035766601562,182.68685913085938 L532.0853881835938,182.77560424804688 L533.833251953125,182.7935333251953 L534.9879760742188,182.7596435546875 M546.4822998046875,180.5419921875 L546.2637329101562,180.2533416748047 L545.7800903320312,179.89735412597656 L544.9279174804688,179.63877868652344 L543.7320556640625,179.70260620117188 L542.2640380859375,180.13137817382812 L540.7862548828125,180.8727264404297 L539.5977783203125,181.791015625 L538.9375610351562,182.7264862060547 L538.8722534179688,183.51507568359375 L539.34130859375,184.0089874267578 L540.164306640625,184.08651733398438 L541.2491455078125,183.71546936035156 L542.4414672851562,182.9398956298828 L543.6305541992188,181.875244140625 L544.7093505859375,180.7095489501953 L545.622314453125,179.58169555664062 L546.367919921875,178.62152099609375 L547.060546875,177.89036560058594 L547.6043090820312,177.42845153808594 L547.9625244140625,177.19613647460938 M554.30908203125,179.92481994628906 L554.304443359375,179.9742889404297 L554.2418823242188,180.16473388671875 L554.120849609375,180.53579711914062 L553.935791015625,181.05210876464844 L553.7152099609375,181.5609130859375 L553.4694213867188,181.9833221435547 L553.2158813476562,182.28062438964844 L552.9852294921875,182.41812133789062 L552.8090209960938,182.30734252929688 L552.7057495117188,181.87310791015625 L552.692626953125,181.0426788330078 L552.8256225585938,179.89453125 L553.1786499023438,178.61911010742188 L553.843017578125,177.3996124267578 L554.8494873046875,176.33970642089844 L556.2146606445312,175.51644897460938 L557.880859375,174.93922424316406 L559.7916259765625,174.62777709960938 L561.8314208984375,174.6221160888672 L563.9072265625,174.89491271972656 L565.879150390625,175.35574340820312 L567.6087036132812,175.84539794921875 L568.8406372070312,176.21005249023438 L569.52783203125,176.3935546875 M570.5867919921875,175.7891387939453 L570.6820068359375,176.20327758789062 L570.769287109375,177.00314331054688 L570.76611328125,178.153076171875 L570.635498046875,179.47666931152344 L570.4447021484375,180.7944793701172 L570.2902221679688,181.95590209960938 L570.21240234375,182.84556579589844 L570.201171875,183.38841247558594 L570.243408203125,183.4932098388672 L570.3809814453125,183.1336212158203 L570.6927490234375,182.283447265625 L571.2288818359375,181.03292846679688 L571.9503784179688,179.57296752929688 L572.8078002929688,178.12037658691406 L573.7839965820312,176.82720947265625 L574.8154907226562,175.82395935058594 L575.8345336914062,175.11256408691406 L576.7699584960938,174.71983337402344 L577.5418090820312,174.7041778564453 L578.1263427734375,175.10552978515625 L578.5872192382812,175.92526245117188 L578.909423828125,177.08786010742188 L579.138671875,178.39418029785156 L579.3231201171875,179.6541290283203 L579.4781494140625,180.67483520507812 L579.6209716796875,181.3193817138672 L579.8012084960938,181.55172729492188 L580.0155029296875,181.3583984375 L580.35302734375,180.7393341064453 L580.8592529296875,179.78836059570312 L581.538818359375,178.619873046875 L582.3895874023438,177.37600708007812 L583.4129638671875,176.2099609375 L584.581298828125,175.25709533691406 L585.9041748046875,174.5722198486328 L587.315673828125,174.2259521484375 L588.7091064453125,174.25680541992188 L590.0234375,174.66566467285156 L591.1791381835938,175.42196655273438 L592.1065673828125,176.5342254638672 L592.772705078125,177.96697998046875 L593.133056640625,179.68959045410156 L593.19970703125,181.56466674804688 L593.1131591796875,183.33212280273438 L592.9913330078125,184.7075958251953 L592.917236328125,185.5438232421875 L592.910400390625,185.8899688720703 M603.0780029296875,176.88671875 L603.1136474609375,176.6678924560547 L603.136474609375,176.31552124023438 L603.072265625,175.92100524902344 L602.7936401367188,175.6756591796875 L602.24853515625,175.77667236328125 L601.4022216796875,176.3476104736328 L600.363525390625,177.38780212402344 L599.3102416992188,178.7591552734375 L598.428955078125,180.25393676757812 L597.85400390625,181.64474487304688 L597.7400512695312,182.79507446289062 L598.0589599609375,183.5691680908203 L598.771484375,183.88748168945312 L599.807373046875,183.68850708007812 L601.0152587890625,182.99111938476562 L602.2559814453125,181.8800506591797 L603.4537353515625,180.56533813476562 L604.4617309570312,179.26055908203125 L605.2061767578125,178.1926727294922 L605.6771240234375,177.4816436767578 L605.890869140625,177.17840576171875 L605.92822265625,177.29676818847656 L605.9130859375,177.86387634277344 L605.9330444335938,178.91404724121094 L606.0115966796875,180.3532257080078 L606.1642456054688,181.95034790039062 L606.3243408203125,183.26185607910156 L606.437255859375,184.06044006347656 M614.624755859375,170.00192260742188 L614.6329345703125,170.09307861328125 L614.6427001953125,170.48501586914062 L614.6239624023438,171.39358520507812 L614.5573120117188,172.90945434570312 L614.421142578125,174.94113159179688 L614.233642578125,177.3212432861328 L614.0235595703125,179.7582550048828 L613.7969970703125,181.9951171875 L613.5328979492188,183.84402465820312 L613.268310546875,185.1758270263672 L613.0509643554688,185.95135498046875 L612.91845703125,186.3008270263672 M609.991943359375,179.82093811035156 L610.259765625,179.78555297851562 L610.8826904296875,179.80575561523438 L611.9493408203125,179.91905212402344 L613.429443359375,180.1466522216797 L615.1590576171875,180.41368103027344 L616.9815673828125,180.62728881835938 L618.7559814453125,180.71713256835938 L620.3966064453125,180.6291961669922 L621.8762817382812,180.33291625976562 L623.181640625,179.8453826904297 L624.2561645507812,179.23878479003906 L625.0633544921875,178.60487365722656 L625.5914306640625,178.059814453125 L625.871337890625,177.71371459960938 L625.9808349609375,177.7036590576172 L625.9752197265625,178.12448120117188 L625.90576171875,179.09803771972656 L625.6961059570312,180.5525665283203 L625.298583984375,182.32403564453125 L624.752685546875,184.15676879882812 L624.1741333007812,185.81333923339844 L623.70458984375,187.06431579589844 L623.4473876953125,187.84425354003906 L623.354248046875,188.19119262695312 M625.0914306640625,172.91159057617188 L625.236572265625,172.90403747558594 L625.5216674804688,172.9818878173828 L625.840576171875,173.1095428466797 L626.0872802734375,173.25135803222656 M634.5757446289062,178.1654052734375 L634.697509765625,178.30628967285156 L634.7866821289062,178.6438446044922 L634.6893310546875,179.25099182128906 L634.2479858398438,180.1451873779297 L633.379150390625,181.2735137939453 L632.248046875,182.542236328125 L631.1448974609375,183.86363220214844 L630.267822265625,185.15077209472656 L629.777099609375,186.3265838623047 L629.7736206054688,187.333251953125 L630.279296875,188.04327392578125 L631.3746337890625,188.34242248535156 L633.04150390625,188.13580322265625 L635.0585327148438,187.4393310546875 L637.1497802734375,186.31532287597656 L639.0576171875,184.91748046875 L640.610595703125,183.34274291992188 L641.6895751953125,181.72503662109375 L642.220458984375,180.15631103515625 L642.100341796875,178.751708984375 L641.3870239257812,177.59927368164062 L640.2019653320312,176.76791381835938 L638.725830078125,176.27818298339844 L637.1044311523438,176.25599670410156 L635.55126953125,176.7535400390625 L634.195556640625,177.71556091308594 L633.26318359375,178.73793029785156 L632.781005859375,179.49571228027344 M646.2264404296875,180.11907958984375 L646.13427734375,180.90493774414062 L645.980224609375,182.228515625 L645.7989501953125,183.9082489013672 L645.6022338867188,185.53549194335938 L645.393798828125,186.90245056152344 L645.183837890625,187.82212829589844 L645.0367431640625,188.245361328125 L645.0538330078125,188.1295928955078 L645.3870849609375,187.494384765625 L646.0428466796875,186.40037536621094 L646.9231567382812,184.9973907470703 L647.9022216796875,183.4429931640625 L648.8794555664062,181.9280242919922 L649.844970703125,180.6019287109375 L650.93310546875,179.61727905273438 L652.229736328125,179.05718994140625 L653.7410888671875,178.9842529296875 L655.416748046875,179.4151153564453 L657.057373046875,180.3094482421875 L658.4132690429688,181.55494689941406 L659.344482421875,183.04690551757812 L659.8153686523438,184.66500854492188 L659.9254150390625,186.30462646484375 L659.9238891601562,187.82920837402344 L659.9851684570312,189.06735229492188 L660.1859130859375,189.885986328125 L660.4480590820312,190.28990173339844 L660.66748046875,190.4012908935547 M667.733642578125,179.3888397216797 L667.913818359375,179.7333526611328 L668.2325439453125,180.3629608154297 L668.6348266601562,181.2200164794922 L669.0736083984375,182.13021850585938 L669.5881958007812,182.9510040283203 L670.256103515625,183.569091796875 L671.0948486328125,183.9527587890625 L672.12255859375,184.11373901367188 L673.218017578125,184.0960235595703 L674.2774658203125,183.95050048828125 L675.224853515625,183.74649047851562 L676.022705078125,183.51913452148438 L676.6209106445312,183.3151397705078 L677.0331420898438,183.17919921875 L677.2432250976562,183.1724853515625 L677.2647094726562,183.28590393066406 L677.1605224609375,183.52027893066406 L676.982177734375,183.77947998046875 L676.8076171875,183.98410034179688 L676.701904296875,184.0765838623047 L676.740478515625,184.06407165527344 L676.9669189453125,183.89462280273438 L677.4035034179688,183.5648651123047 L677.96826171875,183.0639190673828 L678.6100463867188,182.40814208984375 L679.2127685546875,181.6559600830078 L679.7384033203125,180.91497802734375 L680.134521484375,180.21263122558594 L680.3302001953125,179.5825958251953 L680.229248046875,179.04736328125 L679.83837890625,178.62124633789062 L679.1143798828125,178.3290557861328 L678.128662109375,178.24046325683594 L676.9332275390625,178.39111328125 L675.556640625,178.8077850341797 L674.035888671875,179.47618103027344 L672.5103759765625,180.36447143554688 L671.10546875,181.4093780517578 L670.00146484375,182.55801391601562 L669.375732421875,183.72647094726562 L669.3299560546875,184.8013916015625 L669.9507446289062,185.62655639648438 L671.259521484375,186.0514373779297 L673.2344970703125,185.9971466064453 L675.7520751953125,185.47955322265625 L678.6368408203125,184.55712890625 L681.6133422851562,183.34576416015625 L684.4370727539062,181.93817138671875 L686.8008422851562,180.4420166015625 L688.5601806640625,178.97723388671875 L689.6411743164062,177.6489715576172 L690.0441284179688,176.49951171875 L689.7816772460938,175.56732177734375 L688.8316650390625,174.88600158691406 L687.1151123046875,174.5740203857422 L684.7073364257812,174.7478485107422 L681.832763671875,175.46514892578125 L678.8804931640625,176.70880126953125 L676.219482421875,178.35374450683594 L674.0777587890625,180.2474822998047 L672.5082397460938,182.25576782226562 L671.4713134765625,184.2429656982422 L670.9317016601562,186.06817626953125 L670.9075927734375,187.6177520751953 L671.3045654296875,188.74412536621094 L671.9751586914062,189.37669372558594 L672.615478515625,189.60997009277344 L673.0338745117188,189.6085205078125 M684.4844360351562,178.24134826660156 L684.550048828125,178.3035430908203 L684.594482421875,178.5521240234375 L684.5748291015625,179.12322998046875 L684.4454956054688,180.0806427001953 L684.2293090820312,181.39291381835938 L683.994140625,182.96530151367188 L683.76953125,184.6731719970703 L683.60693359375,186.37705993652344 L683.5394287109375,187.95309448242188 L683.548095703125,189.25384521484375 L683.6058349609375,190.16744995117188 L683.7483520507812,190.62176513671875 L683.9649047851562,190.63978576660156 L684.332763671875,190.2480926513672 L684.8839111328125,189.5035858154297 L685.6109008789062,188.45147705078125 L686.4847412109375,187.14495849609375 L687.52685546875,185.61497497558594 L688.6917724609375,183.96441650390625 L689.9434814453125,182.25839233398438 L691.1519775390625,180.61610412597656 L692.2049560546875,179.13877868652344 L692.9956665039062,177.94732666015625 L693.5289916992188,177.0967559814453 L693.8419799804688,176.64601135253906 L694.0150146484375,176.61569213867188 L694.0925903320312,177.04917907714844 L694.1109008789062,177.91168212890625 L694.072265625,179.22161865234375 L694.00732421875,180.888427734375 L693.94580078125,182.7434539794922 L693.9237060546875,184.56959533691406 L693.968994140625,186.15321350097656 L694.0563354492188,187.28155517578125 L694.14453125,187.93121337890625 L694.205078125,188.1984405517578 M699.3614501953125,175.14306640625 L699.1627197265625,175.81924438476562 L698.8650512695312,176.9701690673828 L698.48974609375,178.52182006835938 L698.129150390625,180.2708740234375 L697.7672729492188,182.15943908691406 L697.484619140625,184.098876953125 L697.3056030273438,186.03245544433594 L697.2655029296875,187.7461395263672 L697.2958374023438,189.02328491210938 L697.3521118164062,189.7321319580078 L697.3877563476562,189.82241821289062 L697.467041015625,189.34608459472656 L697.6949462890625,188.4376983642578 L698.1115112304688,187.1697998046875 L698.7337646484375,185.65594482421875 L699.525634765625,184.0225830078125 L700.406494140625,182.37548828125 L701.2980346679688,180.8047332763672 L702.129150390625,179.40652465820312 L702.8323974609375,178.23355102539062 L703.412841796875,177.38189697265625 L703.8906860351562,176.88629150390625 L704.2696533203125,176.74156188964844 L704.564208984375,176.89016723632812 L704.7283325195312,177.3124542236328 L704.8609619140625,177.9855499267578 L704.9669799804688,178.83290100097656 L705.1454467773438,179.72801208496094 L705.4820556640625,180.52645874023438 L706.052734375,181.06954956054688 L706.8340454101562,181.27394104003906 L707.904052734375,181.0877685546875 L709.1423950195312,180.47659301757812 L710.4775390625,179.47950744628906 L711.7661743164062,178.18455505371094 L712.848388671875,176.7646026611328 L713.5409545898438,175.43951416015625 L713.7591552734375,174.39015197753906 L713.4816284179688,173.76495361328125 L712.7966918945312,173.66360473632812 L711.763916015625,174.09957885742188 L710.4531860351562,175.07325744628906 L708.9520263671875,176.53671264648438 L707.3693237304688,178.3673553466797 L705.992919921875,180.38780212402344 L705.143310546875,182.3959503173828 L705.0065307617188,184.14479064941406 L705.6346435546875,185.42758178710938 L706.953857421875,186.08963012695312 L708.7374877929688,186.06175231933594 L710.8267822265625,185.3791046142578 L713.0708618164062,184.17588806152344 L715.32568359375,182.63226318359375 L717.417236328125,180.9829559326172 L719.2081909179688,179.4763641357422 L720.5462036132812,178.29376220703125 L721.3380126953125,177.55206298828125 L721.5906982421875,177.2962646484375 L721.415771484375,177.515625 L720.8152465820312,178.2148895263672 L719.8652954101562,179.38677978515625 L718.7134399414062,180.91555786132812 L717.5555419921875,182.56332397460938 L716.6444091796875,184.08468627929688 L716.1539306640625,185.26226806640625 L716.0001220703125,185.9798583984375 L716.08154296875,186.19537353515625 L716.3272094726562,185.91348266601562 L716.7745361328125,185.12701416015625 L717.5053100585938,183.96072387695312 L718.5042114257812,182.60374450683594 L719.7166137695312,181.2521514892578 L721.0662231445312,180.069091796875 L722.385986328125,179.1492919921875 L723.5811767578125,178.4935302734375 L724.46044921875,178.10557556152344 L724.9375610351562,177.93185424804688 M704.8713989257812,183.3590087890625 L705.1450805664062,183.1974334716797 L705.7364501953125,182.91717529296875 L706.7645263671875,182.55433654785156 L708.2978515625,182.1787109375 L710.3432006835938,181.837158203125 L712.7979125976562,181.4998779296875 L715.4886474609375,181.11900329589844 L718.2177124023438,180.6205596923828 L720.8272094726562,179.98867797851562 L723.185302734375,179.2174530029297 L725.1951904296875,178.3595733642578 L726.760986328125,177.45260620117188 L727.8163452148438,176.53358459472656 L728.4014282226562,175.61380004882812 L728.5730590820312,174.77552795410156 L728.2954711914062,174.11410522460938 L727.5253295898438,173.79296875 L726.1476440429688,173.96913146972656 L724.228271484375,174.72525024414062 L722.0408325195312,175.9350128173828 L720.0250244140625,177.4305419921875 L718.545166015625,178.99307250976562 L717.8177490234375,180.44216918945312 L717.852294921875,181.66127014160156 L718.6121826171875,182.56568908691406 L720.01513671875,182.98387145996094 L721.89208984375,182.8078155517578 L724.0205688476562,182.0318603515625 L726.102294921875,180.73085021972656 L727.8798217773438,179.1435546875 L729.17138671875,177.5439453125 L729.9491577148438,176.13394165039062 L730.2667236328125,175.0146942138672 L730.291015625,174.29249572753906 L730.1461791992188,174.01255798339844 L729.9157104492188,174.27883911132812 L729.5658569335938,175.19265747070312 L729.0348510742188,176.76414489746094 L728.3805541992188,178.83413696289062 L727.6572265625,181.172607421875 L726.9678344726562,183.44827270507812 L726.4009399414062,185.3694610595703 L726.020263671875,186.6744384765625 L725.8035278320312,187.35577392578125 M732.4685668945312,177.4603729248047 L732.5578002929688,177.5581817626953 L732.7277221679688,177.8559112548828 L732.9915771484375,178.41598510742188 L733.2954711914062,179.20828247070312 L733.5806274414062,180.09747314453125 L733.8232421875,180.9928741455078 L734.113037109375,181.78053283691406 L734.5106201171875,182.33311462402344 L735.1395263671875,182.56549072265625 L736.0055541992188,182.39801025390625 L737.0091552734375,181.770751953125 L738.0269165039062,180.77842712402344 L738.9577026367188,179.5443572998047 L739.6881713867188,178.21786499023438 L740.21923828125,177.02487182617188 L740.5385131835938,176.10169982910156 L740.6375732421875,175.45330810546875 L740.5469360351562,175.05169677734375 L740.3786010742188,174.8326416015625 L740.2177124023438,174.714599609375 M745.228759765625,177.6113739013672 L745.635009765625,177.6334686279297 L746.4314575195312,177.61148071289062 L747.5885009765625,177.50294494628906 L748.8799438476562,177.23275756835938 L750.0849609375,176.8409423828125 L751.0423583984375,176.3729705810547 L751.6365356445312,175.8677520751953 L751.8659057617188,175.33607482910156 L751.7049560546875,174.79222106933594 L751.1044311523438,174.22036743164062 L750.0501098632812,173.74188232421875 L748.6016235351562,173.45849609375 L746.83447265625,173.48275756835938 L744.9598388671875,173.87960815429688 L743.1577758789062,174.6447296142578 L741.622314453125,175.70846557617188 L740.513916015625,176.989013671875 L739.9840087890625,178.36338806152344 L740.0796508789062,179.74740600585938 L740.9188232421875,181.07083129882812 L742.4338989257812,182.24612426757812 L744.4256591796875,183.20626831054688 L746.2318115234375,183.8527374267578 L747.4534301757812,184.18588256835938 M757.0203857421875,180.4030303955078 L757.4981079101562,180.1416473388672 L758.3462524414062,179.69082641601562 L759.5228881835938,179.07154846191406 L760.7326049804688,178.37255859375 L761.7866821289062,177.6282196044922 L762.5127563476562,176.8527374267578 L762.8124389648438,176.0664520263672 L762.634033203125,175.30235290527344 L762.08056640625,174.61297607421875 L761.2257080078125,174.09400939941406 L760.2697143554688,173.8346710205078 L759.404052734375,173.90289306640625 L758.7894287109375,174.3229217529297 L758.5853881835938,175.0594482421875 L758.937744140625,176.07684326171875 L759.8986206054688,177.29220581054688 L761.4068603515625,178.62303161621094 L763.2154541015625,180.00694274902344 L765.0106811523438,181.34861755371094 L766.5409545898438,182.53695678710938 L767.6219482421875,183.5040283203125 L768.184814453125,184.14060974121094 L768.2430419921875,184.44786071777344 L767.762451171875,184.43226623535156 L766.78662109375,184.17935180664062 L765.419677734375,183.76950073242188 L763.808349609375,183.3036346435547 L762.1798095703125,182.79962158203125 L760.8073120117188,182.2981719970703 L759.8514404296875,181.7436981201172 L759.3478393554688,181.27076721191406 L759.1852416992188,180.94386291503906 M767.3141479492188,180.20704650878906 L767.5211181640625,180.20773315429688 L767.9971923828125,180.1221923828125 L768.815185546875,179.8701171875 L769.96142578125,179.39166259765625 L771.3395385742188,178.68173217773438 L772.8546142578125,177.78012084960938 L774.3949584960938,176.7366180419922 L775.7965087890625,175.5889434814453 L776.93603515625,174.42025756835938 L777.6549072265625,173.3164825439453 L777.86279296875,172.38902282714844 L777.5281372070312,171.7611083984375 L776.7520141601562,171.51788330078125 L775.7046508789062,171.69564819335938 L774.686279296875,172.31484985351562 L773.9318237304688,173.2834014892578 L773.7073974609375,174.52166748046875 L774.0650634765625,175.94619750976562 L775.1192016601562,177.45750427246094 L776.7993774414062,178.94374084472656 L779.0150146484375,180.2655487060547 L781.0521850585938,181.1957244873047 L782.4883422851562,181.69871520996094 M781.18017578125,178.5095977783203 L781.1282348632812,178.6383819580078 L781.470947265625,178.84564208984375 L782.5619506835938,179.1151885986328 L784.6455078125,179.33258056640625 L787.5396118164062,179.4104766845703 L790.808349609375,179.25454711914062 L793.9120483398438,178.79290771484375 L796.4727783203125,178.05117797851562 L798.2374267578125,177.11964416503906 L799.1433715820312,176.12979125976562 L799.1061401367188,175.20437622070312 L798.1006469726562,174.48780822753906 L796.153564453125,174.0675811767578 L793.5380859375,174.08949279785156 L790.63623046875,174.5746307373047 L787.9761962890625,175.5496368408203 L785.9970092773438,176.85113525390625 L785.0715942382812,178.314208984375 L785.2957153320312,179.70864868164062 L786.7584228515625,180.92315673828125 L789.194091796875,181.84115600585938 L792.18701171875,182.47845458984375 L794.7826538085938,182.8341064453125 L796.4732666015625,182.99082946777344 M813.1931762695312,178.3116912841797 L812.7798461914062,178.10765075683594 L811.9298095703125,177.83628845214844 L810.5386352539062,177.64808654785156 L808.6763916015625,177.7142333984375 L806.5475463867188,178.10903930664062 L804.4973754882812,178.78863525390625 L802.93701171875,179.6284942626953 L802.215087890625,180.42933654785156 L802.4257202148438,181.06076049804688 L803.4586791992188,181.37440490722656 L805.0391235351562,181.28024291992188 L806.9195556640625,180.73500061035156 L808.8739013671875,179.73828125 L810.789794921875,178.30740356445312 L812.588134765625,176.5458984375 L814.2070922851562,174.5917205810547 L815.4938354492188,172.6380157470703 L816.40673828125,170.91224670410156 L816.9446411132812,169.5842742919922 L817.1782836914062,168.72813415527344 L817.2151489257812,168.39939880371094 L817.1322631835938,168.67095947265625 L816.913330078125,169.61605834960938 L816.5389404296875,171.2727508544922 L815.9971313476562,173.52919006347656 L815.2843017578125,176.0955810546875 L814.4918823242188,178.69741821289062 L813.7980346679688,181.05511474609375 L813.3869018554688,182.95631408691406 L813.3614501953125,184.3168487548828 L813.5759887695312,185.11656188964844 L813.8314819335938,185.4512939453125 M822.378662109375,182.73971557617188 L822.397216796875,182.7753143310547 L822.4402465820312,182.79737854003906 L822.4912719726562,182.80123901367188 L822.533935546875,182.78216552734375 M821.77783203125,183.59463500976562 L821.8687744140625,183.6401824951172 L822.0254516601562,183.70118713378906 L822.2203369140625,183.73159790039062 L822.4105834960938,183.69349670410156 L822.5382690429688,183.5803680419922 L822.5982666015625,183.4459991455078 L822.607177734375,183.34466552734375 M823.738525390625,184.4071044921875 L823.7247924804688,184.44505310058594 L823.7493286132812,184.48138427734375 L823.801513671875,184.50538635253906 L823.8707275390625,184.50640869140625 M827.5751342773438,176.17543029785156 L827.78515625,176.2920379638672 L828.0355224609375,176.4368438720703 L828.2476806640625,176.56442260742188 M806.3807983398438,167.69366455078125 L806.3297729492188,167.5248565673828 L806.2429809570312,167.28192138671875 L806.0992431640625,167.0899200439453 L805.8855590820312,167.15440368652344 L805.5703735351562,167.64334106445312 L805.0195922851562,168.63497924804688 L804.1434936523438,170.05136108398438 L802.9793701171875,171.74427795410156 L801.6494140625,173.51339721679688 L800.398681640625,175.1834716796875 L799.5062866210938,176.4483642578125 L799.02734375,177.2026824951172 M828.2025146484375,183.39059448242188 L828.30615234375,183.26438903808594 L828.5050048828125,183.00706481933594 L828.7628784179688,182.59335327148438 L829.0614624023438,182.0191192626953 L829.4100952148438,181.33621215820312 L829.8240356445312,180.57589721679688 L830.449462890625,179.74708557128906 L831.3319091796875,178.90074157714844 L832.3689575195312,178.04901123046875 L833.4142456054688,177.20010375976562 L834.2545776367188,176.425537109375 L834.6685180664062,175.7636260986328 L834.7589111328125,175.28726196289062 L834.6769409179688,175.02593994140625 " fill="none" stroke="black" stroke-linecap="round" stroke-width="2" /></svg>