<?xml version="1.0" encoding="utf-8" ?>
<svg baseProfile="full" height="100%" version="1.1" viewBox="0,0,1000,240" width="100%" xmlns="http://www.w3.org/2000/svg" xmlns:ev="http://www.w3.org/2001/xml-events" xmlns:xlink="http://www.w3.org/1999/xlink"><defs /><rect fill="white" height="240" width="1000" x="0" y="0" /><path d="M0,0 M363.5167236328125,68.11486053466797 L363.7654724121094,67.66414642333984 L364.2825012207031,66.79541778564453 L365.0970764160156,65.49018096923828 L366.1558532714844,63.85529327392578 L367.39654541015625,61.966796875 L368.7789306640625,59.91236114501953 L370.240478515625,57.79196548461914 L371.7401123046875,55.70672607421875 L373.212646484375,53.762386322021484 L374.59954833984375,52.044429779052734 L375.82025146484375,50.628028869628906 L376.8200378417969,49.54169464111328 L377.5169372558594,48.82392120361328 L377.9017333984375,48.51393127441406 L377.9815368652344,48.685020446777344 L377.832275390625,49.418724060058594 L377.4979553222656,50.77345275878906 L377.0337219238281,52.711856842041016 L376.45635986328125,55.1341438293457 L375.83349609375,57.893653869628906 L375.22088623046875,60.82450866699219 L374.7016906738281,63.76148986816406 L374.3068542480469,66.55593872070312 L374.0542907714844,69.05050659179688 L373.92724609375,71.11649322509766 L373.9315185546875,72.68042755126953 L374.0390319824219,73.73468780517578 L374.2476806640625,74.28363037109375 L374.53900146484375,74.3918228149414 L374.8908386230469,74.13923645019531 L375.2001037597656,73.76155090332031 L375.41455078125,73.43934631347656 M398.70721435546875,53.34320831298828 L398.55908203125,52.97714614868164 L398.3946533203125,52.374267578125 L398.3009948730469,51.5920295715332 L398.37750244140625,50.761138916015625 L398.63787841796875,49.904052734375 L399.09527587890625,49.0461540222168 L399.7803039550781,48.219482421875 L400.72674560546875,47.47962188720703 L401.944091796875,46.88179016113281 L403.3913879394531,46.47962951660156 L404.9718017578125,46.30111312866211 L406.56793212890625,46.36500930786133 L408.0863342285156,46.719730377197266 L409.42742919921875,47.37229537963867 L410.5179443359375,48.331932067871094 L411.3035888671875,49.59763717651367 L411.7530517578125,51.143836975097656 L411.8438720703125,52.92304992675781 L411.591552734375,54.89861297607422 L410.98663330078125,56.999107360839844 L410.038818359375,59.168495178222656 L408.7913513183594,61.344627380371094 L407.3194580078125,63.4716911315918 L405.7086181640625,65.48401641845703 L404.0660095214844,67.30364990234375 L402.47796630859375,68.82223510742188 L401.07244873046875,69.95448303222656 L399.9776611328125,70.66758728027344 L399.25335693359375,71.00604248046875 L398.8992919921875,71.07273864746094 L398.8523864746094,70.97366333007812 L399.0363464355469,70.75323486328125 L399.45648193359375,70.43327331542969 L400.1490783691406,70.03572082519531 L401.1293029785156,69.61015319824219 L402.40667724609375,69.2352066040039 L403.9426574707031,68.9915542602539 L405.65960693359375,68.9272689819336 L407.4986267089844,69.07621765136719 L409.3731994628906,69.41770935058594 L411.1772766113281,69.9045181274414 L412.828125,70.46038055419922 L414.27593994140625,71.0240707397461 L415.4919128417969,71.54641723632812 L416.4945983886719,72.02701568603516 L417.2843017578125,72.45820617675781 L417.8431091308594,72.83167266845703 L418.1806640625,73.11632537841797 L418.35113525390625,73.30496978759766 L418.41424560546875,73.38565063476562 L418.4443359375,73.39820098876953 L418.4772644042969,73.37401580810547 L418.5127868652344,73.3408203125 L418.55792236328125,73.30194091796875 L418.6033630371094,73.27100372314453 L418.6353759765625,73.24476623535156 M437.11260986328125,51.65382385253906 L437.05145263671875,51.62941360473633 L437.0177917480469,51.54402160644531 L437.1700439453125,51.34580993652344 L437.72698974609375,50.986000061035156 L438.8694152832031,50.457645416259766 L440.617431640625,49.83103561401367 L442.8526611328125,49.22603225708008 L445.3743896484375,48.78162384033203 L447.9852600097656,48.606346130371094 L450.4836120605469,48.703948974609375 L452.69293212890625,49.01716995239258 L454.4454345703125,49.45086669921875 L455.62335205078125,49.93962860107422 L456.1578369140625,50.44401168823242 L456.074462890625,50.97090148925781 L455.41400146484375,51.490535736083984 L454.2807922363281,51.98310089111328 L452.8131103515625,52.40586853027344 L451.21630859375,52.76239776611328 L449.7004089355469,53.04185485839844 L448.46392822265625,53.27401351928711 L447.601806640625,53.478675842285156 L447.1485595703125,53.70975112915039 L447.06463623046875,54.00529861450195 L447.36407470703125,54.414886474609375 L448.0925598144531,54.937530517578125 L449.303955078125,55.581809997558594 L450.9698486328125,56.334102630615234 L453.00299072265625,57.20063018798828 L455.21185302734375,58.172210693359375 L457.4299011230469,59.2265625 L459.5357360839844,60.32181167602539 L461.44378662109375,61.41901779174805 L463.09295654296875,62.461280822753906 L464.46746826171875,63.42391586303711 L465.546630859375,64.2873306274414 L466.346923828125,65.03511047363281 L466.89501953125,65.69123840332031 L467.1943359375,66.28343200683594 L467.24017333984375,66.83283996582031 L467.0110168457031,67.36248779296875 L466.489013671875,67.88306427001953 L465.6502990722656,68.37156677246094 L464.48638916015625,68.83649444580078 L462.9974365234375,69.2548599243164 L461.1947937011719,69.61323547363281 L459.0798645019531,69.8743896484375 L456.689453125,70.01910400390625 L454.0535888671875,70.00094604492188 L451.24652099609375,69.82743072509766 L448.37713623046875,69.4990463256836 L445.5720520019531,69.053955078125 L442.947998046875,68.503662109375 L440.61566162109375,67.87066650390625 L438.6468200683594,67.14897155761719 L437.0857849121094,66.36338806152344 L435.95379638671875,65.5444107055664 L435.2726135253906,64.74494171142578 L435.029296875,63.990474700927734 L435.22491455078125,63.305171966552734 L435.8641357421875,62.7134895324707 L436.9364929199219,62.23567199707031 L438.41705322265625,61.90032196044922 L440.27691650390625,61.72163009643555 L442.42132568359375,61.677677154541016 L444.7423400878906,61.73500442504883 L447.13482666015625,61.86996841430664 L449.4490661621094,62.048423767089844 L451.545166015625,62.26145935058594 L453.29925537109375,62.489654541015625 L454.6085510253906,62.702327728271484 L455.4449768066406,62.87318801879883 L455.910888671875,62.99678421020508 L456.1162414550781,63.07548904418945 L456.18853759765625,63.130340576171875 L456.20111083984375,63.173519134521484 L456.172607421875,63.20499038696289 L456.10198974609375,63.223968505859375 L456.03106689453125,63.23273849487305 L455.97705078125,63.234886169433594 M485.74420166015625,51.18501663208008 L485.7008056640625,51.27296829223633 L485.62908935546875,51.50794982910156 L485.4888916015625,51.96653747558594 L485.26031494140625,52.669578552246094 L484.914306640625,53.61521530151367 L484.48284912109375,54.75654220581055 L484.06195068359375,56.06155014038086 L483.7604675292969,57.459747314453125 L483.68353271484375,58.880863189697266 L483.9461975097656,60.2117919921875 L484.61236572265625,61.353031158447266 L485.71478271484375,62.19644546508789 L487.2580261230469,62.706485748291016 L489.16998291015625,62.83684158325195 L491.3739013671875,62.599365234375 L493.75921630859375,62.04053497314453 L496.18756103515625,61.25111389160156 L498.5262451171875,60.32786560058594 L500.667724609375,59.40165328979492 L502.49212646484375,58.47072982788086 L503.9197998046875,57.541259765625 L504.89715576171875,56.61404037475586 L505.43817138671875,55.857276916503906 L505.649658203125,55.364139556884766 M496.85064697265625,51.453922271728516 L496.781005859375,51.87841796875 L496.67779541015625,52.69245910644531 L496.53521728515625,53.88740539550781 L496.338134765625,55.348941802978516 L496.06219482421875,57.00993347167969 L495.6904296875,58.78263854980469 L495.2657470703125,60.57032775878906 L494.8952941894531,62.27156066894531 L494.6624450683594,63.76525115966797 L494.5936279296875,64.98420715332031 L494.65966796875,65.91798400878906 L494.7954406738281,66.54283142089844 L494.96917724609375,66.8442611694336 L495.1908874511719,66.8458251953125 L495.40289306640625,66.68578338623047 L495.56488037109375,66.49949645996094 M509.95654296875,45.0 L509.971923828125,45.00136184692383 L510.0379638671875,45.058937072753906 L510.1510925292969,45.22857666015625 L510.29541015625,45.56727600097656 L510.403076171875,46.09312057495117 L510.41424560546875,46.78711700439453 L510.322265625,47.59791564941406 L510.1719055175781,48.47313690185547 L510.01116943359375,49.369239807128906 L509.926513671875,50.26021957397461 L509.9645080566406,51.12993621826172 L510.12628173828125,51.940311431884766 L510.40447998046875,52.66471862792969 L510.8255615234375,53.276214599609375 L511.39764404296875,53.75392532348633 L512.1849975585938,54.0902099609375 L513.2508544921875,54.29369354248047 L514.5997314453125,54.37428665161133 L516.1952514648438,54.38681411743164 L517.9964599609375,54.40159606933594 L519.8961791992188,54.48885726928711 L521.80908203125,54.72273254394531 L523.6527709960938,55.1402702331543 L525.3453979492188,55.74280548095703 L526.8107299804688,56.510597229003906 L528.0158081054688,57.41142272949219 L528.9091186523438,58.38984298706055 L529.4540405273438,59.39192199707031 L529.6141357421875,60.33987045288086 L529.3807373046875,61.17820358276367 L528.7294311523438,61.85408020019531 L527.68359375,62.35026550292969 L526.2473754882812,62.66392135620117 L524.4443969726562,62.80983352661133 L522.3248901367188,62.8069953918457 L519.98974609375,62.70619201660156 L517.5213012695312,62.51689529418945 L515.0364990234375,62.23654556274414 L512.6385498046875,61.86355209350586 L510.420654296875,61.39570999145508 L508.4485778808594,60.763465881347656 L506.7927551269531,59.953697204589844 L505.4753112792969,58.971771240234375 L504.59088134765625,58.0777702331543 L504.1236267089844,57.46125030517578 M508.51348876953125,46.757938385009766 L508.9632568359375,46.67068099975586 L509.89215087890625,46.50664520263672 L511.3525695800781,46.27761459350586 L513.2298583984375,46.01793670654297 L515.3992309570312,45.76784133911133 L517.723388671875,45.562740325927734 L520.101318359375,45.411067962646484 L522.4451904296875,45.32659912109375 L524.6758422851562,45.32275390625 L526.6851196289062,45.366607666015625 L528.3944091796875,45.46282958984375 L529.7283935546875,45.60265350341797 L530.6885375976562,45.76874542236328 L531.271484375,45.91828918457031 L531.5557861328125,46.030338287353516 M556.6898193359375,48.99056625366211 L556.6671752929688,49.0297737121582 L556.5601806640625,49.13941192626953 L556.3515625,49.325164794921875 L556.013916015625,49.593589782714844 L555.5804443359375,49.959327697753906 L555.0479736328125,50.43348693847656 L554.41748046875,51.05263900756836 L553.6909790039062,51.85847473144531 L552.9144287109375,52.855552673339844 L552.09228515625,54.0589714050293 L551.2705078125,55.49053192138672 L550.4619140625,57.11501693725586 L549.6707763671875,58.889278411865234 L548.908203125,60.790802001953125 L548.1981811523438,62.76689529418945 L547.5533447265625,64.77925109863281 L547.0252075195312,66.81255340576172 L546.6475830078125,68.77532196044922 L546.4507446289062,70.60343933105469 L546.4439086914062,72.25028228759766 L546.6289672851562,73.67565155029297 L547.0039672851562,74.87830352783203 L547.5845947265625,75.88388061523438 L548.3753662109375,76.66712188720703 L549.3727416992188,77.2059326171875 L550.5145263671875,77.45584106445312 L551.7349853515625,77.38069152832031 L552.9683837890625,76.97200775146484 L554.1656494140625,76.24649047851562 L555.2868041992188,75.2491683959961 L556.2879638671875,74.03257751464844 L557.0989990234375,72.66424560546875 L557.6782836914062,71.21820068359375 L558.0084838867188,69.76124572753906 L558.09326171875,68.3470458984375 L557.9278564453125,67.03469848632812 L557.5233764648438,65.85818481445312 L556.8851928710938,64.85472869873047 L556.0484008789062,64.06321716308594 L555.042724609375,63.514427185058594 L553.902099609375,63.24040603637695 L552.625,63.254913330078125 L551.2432250976562,63.54390335083008 L549.8154907226562,64.09832000732422 L548.4634399414062,64.85877990722656 L547.3091430664062,65.72811889648438 L546.5189819335938,66.46992492675781 L546.102294921875,66.9466323852539 M560.8634033203125,53.27584457397461 L560.901123046875,53.268245697021484 L561.021484375,53.26477813720703 L561.331787109375,53.289512634277344 L561.970703125,53.35542678833008 L563.1032104492188,53.450721740722656 L564.7816162109375,53.53107452392578 L566.9443359375,53.56493377685547 L569.45947265625,53.50408935546875 L572.1500244140625,53.351043701171875 L574.8035888671875,53.136844635009766 L577.2203369140625,52.91044998168945 L579.2130737304688,52.720726013183594 L580.6431884765625,52.624839782714844 L581.4700927734375,52.653709411621094 L581.7398071289062,52.86299133300781 L581.510498046875,53.33800506591797 L580.8487548828125,54.169612884521484 L579.8436889648438,55.420745849609375 L578.5911865234375,57.09899139404297 L577.20703125,59.12942886352539 L575.80810546875,61.40290832519531 L574.4811401367188,63.79671096801758 L573.2827758789062,66.18501281738281 L572.244140625,68.47018432617188 L571.3690795898438,70.56004333496094 L570.6453857421875,72.35997009277344 L570.0557861328125,73.83161926269531 L569.578125,74.90751647949219 L569.2039794921875,75.54466247558594 L568.9171142578125,75.7635498046875 L568.7265625,75.72010803222656 L568.6234741210938,75.5752944946289 M567.7477416992188,67.25680541992188 L568.317138671875,67.25608825683594 L569.3365478515625,67.28877258300781 L570.743896484375,67.38199615478516 L572.3229370117188,67.53695678710938 L573.95947265625,67.71703338623047 L575.5619506835938,67.87446594238281 L577.087158203125,67.97882080078125 L578.4837036132812,68.01786041259766 L579.6982421875,68.01165008544922 L580.681396484375,67.97179412841797 L581.3433837890625,67.92501068115234 L581.6961059570312,67.88763427734375 M605.794921875,53.96650695800781 L605.7078247070312,53.766292572021484 L605.5092163085938,53.52103042602539 L605.1795043945312,53.336883544921875 L604.7316284179688,53.353515625 L604.205322265625,53.6090202331543 L603.6641845703125,54.1077880859375 L603.1600952148438,54.82023620605469 L602.7627563476562,55.71919250488281 L602.5369873046875,56.77190399169922 L602.54833984375,57.94896697998047 L602.8697509765625,59.22539520263672 L603.55615234375,60.5638542175293 L604.6116943359375,61.919918060302734 L606.0146484375,63.248817443847656 L607.695068359375,64.5258560180664 L609.5602416992188,65.72794342041016 L611.5003662109375,66.83780670166016 L613.37158203125,67.82369995117188 L615.0195922851562,68.66975402832031 L616.3394775390625,69.38784790039062 L617.2634887695312,70.0087661743164 L617.7799072265625,70.55687713623047 L617.9131469726562,71.03993225097656 L617.6793212890625,71.43006134033203 L617.0965576171875,71.70237731933594 L616.2066650390625,71.8375473022461 L615.0279541015625,71.80402374267578 L613.5921630859375,71.58734893798828 L611.9345092773438,71.17887878417969 L610.0963134765625,70.58209991455078 L608.1570434570312,69.81908416748047 L606.219970703125,68.91487884521484 L604.3818359375,67.87551879882812 L602.7379760742188,66.72151184082031 L601.3753662109375,65.47187805175781 L600.3495483398438,64.15054321289062 L599.7205200195312,62.8056526184082 L599.48046875,61.48085021972656 L599.5994262695312,60.213531494140625 L600.0335693359375,59.03684616088867 L600.77587890625,57.97102355957031 L601.8202514648438,57.01179885864258 L603.1900634765625,56.171077728271484 L604.8548583984375,55.44072341918945 L606.7655029296875,54.817344665527344 L608.8259887695312,54.29177474975586 L610.9329833984375,53.872562408447266 L612.942138671875,53.567298889160156 L614.703857421875,53.3818359375 L616.1201171875,53.30139923095703 L617.151123046875,53.293487548828125 L617.7894287109375,53.31349563598633 L618.09765625,53.341583251953125 L618.1463623046875,53.37581253051758 L618.057861328125,53.406131744384766 L617.950927734375,53.430877685546875 M632.4942626953125,54.797454833984375 L632.2391357421875,54.55192565917969 L631.716796875,54.17272186279297 L630.8839721679688,53.75225830078125 L629.7672729492188,53.4526252746582 L628.384765625,53.35280227661133 L626.8035888671875,53.483299255371094 L625.1193237304688,53.80451965332031 L623.4825439453125,54.286277770996094 L622.0465087890625,54.89777755737305 L620.9248046875,55.6251106262207 L620.1627197265625,56.443992614746094 L619.7861328125,57.334686279296875 L619.8008422851562,58.23676681518555 L620.220947265625,59.09139633178711 L621.0677490234375,59.84999465942383 L622.333251953125,60.48545837402344 L623.9342041015625,60.958702087402344 L625.7813720703125,61.27001953125 L627.7411499023438,61.39080810546875 L629.68701171875,61.28962707519531 L631.5284423828125,60.96699142456055 L633.18701171875,60.460670471191406 L634.5748901367188,59.785037994384766 L635.668701171875,58.99414825439453 L636.450439453125,58.12080383300781 L636.9461059570312,57.19382095336914 L637.22509765625,56.26203918457031 L637.347900390625,55.403621673583984 L637.36669921875,54.65022277832031 L637.3363647460938,54.030426025390625 L637.2935791015625,53.53467559814453 L637.2636108398438,53.15188217163086 L637.2607421875,52.876800537109375 L637.271484375,52.71288299560547 L637.28271484375,52.65035629272461 L637.2725219726562,52.69219207763672 L637.23779296875,52.82313919067383 L637.174072265625,53.067466735839844 L637.0706787109375,53.44976806640625 L636.91357421875,53.9879264831543 L636.677978515625,54.689247131347656 L636.3355712890625,55.554542541503906 L635.913330078125,56.550621032714844 L635.463134765625,57.66250228881836 L635.05615234375,58.855918884277344 L634.7597045898438,60.11451721191406 L634.589111328125,61.40646743774414 L634.5316162109375,62.69688415527344 L634.599365234375,63.959537506103516 L634.7975463867188,65.17760467529297 L635.124755859375,66.32929992675781 L635.58203125,67.42256927490234 L636.1488647460938,68.45487976074219 L636.8070678710938,69.41899871826172 L637.5518798828125,70.32366180419922 L638.366455078125,71.15760803222656 L639.2048950195312,71.89864349365234 L640.0078125,72.52305603027344 L640.7262573242188,73.03025817871094 L641.30908203125,73.41345977783203 L641.7205810546875,73.6766586303711 L641.953857421875,73.81578063964844 L642.0458374023438,73.86227416992188 L642.0491943359375,73.85002899169922 " fill="none" stroke="red" stroke-linecap="round" stroke-width="1" /><path d="M0,0 M404.9506530761719,119.25988006591797 L405.13751220703125,119.29167938232422 L405.5328369140625,119.27157592773438 L406.17095947265625,119.11766052246094 L407.0448913574219,118.73468017578125 L408.13128662109375,118.0733413696289 L409.42822265625,117.13431549072266 L410.90087890625,115.96302795410156 L412.4997253417969,114.63719177246094 L414.1159973144531,113.26353454589844 L415.6641845703125,111.96037292480469 L417.04986572265625,110.84239959716797 L418.223388671875,109.9924087524414 L419.15655517578125,109.43756866455078 L419.8493347167969,109.17237854003906 L420.2731628417969,109.16400909423828 L420.4289855957031,109.40592956542969 L420.2870178222656,109.92281341552734 L419.8009033203125,110.74518585205078 L418.96380615234375,111.8661880493164 L417.8463134765625,113.23724365234375 L416.54986572265625,114.72811889648438 L415.22625732421875,116.18407440185547 L413.9964904785156,117.47074890136719 L412.9400634765625,118.49767303466797 L412.0955505371094,119.21797943115234 L411.49224853515625,119.64347839355469 L411.1174011230469,119.79190826416016 L410.94384765625,119.68655395507812 L410.9388427734375,119.36650848388672 L411.08056640625,118.85547637939453 L411.3755187988281,118.18621826171875 L411.8716735839844,117.41655731201172 L412.63458251953125,116.61630249023438 L413.69061279296875,115.87982940673828 L415.02593994140625,115.30158996582031 L416.5475769042969,114.96089172363281 L418.1367492675781,114.92459106445312 L419.6637268066406,115.21588134765625 L421.0343322753906,115.82181549072266 L422.1883239746094,116.71476745605469 L423.0879211425781,117.81608581542969 L423.7090759277344,119.0668716430664 L424.0332946777344,120.38326263427734 L424.0444641113281,121.66983032226562 L423.74310302734375,122.8538589477539 L423.15509033203125,123.88359832763672 L422.2778015136719,124.71711730957031 L421.1494140625,125.36634826660156 L419.80145263671875,125.81550598144531 L418.287109375,126.04458618164062 L416.70416259765625,126.06592559814453 L415.17266845703125,125.85065460205078 L413.79534912109375,125.4105453491211 L412.6896667480469,124.8155517578125 L411.96099853515625,124.26335144042969 L411.58636474609375,123.87916564941406 M431.996826171875,105.0 L431.88360595703125,105.12958526611328 L431.81903076171875,105.36954498291016 L431.94677734375,105.70233154296875 L432.43536376953125,106.05291748046875 L433.3762512207031,106.365478515625 L434.79351806640625,106.60696411132812 L436.6556091308594,106.81571197509766 L438.8673095703125,107.04750061035156 L441.26202392578125,107.37580871582031 L443.6092224121094,107.80979919433594 L445.69439697265625,108.31503295898438 L447.3337097167969,108.82745361328125 L448.42388916015625,109.2807846069336 L448.9410095214844,109.64690399169922 L448.8883056640625,109.96728515625 L448.2435302734375,110.27613830566406 L447.0260314941406,110.60340881347656 L445.32525634765625,110.969970703125 L443.28790283203125,111.34846496582031 L441.14129638671875,111.73428344726562 L439.1084899902344,112.15437316894531 L437.3375244140625,112.63016510009766 L435.932373046875,113.18595123291016 L434.9597473144531,113.85645294189453 L434.427978515625,114.63253021240234 L434.357421875,115.51482391357422 L434.7611999511719,116.48983764648438 L435.62884521484375,117.5300064086914 L436.91424560546875,118.6083984375 L438.52239990234375,119.7169189453125 L440.272216796875,120.81927490234375 L441.9711608886719,121.89473724365234 L443.4483337402344,122.90750885009766 L444.5789794921875,123.83235168457031 L445.27777099609375,124.66120147705078 L445.5291748046875,125.43312072753906 L445.30133056640625,126.176025390625 L444.58319091796875,126.92582702636719 L443.38775634765625,127.66004943847656 L441.734619140625,128.33978271484375 L439.68389892578125,128.89813232421875 L437.3489990234375,129.283203125 L434.8573303222656,129.4552459716797 L432.32861328125,129.41952514648438 L429.8788757324219,129.18043518066406 L427.5787048339844,128.80419921875 L425.5231018066406,128.35415649414062 L423.78973388671875,127.89250183105469 L422.46038818359375,127.4792251586914 L421.55279541015625,127.15166473388672 L421.04937744140625,126.93154907226562 L420.83648681640625,126.82129669189453 M466.01666259765625,105.77161407470703 L466.00030517578125,105.7882080078125 L466.03912353515625,105.819580078125 L466.25201416015625,105.87403106689453 L466.79095458984375,105.9365005493164 L467.7980041503906,105.99142456054688 L469.34307861328125,106.01217651367188 L471.40045166015625,105.98809051513672 L473.853271484375,105.91390228271484 L476.5555725097656,105.82847595214844 L479.3414611816406,105.77325439453125 L482.0141906738281,105.7986831665039 L484.3486633300781,105.92219543457031 L486.14080810546875,106.16679382324219 L487.26898193359375,106.55909729003906 L487.73919677734375,107.16407775878906 L487.6607666015625,108.05998229980469 L487.1363525390625,109.31340789794922 L486.25,110.93019104003906 L485.0701904296875,112.88204193115234 L483.7007751464844,115.11222076416016 L482.22833251953125,117.539794921875 L480.744140625,120.0782699584961 L479.3082580566406,122.64144897460938 L477.9694519042969,125.13863372802734 L476.77484130859375,127.47883605957031 L475.8016357421875,129.57261657714844 L475.0692138671875,131.33560180664062 L474.58795166015625,132.671142578125 L474.33563232421875,133.52301025390625 L474.26544189453125,133.90155029296875 L474.28851318359375,133.95953369140625 L474.3414001464844,133.87294006347656 M474.5415954589844,121.31877136230469 L474.90985107421875,121.41253662109375 L475.6896057128906,121.59126281738281 L476.91204833984375,121.8350830078125 L478.4612121582031,122.08585357666016 L480.21612548828125,122.29331970214844 L482.03485107421875,122.4167709350586 L483.81475830078125,122.47177124023438 L485.450439453125,122.4751968383789 L486.8045349121094,122.44819641113281 L487.7783508300781,122.40897369384766 L488.36322021484375,122.36882019042969 L488.5986633300781,122.31800842285156 L488.58038330078125,122.27818298339844 L488.37982177734375,122.24726104736328 L488.0168151855469,122.23778533935547 L487.4915771484375,122.26423645019531 L486.8275146484375,122.35279083251953 L486.023681640625,122.5306167602539 L485.10577392578125,122.85044860839844 L484.09112548828125,123.34122467041016 L483.0029296875,124.03972625732422 L481.8739318847656,124.95336151123047 L480.7748718261719,126.07355499267578 L479.7837219238281,127.37126159667969 L478.99212646484375,128.78573608398438 L478.49957275390625,130.23023986816406 L478.3862609863281,131.6222381591797 L478.7190856933594,132.8614959716797 L479.520263671875,133.86508178710938 L480.7693786621094,134.5679931640625 L482.381591796875,134.94073486328125 L484.31243896484375,134.95068359375 L486.4137878417969,134.62547302246094 L488.52001953125,134.02279663085938 L490.1859130859375,133.40451049804688 L491.20556640625,132.94851684570312 M507.1588439941406,114.31271362304688 L507.18585205078125,114.3227767944336 L507.1976013183594,114.35789489746094 L507.1741943359375,114.44110107421875 L507.0874328613281,114.59957122802734 L506.93603515625,114.87163543701172 L506.6968688964844,115.2781753540039 L506.3798828125,115.8348159790039 L505.974609375,116.55504608154297 L505.49749755859375,117.43634796142578 L504.9554138183594,118.47477722167969 L504.3646240234375,119.67049407958984 L503.707763671875,120.998779296875 L502.99932861328125,122.42772674560547 L502.25030517578125,123.9476089477539 L501.46856689453125,125.52915954589844 L500.6659240722656,127.15879821777344 L499.866455078125,128.81649780273438 L499.07891845703125,130.4535369873047 L498.3473205566406,132.00701904296875 L497.7203369140625,133.4268798828125 L497.2171936035156,134.64710998535156 L496.8517761230469,135.6405487060547 L496.619140625,136.38523864746094 L496.492431640625,136.87899780273438 L496.44659423828125,137.1477813720703 L496.460693359375,137.2494659423828 L496.4989318847656,137.24789428710938 L496.5381164550781,137.22084045410156 L496.5677490234375,137.20111083984375 L496.59173583984375,137.1987762451172 L496.6067810058594,137.19992065429688 L496.61767578125,137.19273376464844 L496.62384033203125,137.1804656982422 L496.6246643066406,137.1748046875 L496.6181640625,137.17832946777344 L496.61505126953125,137.18917846679688 L496.60308837890625,137.1925506591797 L496.5845947265625,137.18101501464844 L496.5650329589844,137.17237854003906 L496.54718017578125,137.17283630371094 L496.5184326171875,137.18637084960938 L496.4894104003906,137.2093048095703 L496.4603576660156,137.23330688476562 L496.4421691894531,137.25164794921875 L496.43780517578125,137.27854919433594 L496.4437255859375,137.30833435058594 L496.4493408203125,137.33465576171875 L496.4715576171875,137.3607940673828 L496.5103759765625,137.3819580078125 L496.55438232421875,137.39004516601562 L496.58538818359375,137.38778686523438 L496.591552734375,137.37074279785156 L496.5820007324219,137.3470458984375 L496.5907287597656,137.33963012695312 L496.6178283691406,137.35012817382812 L496.652099609375,137.36627197265625 L496.6725769042969,137.38064575195312 L496.66949462890625,137.38894653320312 L496.64453125,137.39776611328125 L496.6137390136719,137.4146270751953 L496.57147216796875,137.43447875976562 L496.52349853515625,137.43841552734375 L496.47235107421875,137.42843627929688 L496.4296875,137.40655517578125 L496.3992004394531,137.38307189941406 L496.3783264160156,137.36009216308594 L496.3623352050781,137.34349060058594 L496.35150146484375,137.32948303222656 M520.5413818359375,114.54228210449219 L520.1320190429688,114.49159240722656 L519.4929809570312,114.43901062011719 L518.696044921875,114.44547271728516 L517.8546142578125,114.58261108398438 L516.9459228515625,114.90787506103516 L515.9544067382812,115.44564056396484 L514.8763427734375,116.20088958740234 L513.775146484375,117.19830322265625 L512.6997680664062,118.4505844116211 L511.6903381347656,119.94319915771484 L510.782958984375,121.63146209716797 L510.0341491699219,123.43783569335938 L509.4841613769531,125.27357482910156 L509.1727600097656,127.09288024902344 L509.11553955078125,128.8240966796875 L509.3349914550781,130.40074157714844 L509.831298828125,131.75100708007812 L510.60028076171875,132.8186798095703 L511.6259765625,133.5589141845703 L512.884765625,133.96266174316406 L514.3428955078125,134.00291442871094 L515.968505859375,133.67478942871094 L517.6778564453125,132.98011779785156 L519.35302734375,131.95489501953125 L520.8743896484375,130.64871215820312 L522.113037109375,129.14523315429688 L522.9688720703125,127.53759765625 L523.399658203125,125.93612670898438 L523.3805541992188,124.4289321899414 L522.9337158203125,123.11215209960938 L522.1143798828125,122.04134368896484 L520.9942016601562,121.2718276977539 L519.6583251953125,120.82721710205078 L518.1962280273438,120.71139526367188 L516.6919555664062,120.89762115478516 L515.2333984375,121.35944366455078 L513.91455078125,122.03760528564453 L512.841796875,122.87518310546875 L512.0989990234375,123.79145812988281 L511.80133056640625,124.69837188720703 L511.98974609375,125.50399780273438 L512.6116333007812,126.13732147216797 L513.3325805664062,126.5405502319336 L513.894775390625,126.73545837402344 M540.2619018554688,117.0724105834961 L539.9783325195312,116.80838012695312 L539.4443969726562,116.44403076171875 L538.6453857421875,116.07997131347656 L537.636474609375,115.8604736328125 L536.4234619140625,115.80294799804688 L535.0459594726562,115.90367889404297 L533.569091796875,116.1181640625 L532.1091918945312,116.4404296875 L530.79736328125,116.85863494873047 L529.7427978515625,117.3671875 L528.9996948242188,117.94590759277344 L528.594482421875,118.58094024658203 L528.5589599609375,119.24057006835938 L528.9183349609375,119.91216278076172 L529.70068359375,120.58380889892578 L530.898681640625,121.25289154052734 L532.4513549804688,121.90912628173828 L534.262451171875,122.55596923828125 L536.2205810546875,123.1962890625 L538.1984252929688,123.84269714355469 L540.077880859375,124.50566864013672 L541.7716064453125,125.19232940673828 L543.20556640625,125.88287353515625 L544.3458862304688,126.55880737304688 L545.18359375,127.18830871582031 L545.7252807617188,127.75457763671875 L545.9722900390625,128.2433319091797 L545.95166015625,128.65135192871094 L545.6663208007812,128.96188354492188 L545.1204223632812,129.1596221923828 L544.3184204101562,129.21224975585938 L543.2567749023438,129.10523986816406 L541.9371337890625,128.82992553710938 L540.3946533203125,128.3985595703125 L538.6849365234375,127.82942199707031 L536.8911743164062,127.14835357666016 L535.1362915039062,126.37639617919922 L533.5111083984375,125.52547454833984 L532.1026000976562,124.62118530273438 L530.9462280273438,123.6866226196289 L530.0390014648438,122.74408721923828 L529.3448486328125,121.81343841552734 L528.8547973632812,120.91635131835938 L528.5831298828125,120.040771484375 L528.6021728515625,119.18888092041016 L528.9940185546875,118.35457611083984 L529.8363037109375,117.54933166503906 L531.1538696289062,116.79373168945312 L532.9166870117188,116.12407684326172 L535.076904296875,115.55583953857422 L537.5388793945312,115.10041046142578 L540.1930541992188,114.75106811523438 L542.934814453125,114.50540161132812 L545.6464233398438,114.34538269042969 L548.177001953125,114.23827362060547 L550.4061889648438,114.16064453125 L552.2186279296875,114.100830078125 L553.5491333007812,114.05315399169922 L554.4254760742188,114.02965545654297 L554.9094848632812,114.02849578857422 L555.10986328125,114.03373718261719 M579.1135864257812,114.38353729248047 L579.0397338867188,114.0853271484375 L578.8885498046875,113.56961059570312 L578.616455078125,112.88632202148438 L578.1718139648438,112.17621612548828 L577.467041015625,111.52813720703125 L576.4478149414062,111.04822540283203 L575.0730590820312,110.80138397216797 L573.3989868164062,110.84005737304688 L571.5375366210938,111.17778778076172 L569.6549072265625,111.80366516113281 L567.9314575195312,112.66938018798828 L566.5418701171875,113.72756958007812 L565.5946655273438,114.92472076416016 L565.1834106445312,116.22076416015625 L565.33447265625,117.54237365722656 L566.0362548828125,118.80033111572266 L567.2368774414062,119.861328125 L568.86962890625,120.62371063232422 L570.8185424804688,121.00745391845703 L572.9683227539062,121.00175476074219 L575.15576171875,120.61922454833984 L577.2080688476562,119.89945983886719 L578.9721069335938,118.88135528564453 L580.364501953125,117.66068267822266 L581.3541870117188,116.3390121459961 L581.964599609375,115.04483795166016 L582.2342529296875,113.90252685546875 L582.2301025390625,113.00047302246094 L582.0505981445312,112.35913848876953 L581.8011474609375,111.98101806640625 L581.576416015625,111.87735748291016 L581.4075927734375,112.08438110351562 L581.2780151367188,112.66902160644531 L581.1800537109375,113.6834945678711 L581.1338500976562,115.11328125 L581.1558227539062,116.88057708740234 L581.266845703125,118.89911651611328 L581.4493408203125,121.08038330078125 L581.6559448242188,123.35307312011719 L581.8316650390625,125.65254974365234 L581.917724609375,127.89960479736328 L581.8407592773438,129.99066162109375 L581.53076171875,131.8347625732422 L580.9426879882812,133.35845947265625 L580.0470581054688,134.52003479003906 L578.8394165039062,135.30384826660156 L577.3433837890625,135.7072296142578 L575.607177734375,135.7239532470703 L573.72021484375,135.36880493164062 L571.8099975585938,134.67796325683594 L570.0025634765625,133.74412536621094 L568.433837890625,132.65069580078125 L567.2093505859375,131.50625610351562 L566.376220703125,130.4038848876953 L565.9223022460938,129.5553436279297 L565.7485961914062,129.03945922851562 M599.5205078125,120.12643432617188 L599.2557983398438,119.74881744384766 L598.7227783203125,119.17079162597656 L597.8478393554688,118.50656127929688 L596.6378784179688,117.94733428955078 L595.1052856445312,117.55610656738281 L593.3375854492188,117.35427856445312 L591.4603271484375,117.31646728515625 L589.6529541015625,117.42720031738281 L588.057861328125,117.66924285888672 L586.7994995117188,118.02484893798828 L585.9749755859375,118.4802017211914 L585.6516723632812,119.00944519042969 L585.8741455078125,119.58709716796875 L586.6494750976562,120.16459655761719 L587.9536743164062,120.70610809326172 L589.7161865234375,121.19583892822266 L591.8311157226562,121.64734649658203 L594.1541748046875,122.10157775878906 L596.5292358398438,122.60742950439453 L598.7786254882812,123.1825942993164 L600.7877807617188,123.83294677734375 L602.4884643554688,124.55268096923828 L603.8685302734375,125.3305435180664 L604.9560546875,126.15424346923828 L605.7665405273438,126.97762298583984 L606.3021240234375,127.75328826904297 L606.5653686523438,128.426513671875 L606.5638427734375,128.9567108154297 L606.2998046875,129.32911682128906 L605.7767944335938,129.5355224609375 L604.9547119140625,129.53692626953125 L603.8388061523438,129.33901977539062 L602.4290161132812,128.92813110351562 L600.783447265625,128.3194580078125 L598.966796875,127.55646514892578 L597.048583984375,126.6837387084961 L595.06201171875,125.72620391845703 L593.0877685546875,124.74668884277344 L591.1755981445312,123.78199005126953 L589.4249877929688,122.87786865234375 L587.9058837890625,122.07100677490234 L586.6744995117188,121.3625259399414 L585.7327880859375,120.7265853881836 L585.0961303710938,120.1385726928711 L584.7577514648438,119.57466125488281 L584.7501220703125,119.01956176757812 L585.1057739257812,118.48106384277344 L585.8763427734375,117.96786499023438 L587.08544921875,117.50711822509766 L588.7506103515625,117.13756561279297 L590.822509765625,116.88874816894531 L593.2030029296875,116.76891326904297 L595.7485961914062,116.77374267578125 L598.308837890625,116.87422943115234 L600.7440795898438,117.04249572753906 L602.9534912109375,117.25821685791016 L604.8652954101562,117.4833984375 L606.4309692382812,117.67757415771484 L607.6383056640625,117.80699920654297 L608.4849853515625,117.8425521850586 L608.9879760742188,117.77088165283203 L609.1932983398438,117.61526489257812 L609.198974609375,117.41820526123047 L609.1027221679688,117.22493743896484 L609.0220947265625,117.08375549316406 L608.9913330078125,117.01215362548828 L608.9959716796875,116.98367309570312 L609.0069580078125,116.97897338867188 L609.0108642578125,116.98065185546875 L608.9999389648438,116.97187042236328 L608.9931030273438,116.94985961914062 L608.9876708984375,116.92189025878906 L608.9877319335938,116.88739776611328 L609.0032958984375,116.86324310302734 L609.0383911132812,116.85313415527344 L609.08447265625,116.84869384765625 L609.127685546875,116.83587646484375 L609.1607055664062,116.81783294677734 L609.1826171875,116.78700256347656 L609.1943969726562,116.74560546875 L609.2068481445312,116.69229888916016 L609.217041015625,116.64049530029297 L609.2243041992188,116.60041809082031 M609.354248046875,116.53904724121094 L609.411865234375,116.54048919677734 L609.4900512695312,116.52190399169922 L609.5797729492188,116.48505401611328 L609.6458740234375,116.43991088867188 L609.6949462890625,116.4168701171875 L609.7274169921875,116.4244613647461 L609.7474365234375,116.45951843261719 L609.7599487304688,116.49669647216797 L609.7747802734375,116.52290344238281 L609.7747802734375,116.53257751464844 L609.7677001953125,116.54120635986328 L609.7521362304688,116.54913330078125 L609.7369995117188,116.5550537109375 L609.7430419921875,116.55594635009766 L609.775634765625,116.5430679321289 L609.8192138671875,116.51470947265625 L609.8624267578125,116.48735809326172 L609.883056640625,116.46546936035156 L609.8787231445312,116.45249938964844 L609.8687744140625,116.46092987060547 L609.865966796875,116.47538757324219 L609.873779296875,116.48336029052734 L609.8917236328125,116.48430633544922 L609.9053955078125,116.47407531738281 L609.90673828125,116.45459747314453 L609.8983154296875,116.44163513183594 L609.8825073242188,116.43257141113281 L609.8695678710938,116.421875 L609.8648681640625,116.4120101928711 L609.86572265625,116.39608764648438 L609.8670654296875,116.36772918701172 L609.863525390625,116.33194732666016 L609.861083984375,116.2984619140625 L609.8640747070312,116.26226043701172 L609.8772583007812,116.23632049560547 L609.8997192382812,116.21556091308594 L609.9255981445312,116.19334411621094 L609.945068359375,116.17340087890625 L609.958984375,116.16207885742188 M610.3051147460938,115.99552917480469 L610.3966064453125,116.01587677001953 L610.5322265625,116.09974670410156 L610.6859130859375,116.25100708007812 L610.8134765625,116.4677505493164 L610.89697265625,116.73162078857422 L610.9274291992188,117.06454467773438 L610.9022216796875,117.53317260742188 L610.81396484375,118.17848205566406 L610.67626953125,119.00582122802734 L610.5247192382812,120.01544952392578 L610.413330078125,121.20384979248047 L610.3851928710938,122.56137084960938 L610.4408569335938,124.07476043701172 L610.5829467773438,125.71247100830078 L610.7664794921875,127.40406036376953 L610.9813842773438,129.08815002441406 L611.234375,130.70265197753906 L611.5275268554688,132.19122314453125 L611.8408203125,133.5717010498047 L612.1121826171875,134.64035034179688 L612.2813720703125,135.30673217773438 " fill="none" stroke="green" stroke-linecap="round" stroke-width="2" /><path d="M0,0 M435.33477783203125,169.83389282226562 L435.33465576171875,169.87017822265625 L435.31805419921875,170.0760955810547 L435.2571716308594,170.58338928222656 L435.113525390625,171.4965057373047 L434.8547058105469,172.8279571533203 L434.5245361328125,174.52764892578125 L434.1701965332031,176.52369689941406 L433.8686828613281,178.7413787841797 L433.69482421875,181.1053924560547 L433.7134094238281,183.53036499023438 L433.9419860839844,185.8949432373047 L434.3963317871094,188.0690460205078 L435.0540466308594,189.938720703125 L435.90728759765625,191.41485595703125 L436.9462585449219,192.4456787109375 L438.1983642578125,193.00286865234375 L439.6177062988281,193.0713348388672 L441.1274108886719,192.66114807128906 L442.61895751953125,191.8221893310547 L443.97930908203125,190.63380432128906 L445.1148681640625,189.2174835205078 L445.9809875488281,187.69308471679688 L446.52655029296875,186.1673126220703 L446.7141418457031,184.71478271484375 L446.5299072265625,183.42015075683594 L445.9853210449219,182.34779357910156 L445.1381530761719,181.58103942871094 L444.05816650390625,181.18284606933594 L442.8372497558594,181.20103454589844 L441.5488586425781,181.6404266357422 L440.2769775390625,182.50364685058594 L439.090576171875,183.73724365234375 L438.06658935546875,185.25546264648438 L437.27008056640625,186.94000244140625 L436.7621765136719,188.65859985351562 L436.625732421875,190.27926635742188 L436.8929748535156,191.69044494628906 L437.50604248046875,192.80177307128906 L438.173828125,193.52114868164062 L438.67596435546875,193.88009643554688 M458.2541809082031,165.4940643310547 L458.59527587890625,165.44979858398438 L459.25506591796875,165.3857879638672 L460.2673645019531,165.31939697265625 L461.5644836425781,165.2701873779297 L463.12274169921875,165.23519897460938 L464.88031005859375,165.20101928710938 L466.7884216308594,165.1561737060547 L468.75701904296875,165.0943145751953 L470.66070556640625,165.03640747070312 L472.3320617675781,165.0 L473.6553955078125,165.00115966796875 L474.5380859375,165.0409698486328 L475.04595947265625,165.1604766845703 L475.284912109375,165.42591857910156 L475.35711669921875,165.9600830078125 L475.30340576171875,166.8649444580078 L475.14111328125,168.1851043701172 L474.8367614746094,169.8915557861328 L474.442626953125,171.93035888671875 L473.978271484375,174.2109375 L473.4888916015625,176.67237854003906 L472.9764709472656,179.24862670898438 L472.4482727050781,181.87181091308594 L471.913818359375,184.47377014160156 L471.4255676269531,186.96865844726562 L471.00225830078125,189.24307250976562 L470.699951171875,191.1947021484375 L470.5093078613281,192.724853515625 L470.41497802734375,193.78697204589844 L470.3897705078125,194.43096923828125 L470.391357421875,194.7067413330078 L470.3834533691406,194.69557189941406 L470.3710632324219,194.483642578125 L470.35150146484375,194.21925354003906 L470.3352966308594,194.00164794921875 M464.63214111328125,179.9798583984375 L464.7032470703125,179.97268676757812 L464.9730224609375,179.96121215820312 L465.590576171875,179.93226623535156 L466.64459228515625,179.85699462890625 L468.1235656738281,179.71835327148438 L469.8943176269531,179.51953125 L471.7618408203125,179.28273010253906 L473.540771484375,179.04556274414062 L475.1144104003906,178.84605407714844 L476.41461181640625,178.69766235351562 L477.4356689453125,178.61737060546875 L478.15264892578125,178.58348083496094 L478.5730895996094,178.57455444335938 L478.76312255859375,178.5688934326172 L478.8106994628906,178.56167602539062 L478.7984924316406,178.55276489257812 M503.6440124511719,174.6271209716797 L503.330322265625,174.4501495361328 L502.78973388671875,174.20375061035156 L502.0298767089844,173.97247314453125 L501.12725830078125,173.88296508789062 L500.08880615234375,173.99435424804688 L498.94598388671875,174.31271362304688 L497.76519775390625,174.8103790283203 L496.67724609375,175.46617126464844 L495.8092041015625,176.25474548339844 L495.2718505859375,177.15740966796875 L495.09912109375,178.13641357421875 L495.30364990234375,179.1400604248047 L495.8569641113281,180.11849975585938 L496.7291564941406,181.0363006591797 L497.8948059082031,181.87628173828125 L499.3333740234375,182.65228271484375 L500.98883056640625,183.36453247070312 L502.8179016113281,184.0411376953125 L504.7347106933594,184.71209716796875 L506.6501159667969,185.40908813476562 L508.45330810546875,186.15220642089844 L510.04693603515625,186.9552764892578 L511.36224365234375,187.7989501953125 L512.3468017578125,188.6559600830078 L512.9839477539062,189.49021911621094 L513.2809448242188,190.2577667236328 L513.2459106445312,190.92552185058594 L512.88134765625,191.4647674560547 L512.206787109375,191.85768127441406 L511.218505859375,192.07186889648438 L509.9491882324219,192.08746337890625 L508.43316650390625,191.87648010253906 L506.734375,191.4417724609375 L504.9161071777344,190.79165649414062 L503.0757141113281,189.9619903564453 L501.306396484375,188.9860382080078 L499.71630859375,187.9075927734375 L498.3670349121094,186.75473022460938 L497.3172607421875,185.5592041015625 L496.5773010253906,184.3349609375 L496.1755065917969,183.112060546875 L496.11248779296875,181.91558837890625 L496.39013671875,180.7688446044922 L496.9908142089844,179.69094848632812 L497.9222412109375,178.7021484375 L499.1459045410156,177.8197479248047 L500.6328430175781,177.07940673828125 L502.2989501953125,176.5044403076172 L504.0290222167969,176.09228515625 L505.72119140625,175.8114013671875 L507.3114013671875,175.62709045410156 L508.78533935546875,175.4770050048828 L510.148681640625,175.31924438476562 L511.38726806640625,175.132080078125 L512.3193969726562,174.958251953125 L512.8776245117188,174.82948303222656 M548.592041015625,171.5185546875 L548.30322265625,171.1866455078125 L547.7669067382812,170.69500732421875 L547.0029907226562,170.15353393554688 L546.0805053710938,169.72665405273438 L545.0137329101562,169.45550537109375 L543.790771484375,169.33734130859375 L542.4384765625,169.38006591796875 L540.9842529296875,169.59283447265625 L539.5330810546875,170.0005645751953 L538.1828002929688,170.62408447265625 L537.0307006835938,171.47637939453125 L536.1441040039062,172.54519653320312 L535.5881958007812,173.81263732910156 L535.3574829101562,175.20616149902344 L535.463623046875,176.6455078125 L535.8941040039062,178.04222106933594 L536.6427001953125,179.3138427734375 L537.6979370117188,180.38784790039062 L539.0310668945312,181.1871795654297 L540.57080078125,181.64427185058594 L542.2168579101562,181.71376037597656 L543.8395385742188,181.37954711914062 L545.3148803710938,180.67193603515625 L546.5533447265625,179.6588897705078 L547.4791870117188,178.4150390625 L548.077392578125,177.0502471923828 L548.34765625,175.66928100585938 L548.3416748046875,174.3856658935547 L548.134765625,173.30560302734375 L547.8419189453125,172.48678588867188 L547.5321655273438,171.93626403808594 L547.2796020507812,171.65902709960938 L547.0935668945312,171.65859985351562 L546.9956665039062,171.9925537109375 L547.0025024414062,172.73304748535156 L547.1648559570312,173.88558959960938 L547.501708984375,175.39559936523438 L548.0253295898438,177.15292358398438 L548.6920166015625,179.03225708007812 L549.476318359375,180.94602966308594 L550.3536987304688,182.8433837890625 L551.3056030273438,184.66343688964844 L552.3018188476562,186.36537170410156 L553.2976684570312,187.9026641845703 L554.2186889648438,189.248291015625 L555.012939453125,190.3899383544922 L555.6229248046875,191.3335418701172 L555.9952392578125,192.08473205566406 L556.10693359375,192.66665649414062 L555.9507446289062,193.1134033203125 L555.5088500976562,193.4709930419922 L554.7650756835938,193.76522827148438 L553.6798095703125,194.01220703125 L552.24267578125,194.20535278320312 L550.49755859375,194.3251495361328 L548.5384521484375,194.3495330810547 L546.4959106445312,194.2810516357422 L544.5094604492188,194.12498474121094 L542.7002563476562,193.91392517089844 L541.182861328125,193.67343139648438 L540.0302734375,193.43316650390625 L539.2561645507812,193.21206665039062 L538.8117065429688,193.0344696044922 L538.6669311523438,192.90248107910156 L538.789306640625,192.81088256835938 L539.16455078125,192.73187255859375 L539.6060791015625,192.66835021972656 L539.9658813476562,192.6228485107422 M577.8824462890625,177.38441467285156 L577.741943359375,177.06089782714844 L577.4528198242188,176.5551300048828 L576.9715576171875,175.9589080810547 L576.2687377929688,175.4431915283203 L575.29833984375,175.10101318359375 L574.027099609375,174.99717712402344 L572.4698486328125,175.16452026367188 L570.718505859375,175.64894104003906 L568.9000244140625,176.46278381347656 L567.16796875,177.6099395751953 L565.6527099609375,179.07325744628906 L564.4434204101562,180.7902374267578 L563.6114501953125,182.6589813232422 L563.215087890625,184.5579071044922 L563.2908325195312,186.3213348388672 L563.8817749023438,187.812255859375 L564.9703979492188,188.92027282714844 L566.4730834960938,189.5726776123047 L568.3002319335938,189.74569702148438 L570.3228759765625,189.47157287597656 L572.423095703125,188.7816162109375 L574.494873046875,187.74037170410156 L576.4142456054688,186.4210662841797 L578.0432739257812,184.90357971191406 L579.2825317382812,183.26904296875 L580.0446166992188,181.60906982421875 L580.3173828125,179.98904418945312 L580.1220703125,178.45799255371094 L579.5269165039062,177.04901123046875 L578.617919921875,175.794921875 L577.5022583007812,174.7261505126953 L576.21826171875,173.9070281982422 L574.8470458984375,173.39002990722656 L573.460205078125,173.1839141845703 L572.3453979492188,173.18373107910156 L571.6456298828125,173.26861572265625 " fill="none" stroke="black" stroke-linecap="round" stroke-width="1" /></svg>